%
M48
M72
T01C0.0236
T02C0.0240
T03C0.0276
T04C0.0315
T05C0.0320
T06C0.0360
T07C0.0382
T08C0.0394
T09C0.0400
T10C0.0440
T11C0.0512
T12C0.1614
%
T01
X8601Y6355
X14351Y6605
X16101Y4605
X14351Y3105
X6101Y11105
T02
X11401Y5605
X11701Y16405
T03
X18051Y8805
X19051Y8805
X15851Y6905
X15851Y5905
X17101Y4605
X18101Y4605
X19601Y4605
X20601Y4605
X13101Y5605
X12101Y5605
X8101Y5605
X7101Y5605
X5551Y4955
X5551Y3955
T04
X5302Y7274
X6089Y7274
X6876Y7274
X7664Y7274
X8451Y7274
X9239Y7274
X10026Y7274
X10813Y7274
X15301Y9105
X16501Y9105
X10813Y15935
X10026Y15935
X9239Y15935
X8451Y15935
X7664Y15935
X6876Y15935
X6089Y15935
X5302Y15935
X4514Y15935
X3727Y15935
X3727Y7274
X4514Y7274
T05
X1101Y6605
X1101Y5605
X1101Y16105
X1101Y17105
X15101Y4605
X15101Y1605
T06
X17601Y2105
X22601Y2105
X5601Y1605
X5601Y2605
X4101Y17605
X9101Y17605
T07
X16101Y17605
X16101Y18605
X16101Y16605
X16101Y15605
X16101Y14605
X16101Y13605
X16101Y12605
X16101Y11605
X19101Y11605
X19101Y12605
X19101Y13605
X19101Y14605
X19101Y15605
X19101Y16605
X19101Y17605
X19101Y18605
T08
X11101Y20105
X10101Y20105
X7601Y20105
X6601Y20105
T09
X15101Y21105
X16101Y21105
X18222Y21759
X18222Y19979
X20782Y19979
X20782Y21759
T10
X14601Y17605
X10601Y17605
T11
X23601Y16605
X23601Y14636
X23601Y12668
X23601Y10505
X23601Y8536
X23601Y6568
T12
X2701Y3055
X2701Y20155
X25551Y20155
X25551Y3055
M30
