G75*
G70*
%OFA0B0*%
%FSLAX24Y24*%
%IPPOS*%
%LPD*%
%AMOC8*
5,1,8,0,0,1.08239X$1,22.5*
%
%ADD10C,0.0000*%
%ADD11R,0.0020X0.2913*%
%ADD12R,0.0020X0.2402*%
%ADD13R,0.0020X0.0177*%
%ADD14R,0.0020X0.2362*%
%ADD15R,0.0020X0.0098*%
%ADD16R,0.0020X0.2303*%
%ADD17R,0.0020X0.0039*%
%ADD18R,0.0020X0.2264*%
%ADD19R,0.0020X0.2224*%
%ADD20R,0.0020X0.2185*%
%ADD21R,0.0020X0.2146*%
%ADD22R,0.0020X0.2106*%
%ADD23R,0.0020X0.2087*%
%ADD24R,0.0020X0.2067*%
%ADD25R,0.0020X0.0295*%
%ADD26R,0.0020X0.2047*%
%ADD27R,0.0020X0.0413*%
%ADD28R,0.0020X0.2028*%
%ADD29R,0.0020X0.0512*%
%ADD30R,0.0020X0.2008*%
%ADD31R,0.0020X0.0610*%
%ADD32R,0.0020X0.1969*%
%ADD33R,0.0020X0.0669*%
%ADD34R,0.0020X0.1949*%
%ADD35R,0.0020X0.0748*%
%ADD36R,0.0020X0.1929*%
%ADD37R,0.0020X0.0827*%
%ADD38R,0.0020X0.1890*%
%ADD39R,0.0020X0.0866*%
%ADD40R,0.0020X0.1831*%
%ADD41R,0.0020X0.0925*%
%ADD42R,0.0020X0.1791*%
%ADD43R,0.0020X0.0197*%
%ADD44R,0.0020X0.0591*%
%ADD45R,0.0020X0.1732*%
%ADD46R,0.0020X0.0138*%
%ADD47R,0.0020X0.1693*%
%ADD48R,0.0020X0.0118*%
%ADD49R,0.0020X0.0453*%
%ADD50R,0.0020X0.1634*%
%ADD51R,0.0020X0.0059*%
%ADD52R,0.0020X0.1594*%
%ADD53R,0.0020X0.0374*%
%ADD54R,0.0020X0.1535*%
%ADD55R,0.0020X0.0335*%
%ADD56R,0.0020X0.1496*%
%ADD57R,0.0020X0.1417*%
%ADD58R,0.0020X0.0276*%
%ADD59R,0.0020X0.1378*%
%ADD60R,0.0020X0.0236*%
%ADD61R,0.0020X0.1319*%
%ADD62R,0.0020X0.1280*%
%ADD63R,0.0020X0.0354*%
%ADD64R,0.0020X0.1220*%
%ADD65R,0.0020X0.0492*%
%ADD66R,0.0020X0.0020*%
%ADD67R,0.0020X0.1181*%
%ADD68R,0.0020X0.0571*%
%ADD69R,0.0020X0.1122*%
%ADD70R,0.0020X0.0650*%
%ADD71R,0.0020X0.0079*%
%ADD72R,0.0020X0.1083*%
%ADD73R,0.0020X0.0728*%
%ADD74R,0.0020X0.1024*%
%ADD75R,0.0020X0.0787*%
%ADD76R,0.0020X0.0984*%
%ADD77R,0.0020X0.0906*%
%ADD78R,0.0020X0.0157*%
%ADD79R,0.0020X0.0807*%
%ADD80R,0.0020X0.0531*%
%ADD81R,0.0020X0.0256*%
%ADD82R,0.0020X0.0472*%
%ADD83R,0.0020X0.0315*%
%ADD84R,0.0020X0.0394*%
%ADD85R,0.0020X0.0433*%
%ADD86R,0.0020X0.0551*%
%ADD87R,0.0020X0.0630*%
%ADD88R,0.0020X0.0709*%
%ADD89R,0.0020X0.0846*%
%ADD90R,0.0020X0.0886*%
%ADD91R,0.0020X0.0768*%
%ADD92R,0.0020X0.0217*%
%ADD93R,0.0020X0.0945*%
%ADD94R,0.0020X0.0689*%
%ADD95R,0.0020X0.1004*%
%ADD96R,0.0020X0.1043*%
%ADD97R,0.0020X0.1102*%
%ADD98R,0.0020X0.1161*%
%ADD99R,0.0020X0.1260*%
%ADD100R,0.0020X0.1437*%
%ADD101R,0.0020X0.1555*%
%ADD102R,0.0020X0.1713*%
%ADD103R,0.0020X0.1870*%
%ADD104R,0.0020X0.2323*%
%ADD105R,0.0020X0.2382*%
%ADD106R,0.0020X0.2421*%
%ADD107R,0.0020X0.2461*%
%ADD108R,0.0020X0.2480*%
%ADD109R,0.0020X0.2520*%
%ADD110R,0.0020X0.2559*%
%ADD111R,0.0020X0.2579*%
%ADD112R,0.0020X0.2618*%
%ADD113R,0.0020X0.2638*%
%ADD114R,0.0020X0.2677*%
%ADD115R,0.0020X0.2697*%
%ADD116R,0.0020X0.2736*%
%ADD117R,0.0020X0.2756*%
%ADD118R,0.0020X0.2795*%
%ADD119R,0.0020X0.2815*%
%ADD120R,0.0020X0.2854*%
%ADD121R,0.0020X0.2894*%
%ADD122C,0.0600*%
%ADD123R,0.0870X0.0240*%
%ADD124R,0.0650X0.0650*%
%ADD125C,0.0650*%
%ADD126C,0.0520*%
%ADD127C,0.0740*%
%ADD128OC8,0.0520*%
%ADD129OC8,0.0560*%
%ADD130C,0.0560*%
%ADD131R,0.0800X0.0800*%
%ADD132C,0.0800*%
%ADD133C,0.0660*%
%ADD134R,0.0515X0.0515*%
%ADD135C,0.0582*%
%ADD136C,0.0594*%
%ADD137C,0.0100*%
%ADD138C,0.0400*%
D10*
X000101Y000101D02*
X000101Y021947D01*
X028221Y021947D01*
X028221Y000101D01*
X000101Y000101D01*
X001894Y002551D02*
X001896Y002607D01*
X001902Y002663D01*
X001912Y002719D01*
X001925Y002773D01*
X001943Y002827D01*
X001964Y002879D01*
X001988Y002930D01*
X002017Y002979D01*
X002048Y003025D01*
X002083Y003070D01*
X002120Y003112D01*
X002161Y003151D01*
X002204Y003187D01*
X002250Y003220D01*
X002297Y003250D01*
X002347Y003276D01*
X002399Y003299D01*
X002452Y003319D01*
X002506Y003334D01*
X002561Y003346D01*
X002617Y003354D01*
X002673Y003358D01*
X002729Y003358D01*
X002785Y003354D01*
X002841Y003346D01*
X002896Y003334D01*
X002950Y003319D01*
X003003Y003299D01*
X003055Y003276D01*
X003104Y003250D01*
X003152Y003220D01*
X003198Y003187D01*
X003241Y003151D01*
X003282Y003112D01*
X003319Y003070D01*
X003354Y003025D01*
X003385Y002979D01*
X003414Y002930D01*
X003438Y002879D01*
X003459Y002827D01*
X003477Y002773D01*
X003490Y002719D01*
X003500Y002663D01*
X003506Y002607D01*
X003508Y002551D01*
X003506Y002495D01*
X003500Y002439D01*
X003490Y002383D01*
X003477Y002329D01*
X003459Y002275D01*
X003438Y002223D01*
X003414Y002172D01*
X003385Y002123D01*
X003354Y002077D01*
X003319Y002032D01*
X003282Y001990D01*
X003241Y001951D01*
X003198Y001915D01*
X003152Y001882D01*
X003105Y001852D01*
X003055Y001826D01*
X003003Y001803D01*
X002950Y001783D01*
X002896Y001768D01*
X002841Y001756D01*
X002785Y001748D01*
X002729Y001744D01*
X002673Y001744D01*
X002617Y001748D01*
X002561Y001756D01*
X002506Y001768D01*
X002452Y001783D01*
X002399Y001803D01*
X002347Y001826D01*
X002297Y001852D01*
X002250Y001882D01*
X002204Y001915D01*
X002161Y001951D01*
X002120Y001990D01*
X002083Y002032D01*
X002048Y002077D01*
X002017Y002123D01*
X001988Y002172D01*
X001964Y002223D01*
X001943Y002275D01*
X001925Y002329D01*
X001912Y002383D01*
X001902Y002439D01*
X001896Y002495D01*
X001894Y002551D01*
X001894Y019651D02*
X001896Y019707D01*
X001902Y019763D01*
X001912Y019819D01*
X001925Y019873D01*
X001943Y019927D01*
X001964Y019979D01*
X001988Y020030D01*
X002017Y020079D01*
X002048Y020125D01*
X002083Y020170D01*
X002120Y020212D01*
X002161Y020251D01*
X002204Y020287D01*
X002250Y020320D01*
X002297Y020350D01*
X002347Y020376D01*
X002399Y020399D01*
X002452Y020419D01*
X002506Y020434D01*
X002561Y020446D01*
X002617Y020454D01*
X002673Y020458D01*
X002729Y020458D01*
X002785Y020454D01*
X002841Y020446D01*
X002896Y020434D01*
X002950Y020419D01*
X003003Y020399D01*
X003055Y020376D01*
X003104Y020350D01*
X003152Y020320D01*
X003198Y020287D01*
X003241Y020251D01*
X003282Y020212D01*
X003319Y020170D01*
X003354Y020125D01*
X003385Y020079D01*
X003414Y020030D01*
X003438Y019979D01*
X003459Y019927D01*
X003477Y019873D01*
X003490Y019819D01*
X003500Y019763D01*
X003506Y019707D01*
X003508Y019651D01*
X003506Y019595D01*
X003500Y019539D01*
X003490Y019483D01*
X003477Y019429D01*
X003459Y019375D01*
X003438Y019323D01*
X003414Y019272D01*
X003385Y019223D01*
X003354Y019177D01*
X003319Y019132D01*
X003282Y019090D01*
X003241Y019051D01*
X003198Y019015D01*
X003152Y018982D01*
X003105Y018952D01*
X003055Y018926D01*
X003003Y018903D01*
X002950Y018883D01*
X002896Y018868D01*
X002841Y018856D01*
X002785Y018848D01*
X002729Y018844D01*
X002673Y018844D01*
X002617Y018848D01*
X002561Y018856D01*
X002506Y018868D01*
X002452Y018883D01*
X002399Y018903D01*
X002347Y018926D01*
X002297Y018952D01*
X002250Y018982D01*
X002204Y019015D01*
X002161Y019051D01*
X002120Y019090D01*
X002083Y019132D01*
X002048Y019177D01*
X002017Y019223D01*
X001988Y019272D01*
X001964Y019323D01*
X001943Y019375D01*
X001925Y019429D01*
X001912Y019483D01*
X001902Y019539D01*
X001896Y019595D01*
X001894Y019651D01*
X024744Y019651D02*
X024746Y019707D01*
X024752Y019763D01*
X024762Y019819D01*
X024775Y019873D01*
X024793Y019927D01*
X024814Y019979D01*
X024838Y020030D01*
X024867Y020079D01*
X024898Y020125D01*
X024933Y020170D01*
X024970Y020212D01*
X025011Y020251D01*
X025054Y020287D01*
X025100Y020320D01*
X025147Y020350D01*
X025197Y020376D01*
X025249Y020399D01*
X025302Y020419D01*
X025356Y020434D01*
X025411Y020446D01*
X025467Y020454D01*
X025523Y020458D01*
X025579Y020458D01*
X025635Y020454D01*
X025691Y020446D01*
X025746Y020434D01*
X025800Y020419D01*
X025853Y020399D01*
X025905Y020376D01*
X025954Y020350D01*
X026002Y020320D01*
X026048Y020287D01*
X026091Y020251D01*
X026132Y020212D01*
X026169Y020170D01*
X026204Y020125D01*
X026235Y020079D01*
X026264Y020030D01*
X026288Y019979D01*
X026309Y019927D01*
X026327Y019873D01*
X026340Y019819D01*
X026350Y019763D01*
X026356Y019707D01*
X026358Y019651D01*
X026356Y019595D01*
X026350Y019539D01*
X026340Y019483D01*
X026327Y019429D01*
X026309Y019375D01*
X026288Y019323D01*
X026264Y019272D01*
X026235Y019223D01*
X026204Y019177D01*
X026169Y019132D01*
X026132Y019090D01*
X026091Y019051D01*
X026048Y019015D01*
X026002Y018982D01*
X025955Y018952D01*
X025905Y018926D01*
X025853Y018903D01*
X025800Y018883D01*
X025746Y018868D01*
X025691Y018856D01*
X025635Y018848D01*
X025579Y018844D01*
X025523Y018844D01*
X025467Y018848D01*
X025411Y018856D01*
X025356Y018868D01*
X025302Y018883D01*
X025249Y018903D01*
X025197Y018926D01*
X025147Y018952D01*
X025100Y018982D01*
X025054Y019015D01*
X025011Y019051D01*
X024970Y019090D01*
X024933Y019132D01*
X024898Y019177D01*
X024867Y019223D01*
X024838Y019272D01*
X024814Y019323D01*
X024793Y019375D01*
X024775Y019429D01*
X024762Y019483D01*
X024752Y019539D01*
X024746Y019595D01*
X024744Y019651D01*
X024744Y002551D02*
X024746Y002607D01*
X024752Y002663D01*
X024762Y002719D01*
X024775Y002773D01*
X024793Y002827D01*
X024814Y002879D01*
X024838Y002930D01*
X024867Y002979D01*
X024898Y003025D01*
X024933Y003070D01*
X024970Y003112D01*
X025011Y003151D01*
X025054Y003187D01*
X025100Y003220D01*
X025147Y003250D01*
X025197Y003276D01*
X025249Y003299D01*
X025302Y003319D01*
X025356Y003334D01*
X025411Y003346D01*
X025467Y003354D01*
X025523Y003358D01*
X025579Y003358D01*
X025635Y003354D01*
X025691Y003346D01*
X025746Y003334D01*
X025800Y003319D01*
X025853Y003299D01*
X025905Y003276D01*
X025954Y003250D01*
X026002Y003220D01*
X026048Y003187D01*
X026091Y003151D01*
X026132Y003112D01*
X026169Y003070D01*
X026204Y003025D01*
X026235Y002979D01*
X026264Y002930D01*
X026288Y002879D01*
X026309Y002827D01*
X026327Y002773D01*
X026340Y002719D01*
X026350Y002663D01*
X026356Y002607D01*
X026358Y002551D01*
X026356Y002495D01*
X026350Y002439D01*
X026340Y002383D01*
X026327Y002329D01*
X026309Y002275D01*
X026288Y002223D01*
X026264Y002172D01*
X026235Y002123D01*
X026204Y002077D01*
X026169Y002032D01*
X026132Y001990D01*
X026091Y001951D01*
X026048Y001915D01*
X026002Y001882D01*
X025955Y001852D01*
X025905Y001826D01*
X025853Y001803D01*
X025800Y001783D01*
X025746Y001768D01*
X025691Y001756D01*
X025635Y001748D01*
X025579Y001744D01*
X025523Y001744D01*
X025467Y001748D01*
X025411Y001756D01*
X025356Y001768D01*
X025302Y001783D01*
X025249Y001803D01*
X025197Y001826D01*
X025147Y001852D01*
X025100Y001882D01*
X025054Y001915D01*
X025011Y001951D01*
X024970Y001990D01*
X024933Y002032D01*
X024898Y002077D01*
X024867Y002123D01*
X024838Y002172D01*
X024814Y002223D01*
X024793Y002275D01*
X024775Y002329D01*
X024762Y002383D01*
X024752Y002439D01*
X024746Y002495D01*
X024744Y002551D01*
D11*
X012227Y002059D03*
X012207Y002059D03*
X012187Y002059D03*
X012168Y002059D03*
X012148Y002059D03*
X012128Y002059D03*
X012109Y002059D03*
X012089Y002059D03*
X012069Y002059D03*
X012050Y002059D03*
X012030Y002059D03*
X012010Y002059D03*
X011991Y002059D03*
X011971Y002059D03*
X011951Y002059D03*
X011931Y002059D03*
X011912Y002059D03*
X011892Y002059D03*
X011872Y002059D03*
X011853Y002059D03*
X011833Y002059D03*
X011813Y002059D03*
X011794Y002059D03*
X011774Y002059D03*
X011754Y002059D03*
X011735Y002059D03*
X011715Y002059D03*
X011695Y002059D03*
X011676Y002059D03*
X009491Y002059D03*
X009471Y002059D03*
X009451Y002059D03*
X009431Y002059D03*
X009412Y002059D03*
X009392Y002059D03*
X009372Y002059D03*
X009353Y002059D03*
X009333Y002059D03*
X009313Y002059D03*
X009294Y002059D03*
X009274Y002059D03*
X009254Y002059D03*
X009235Y002059D03*
D12*
X011656Y001804D03*
D13*
X010652Y001695D03*
X010455Y001282D03*
X010357Y000691D03*
X010967Y000691D03*
X011124Y002680D03*
X011085Y003428D03*
X011656Y003428D03*
X010494Y003428D03*
X009884Y003428D03*
D14*
X009845Y001784D03*
X011636Y001784D03*
D15*
X010672Y001754D03*
X010317Y001380D03*
X010435Y003467D03*
X009825Y003467D03*
X011046Y003467D03*
X011636Y003467D03*
D16*
X011617Y001754D03*
X009884Y001754D03*
D17*
X010357Y001430D03*
X010534Y001764D03*
X010711Y001804D03*
X010888Y002138D03*
X011006Y003496D03*
X011617Y003496D03*
D18*
X011597Y001735D03*
X009904Y001735D03*
D19*
X011577Y001715D03*
D20*
X011557Y001695D03*
D21*
X011538Y001676D03*
D22*
X011518Y001656D03*
D23*
X011498Y001646D03*
D24*
X011479Y001636D03*
D25*
X011479Y003034D03*
X011183Y003369D03*
D26*
X011459Y001626D03*
D27*
X010829Y001636D03*
X010396Y001912D03*
X010278Y000809D03*
X011459Y003054D03*
X011243Y003309D03*
X010652Y003309D03*
X010042Y003309D03*
D28*
X011439Y001617D03*
D29*
X010849Y001646D03*
X010376Y001902D03*
X010573Y002512D03*
X011439Y003044D03*
X011282Y003260D03*
X010652Y001036D03*
X010140Y000878D03*
D30*
X011420Y001607D03*
D31*
X011420Y003034D03*
D32*
X011400Y001587D03*
D33*
X010888Y001646D03*
X010534Y001272D03*
X010199Y000937D03*
X010337Y001902D03*
X011400Y003024D03*
D34*
X009924Y001872D03*
X011380Y001577D03*
D35*
X010908Y001646D03*
X010317Y001902D03*
X011380Y003024D03*
D36*
X011361Y001567D03*
D37*
X011361Y003024D03*
D38*
X011341Y001567D03*
D39*
X010947Y001646D03*
X010987Y002650D03*
X011341Y003024D03*
D40*
X011321Y001577D03*
D41*
X010967Y001656D03*
X011321Y003034D03*
D42*
X009963Y001892D03*
X011302Y001577D03*
D43*
X010770Y002256D03*
X011302Y002630D03*
X011124Y003418D03*
X011105Y003418D03*
X010514Y003418D03*
X010278Y001292D03*
X010337Y000701D03*
X010947Y000701D03*
D44*
X010632Y001095D03*
X010160Y000898D03*
X010869Y001646D03*
X010357Y001902D03*
X010947Y002847D03*
X011302Y003221D03*
D45*
X011282Y001587D03*
D46*
X010298Y001341D03*
X010376Y000672D03*
X010987Y000672D03*
X011282Y002601D03*
X011065Y003447D03*
X010475Y003447D03*
D47*
X011262Y001587D03*
D48*
X011262Y002552D03*
X010455Y003457D03*
X009845Y003457D03*
X010396Y000662D03*
X011006Y000662D03*
D49*
X010770Y000829D03*
X010731Y000888D03*
X010672Y003290D03*
X011262Y003290D03*
X010061Y003290D03*
D50*
X010002Y001912D03*
X011243Y001597D03*
D51*
X010691Y001774D03*
X010554Y001794D03*
X010908Y002168D03*
X011243Y002502D03*
X010416Y003487D03*
X009806Y003487D03*
X010337Y001400D03*
X010435Y000632D03*
X011046Y000632D03*
D52*
X011223Y001597D03*
D53*
X010829Y000790D03*
X010613Y003329D03*
X011223Y003329D03*
X010002Y003329D03*
D54*
X011203Y001607D03*
D55*
X010849Y000770D03*
X010593Y003349D03*
X011203Y003349D03*
X009983Y003349D03*
D56*
X010042Y001922D03*
X011183Y001607D03*
D57*
X011164Y001607D03*
D58*
X010888Y000741D03*
X010101Y000878D03*
X009943Y003378D03*
X010554Y003378D03*
X011164Y003378D03*
D59*
X010081Y001922D03*
X011144Y001607D03*
D60*
X010928Y000721D03*
X011144Y003398D03*
X010534Y003398D03*
D61*
X010101Y001912D03*
X011124Y001617D03*
D62*
X011105Y001617D03*
D63*
X010750Y002256D03*
X011105Y002650D03*
D64*
X011085Y001626D03*
X010140Y001922D03*
D65*
X010554Y002561D03*
X010475Y002699D03*
X010435Y002758D03*
X010416Y002778D03*
X010219Y003073D03*
X010180Y003132D03*
X010140Y003191D03*
X010120Y003231D03*
X010101Y003270D03*
X010691Y003270D03*
X010711Y003250D03*
X010731Y003211D03*
X010750Y003191D03*
X010869Y002994D03*
X010908Y002935D03*
X011085Y002640D03*
X010672Y000987D03*
D66*
X010455Y000613D03*
X011065Y000613D03*
X010396Y003506D03*
X009786Y003506D03*
D67*
X011065Y001626D03*
D68*
X010514Y001262D03*
X010593Y002463D03*
X011065Y002640D03*
D69*
X011046Y001636D03*
D70*
X011046Y002640D03*
D71*
X010928Y002197D03*
X010573Y001823D03*
X010416Y000642D03*
X011026Y000642D03*
X011026Y003477D03*
D72*
X011026Y001636D03*
D73*
X010554Y001282D03*
X010239Y000967D03*
X011026Y002640D03*
D74*
X011006Y001646D03*
D75*
X010298Y001902D03*
X010652Y002276D03*
X011006Y002650D03*
D76*
X010987Y001646D03*
D77*
X010258Y001902D03*
X010613Y002276D03*
X010967Y002650D03*
D78*
X010947Y002256D03*
X010593Y001882D03*
X009865Y003437D03*
D79*
X010928Y001656D03*
D80*
X010928Y002896D03*
D81*
X009924Y003388D03*
X010632Y001617D03*
X010809Y001676D03*
X010908Y000731D03*
X010317Y000731D03*
D82*
X010711Y000918D03*
X010691Y000957D03*
X010750Y000859D03*
X010494Y001252D03*
X010731Y002276D03*
X010534Y002591D03*
X010514Y002630D03*
X010494Y002670D03*
X010455Y002729D03*
X010396Y002807D03*
X010376Y002847D03*
X010357Y002867D03*
X010337Y002906D03*
X010317Y002926D03*
X010298Y002965D03*
X010278Y002985D03*
X010258Y003024D03*
X010239Y003044D03*
X010199Y003103D03*
X010160Y003162D03*
X010081Y003280D03*
X010770Y003162D03*
X010790Y003142D03*
X010809Y003103D03*
X010829Y003063D03*
X010849Y003024D03*
X010888Y002965D03*
D83*
X010573Y003359D03*
X009963Y003359D03*
X010298Y000760D03*
X010869Y000760D03*
D84*
X010809Y000800D03*
X010475Y001252D03*
X010120Y000878D03*
X010022Y003319D03*
X010632Y003319D03*
D85*
X010790Y000819D03*
D86*
X010711Y002276D03*
D87*
X010691Y002276D03*
X010180Y000918D03*
D88*
X010672Y002276D03*
D89*
X010632Y002266D03*
X010278Y001892D03*
X010593Y001282D03*
D90*
X010613Y001282D03*
D91*
X010573Y001282D03*
X010258Y000987D03*
D92*
X010416Y001931D03*
X009904Y003408D03*
D93*
X010239Y001902D03*
D94*
X010219Y000947D03*
D95*
X010219Y001912D03*
D96*
X010199Y001912D03*
D97*
X010180Y001922D03*
D98*
X010160Y001912D03*
D99*
X010120Y001922D03*
D100*
X010061Y001912D03*
D101*
X010022Y001912D03*
D102*
X009983Y001892D03*
D103*
X009943Y001872D03*
D104*
X009865Y001764D03*
D105*
X009825Y001794D03*
D106*
X009806Y001813D03*
D107*
X009786Y001833D03*
D108*
X009766Y001843D03*
D109*
X009746Y001863D03*
D110*
X009727Y001882D03*
D111*
X009707Y001892D03*
D112*
X009687Y001912D03*
D113*
X009668Y001922D03*
D114*
X009648Y001941D03*
D115*
X009628Y001951D03*
D116*
X009609Y001971D03*
D117*
X009589Y001981D03*
D118*
X009569Y002000D03*
D119*
X009550Y002010D03*
D120*
X009530Y002030D03*
D121*
X009510Y002050D03*
D122*
X009239Y006770D03*
X010026Y006770D03*
X010813Y006770D03*
X008451Y006770D03*
X007664Y006770D03*
X006876Y006770D03*
X006089Y006770D03*
X005302Y006770D03*
X004514Y006770D03*
X003727Y006770D03*
X003727Y015431D03*
X004514Y015431D03*
X005302Y015431D03*
X006089Y015431D03*
X006876Y015431D03*
X007664Y015431D03*
X008451Y015431D03*
X009239Y015431D03*
X010026Y015431D03*
X010813Y015431D03*
X018222Y019475D03*
X018222Y021255D03*
X020782Y021255D03*
X020782Y019475D03*
D123*
X019631Y006851D03*
X019631Y006351D03*
X019631Y005851D03*
X019631Y005351D03*
X017571Y005351D03*
X017571Y005851D03*
X017571Y006351D03*
X017571Y006851D03*
D124*
X019051Y008301D03*
X015851Y006401D03*
D125*
X015851Y005401D03*
X017101Y004101D03*
X018101Y004101D03*
X019601Y004101D03*
X020601Y004101D03*
X018051Y008301D03*
X010601Y005101D03*
X009601Y005101D03*
X008101Y005101D03*
X007101Y005101D03*
X005551Y004451D03*
X005551Y003451D03*
D126*
X015101Y003841D02*
X015101Y004361D01*
X015101Y001361D02*
X015101Y000841D01*
D127*
X015101Y020601D03*
X016101Y020601D03*
D128*
X001101Y016601D03*
X001101Y015601D03*
X001101Y006101D03*
X001101Y005101D03*
D129*
X004101Y017101D03*
X009101Y017101D03*
X017601Y001601D03*
X022601Y001601D03*
D130*
X005881Y001101D02*
X005321Y001101D01*
X005321Y002101D02*
X005881Y002101D01*
D131*
X023601Y010001D03*
X023601Y016101D03*
D132*
X023601Y014132D03*
X023601Y012164D03*
X023601Y008032D03*
X023601Y006064D03*
D133*
X014601Y017101D03*
X010601Y017101D03*
D134*
X015301Y008601D03*
X016501Y008601D03*
D135*
X016392Y011101D02*
X015810Y011101D01*
X015810Y012101D02*
X016392Y012101D01*
X016392Y013101D02*
X015810Y013101D01*
X015810Y014101D02*
X016392Y014101D01*
X016392Y015101D02*
X015810Y015101D01*
X015810Y016101D02*
X016392Y016101D01*
X016392Y017101D02*
X015810Y017101D01*
X015810Y018101D02*
X016392Y018101D01*
X018810Y018101D02*
X019392Y018101D01*
X019392Y017101D02*
X018810Y017101D01*
X018810Y016101D02*
X019392Y016101D01*
X019392Y015101D02*
X018810Y015101D01*
X018810Y014101D02*
X019392Y014101D01*
X019392Y013101D02*
X018810Y013101D01*
X018810Y012101D02*
X019392Y012101D01*
X019392Y011101D02*
X018810Y011101D01*
D136*
X011101Y019304D02*
X011101Y019898D01*
X010101Y019898D02*
X010101Y019304D01*
X007601Y019304D02*
X007601Y019898D01*
X006601Y019898D02*
X006601Y019304D01*
D137*
X007601Y019601D02*
X007601Y018801D01*
X004901Y018801D01*
X003001Y016901D01*
X003001Y016601D01*
X001101Y016601D01*
X003201Y016801D02*
X004001Y017601D01*
X009101Y017601D01*
X009101Y017101D01*
X009601Y016601D02*
X009601Y020101D01*
X010601Y021101D01*
X017701Y021101D01*
X017701Y020701D01*
X020201Y018201D01*
X020201Y006301D01*
X019701Y006301D01*
X019631Y006351D01*
X019601Y005901D02*
X019631Y005851D01*
X019601Y005801D01*
X019601Y005401D01*
X019631Y005351D01*
X019601Y005901D02*
X018201Y005901D01*
X018201Y006001D01*
X017601Y006601D01*
X017601Y006401D01*
X017571Y006351D01*
X017501Y006401D01*
X015851Y006401D01*
X015801Y006401D01*
X015301Y005901D01*
X015301Y005301D01*
X015501Y005101D01*
X015501Y003401D01*
X009801Y003401D01*
X008101Y005101D01*
X007601Y004901D02*
X007601Y006701D01*
X007664Y006770D01*
X006301Y005801D02*
X005401Y006701D01*
X005302Y006770D01*
X004801Y006501D02*
X004601Y006701D01*
X004514Y006770D01*
X004801Y006501D02*
X004801Y002901D01*
X005601Y002101D01*
X006301Y001801D02*
X006301Y005801D01*
X007601Y004901D02*
X009101Y003401D01*
X009601Y004601D02*
X009601Y005101D01*
X009601Y004601D02*
X010801Y004601D01*
X011301Y005101D01*
X011301Y007801D01*
X011301Y013401D01*
X009301Y015401D01*
X009239Y015431D01*
X008501Y015501D02*
X008451Y015431D01*
X008501Y015501D02*
X009601Y016601D01*
X010101Y017601D02*
X010101Y015501D01*
X010026Y015431D01*
X011301Y016401D02*
X010601Y017101D01*
X010101Y017601D02*
X011601Y017601D01*
X016101Y013101D01*
X019101Y013101D02*
X019101Y012101D01*
X019101Y011101D01*
X019101Y009301D01*
X018401Y008601D01*
X018401Y006101D01*
X020201Y006101D01*
X020201Y004701D01*
X019601Y004101D01*
X018101Y004101D01*
X017301Y004901D01*
X015901Y004901D01*
X015901Y005401D01*
X015851Y005401D01*
X015901Y005401D02*
X015901Y005801D01*
X017501Y005801D01*
X017571Y005851D01*
X017571Y005351D02*
X017501Y005301D01*
X016501Y005301D01*
X017101Y004101D02*
X017101Y003601D01*
X020801Y003601D01*
X021101Y003901D01*
X021101Y011601D01*
X023601Y014101D01*
X023601Y014132D01*
X023601Y016101D02*
X021301Y018401D01*
X021301Y020701D01*
X020801Y021201D01*
X020782Y021255D01*
X020701Y021301D01*
X018301Y021301D01*
X018222Y021255D01*
X015101Y020601D02*
X015101Y020201D01*
X013501Y018601D01*
X012601Y017101D02*
X014601Y017101D01*
X012601Y017101D02*
X010101Y019601D01*
X007601Y017101D02*
X007601Y015501D01*
X007664Y015431D01*
X007601Y017101D02*
X004101Y017101D01*
X003201Y016801D02*
X003201Y007201D01*
X001101Y005101D01*
X005601Y001101D02*
X006301Y001801D01*
X010601Y005101D02*
X010601Y006501D01*
X010801Y006701D01*
X010813Y006770D01*
X015101Y008401D02*
X015101Y004101D01*
X015501Y003401D02*
X015501Y001501D01*
X015101Y001101D01*
X020601Y004101D02*
X020601Y006301D01*
X020201Y006301D01*
X017601Y006601D02*
X017601Y006801D01*
X017571Y006851D01*
X018051Y008301D02*
X018101Y008301D01*
X018401Y008601D01*
X016501Y008601D02*
X011301Y013801D01*
X011301Y016401D01*
X019101Y014101D02*
X019101Y013101D01*
X015301Y008601D02*
X015101Y008401D01*
D138*
X011301Y007801D03*
X016501Y005301D03*
X009101Y003401D03*
X013501Y018601D03*
M02*
