G75*
G70*
%OFA0B0*%
%FSLAX24Y24*%
%IPPOS*%
%LPD*%
%AMOC8*
5,1,8,0,0,1.08239X$1,22.5*
%
%ADD10C,0.0600*%
%ADD11C,0.0520*%
%ADD12C,0.0660*%
%ADD13C,0.0650*%
%ADD14R,0.0650X0.0650*%
%ADD15C,0.0520*%
%ADD16OC8,0.0740*%
%ADD17OC8,0.0520*%
%ADD18C,0.0860*%
%ADD19C,0.0740*%
%ADD20C,0.0660*%
%ADD21OC8,0.0630*%
%ADD22C,0.0630*%
%ADD23C,0.0700*%
%ADD24R,0.0515X0.0515*%
%ADD25C,0.0885*%
%ADD26R,0.0740X0.0740*%
%ADD27C,0.0100*%
%ADD28C,0.0400*%
%ADD29C,0.0396*%
D10*
X005770Y011732D03*
X005770Y012519D03*
X005770Y013306D03*
X005770Y014094D03*
X005770Y014881D03*
X005770Y015669D03*
X005770Y016456D03*
X005770Y017243D03*
X005770Y018031D03*
X005770Y018818D03*
X014432Y018818D03*
X014432Y018031D03*
X014432Y017243D03*
X014432Y016456D03*
X014432Y015669D03*
X014432Y014881D03*
X014432Y014094D03*
X014432Y013306D03*
X014432Y012519D03*
X014432Y011732D03*
D11*
X017891Y011534D02*
X018411Y011534D01*
X018411Y012534D02*
X017891Y012534D01*
X017891Y013534D02*
X018411Y013534D01*
X018411Y014534D02*
X017891Y014534D01*
X017891Y015534D02*
X018411Y015534D01*
X018411Y016534D02*
X017891Y016534D01*
X017891Y017534D02*
X018411Y017534D01*
X018411Y018534D02*
X017891Y018534D01*
X017891Y019534D02*
X018411Y019534D01*
X018411Y020534D02*
X017891Y020534D01*
X023891Y020534D02*
X024411Y020534D01*
X024411Y019534D02*
X023891Y019534D01*
X023891Y018534D02*
X024411Y018534D01*
X024411Y017534D02*
X023891Y017534D01*
X023891Y016534D02*
X024411Y016534D01*
X024411Y015534D02*
X023891Y015534D01*
X023891Y014534D02*
X024411Y014534D01*
X024411Y013534D02*
X023891Y013534D01*
X023891Y012534D02*
X024411Y012534D01*
X024411Y011534D02*
X023891Y011534D01*
X023891Y010534D02*
X024411Y010534D01*
X024411Y009534D02*
X023891Y009534D01*
X023891Y008534D02*
X024411Y008534D01*
X024411Y007534D02*
X023891Y007534D01*
X023891Y006534D02*
X024411Y006534D01*
X024411Y005534D02*
X023891Y005534D01*
X023891Y004534D02*
X024411Y004534D01*
X024411Y003534D02*
X023891Y003534D01*
X023891Y002534D02*
X024411Y002534D01*
X024411Y001534D02*
X023891Y001534D01*
X018411Y001534D02*
X017891Y001534D01*
X017891Y002534D02*
X018411Y002534D01*
X018411Y003534D02*
X017891Y003534D01*
X017891Y004534D02*
X018411Y004534D01*
X018411Y005534D02*
X017891Y005534D01*
X017891Y006534D02*
X018411Y006534D01*
X018411Y007534D02*
X017891Y007534D01*
X017891Y008534D02*
X018411Y008534D01*
X018411Y009534D02*
X017891Y009534D01*
X017891Y010534D02*
X018411Y010534D01*
X036851Y010994D02*
X037371Y010994D01*
X037371Y009994D02*
X036851Y009994D01*
X036851Y008994D02*
X037371Y008994D01*
X039851Y008994D02*
X040371Y008994D01*
X040371Y009994D02*
X039851Y009994D01*
X039851Y010994D02*
X040371Y010994D01*
X040371Y011994D02*
X039851Y011994D01*
X037371Y011994D02*
X036851Y011994D01*
D12*
X032233Y019511D02*
X032233Y020171D01*
X031233Y020171D02*
X031233Y019511D01*
X030233Y019511D02*
X030233Y020171D01*
D13*
X025901Y020034D03*
X025901Y017534D03*
X016651Y014784D03*
X015651Y014784D03*
X015651Y013284D03*
X016651Y013284D03*
X016651Y012034D03*
X015651Y012034D03*
X025651Y008034D03*
X026651Y008034D03*
X016651Y005784D03*
X015651Y005784D03*
X004401Y017284D03*
X004401Y018284D03*
X003901Y020334D03*
X039151Y013534D03*
D14*
X040151Y013534D03*
X026901Y017534D03*
X026901Y020034D03*
X004901Y020334D03*
D15*
X016151Y009784D03*
X016151Y007784D03*
D16*
X013481Y007194D03*
X012481Y007194D03*
X011481Y007194D03*
X011481Y006194D03*
X012481Y006194D03*
X013481Y006194D03*
X013611Y003054D03*
X012611Y003054D03*
X011611Y003054D03*
X010611Y003054D03*
X009611Y003054D03*
X009611Y002054D03*
X010611Y002054D03*
X011611Y002054D03*
X012611Y002054D03*
X013611Y002054D03*
D17*
X030151Y004034D03*
X031401Y004034D03*
X032651Y004034D03*
X034151Y004034D03*
X035151Y004034D03*
X036651Y004034D03*
X036651Y008034D03*
X035151Y008034D03*
X034151Y008034D03*
X032651Y008034D03*
X031401Y008034D03*
X030151Y008034D03*
X035811Y009534D03*
X035811Y013534D03*
X016651Y016534D03*
X015651Y016534D03*
X015651Y018534D03*
X016651Y018534D03*
X016651Y020534D03*
X015651Y020534D03*
D18*
X002393Y014412D03*
X002393Y011656D03*
X002393Y010412D03*
X002393Y007656D03*
D19*
X001409Y008148D03*
X001409Y009920D03*
X001409Y012148D03*
X001409Y013920D03*
X025401Y002534D03*
X026151Y002034D03*
X026151Y003034D03*
X025901Y015034D03*
X026901Y015034D03*
X030651Y015534D03*
X031651Y015534D03*
D20*
X026151Y013034D03*
X026151Y009034D03*
D21*
X032351Y012534D03*
D22*
X030951Y012534D03*
D23*
X034651Y015684D02*
X034651Y016384D01*
X036651Y016384D02*
X036651Y015684D01*
D24*
X028611Y015474D03*
X028611Y014474D03*
X028611Y013474D03*
X028611Y012474D03*
X028611Y011474D03*
X028611Y010474D03*
X028611Y009474D03*
X028611Y008474D03*
X028611Y007474D03*
X028611Y006474D03*
X028611Y005474D03*
X028611Y004474D03*
X028611Y003474D03*
X028611Y002474D03*
X028611Y001474D03*
X028611Y016474D03*
X028611Y017474D03*
X028611Y018474D03*
X028611Y019474D03*
X028611Y020474D03*
D25*
X030459Y002034D02*
X031344Y002034D01*
X036459Y002034D02*
X037344Y002034D01*
D26*
X032651Y015534D03*
D27*
X008651Y003034D02*
X004151Y007534D01*
X003651Y007534D01*
X003551Y007634D01*
X002451Y007634D01*
X002393Y007656D01*
X006251Y010634D02*
X012951Y003934D01*
X017151Y003934D01*
X017351Y003734D01*
X018151Y002534D02*
X018551Y002934D01*
X024451Y002934D01*
X025051Y003534D01*
X027651Y003534D01*
X028551Y004434D01*
X028611Y004474D01*
X028051Y004934D02*
X019551Y004934D01*
X019151Y004534D01*
X018151Y005534D02*
X016351Y007334D01*
X015051Y007334D01*
X013851Y008534D01*
X013751Y008934D02*
X012551Y007734D01*
X012551Y007234D01*
X012481Y007194D01*
X013481Y007194D02*
X013551Y007134D01*
X014351Y007134D01*
X015651Y005834D01*
X015651Y005784D01*
X013651Y005134D02*
X024751Y005134D01*
X024951Y005334D01*
X026051Y004134D02*
X014151Y004134D01*
X013251Y005034D01*
X013251Y006134D01*
X013451Y006134D01*
X013481Y006194D01*
X011481Y006194D02*
X011451Y006234D01*
X010951Y006234D01*
X010951Y007434D01*
X013351Y009834D01*
X013751Y008934D02*
X018451Y008934D01*
X019451Y009934D01*
X020651Y010034D02*
X018151Y007534D01*
X018151Y006534D02*
X018651Y006034D01*
X032351Y006034D01*
X033651Y007334D01*
X033451Y007634D02*
X033851Y008034D01*
X034151Y008034D01*
X034751Y008434D02*
X033051Y008434D01*
X032651Y008034D01*
X033451Y007634D02*
X029951Y007634D01*
X029551Y008034D01*
X026651Y008034D01*
X026151Y008234D02*
X026151Y007334D01*
X026051Y006934D02*
X024851Y008134D01*
X024151Y007534D02*
X023051Y006434D01*
X022951Y006434D01*
X026051Y006934D02*
X028151Y006934D01*
X028611Y006474D01*
X028611Y005474D02*
X028551Y005434D01*
X028051Y004934D01*
X026251Y003934D02*
X026051Y004134D01*
X027651Y002534D02*
X028551Y003434D01*
X028611Y003474D01*
X028651Y003534D01*
X030851Y003534D01*
X031351Y004034D01*
X031401Y004034D01*
X031451Y004034D01*
X035151Y007734D01*
X035151Y008034D01*
X034751Y008434D01*
X035051Y009334D02*
X034151Y010234D01*
X031851Y010234D01*
X031551Y010534D01*
X031451Y009834D02*
X033551Y009834D01*
X035051Y009334D02*
X036351Y008034D01*
X036651Y008034D01*
X038151Y008034D02*
X035901Y006034D01*
X035901Y003534D01*
X036901Y002034D01*
X036951Y002034D01*
X036651Y004034D02*
X036651Y005534D01*
X040111Y008994D01*
X037651Y009534D02*
X035811Y009534D01*
X037651Y009534D02*
X040111Y011994D01*
X038151Y013034D02*
X038151Y015034D01*
X038651Y015034D01*
X040151Y013534D01*
X038151Y015034D02*
X037651Y015034D01*
X036651Y016034D01*
X035451Y017234D01*
X034851Y017234D01*
X032251Y019834D01*
X032233Y019841D01*
X031233Y019841D02*
X031151Y019834D01*
X031151Y018534D01*
X028651Y018534D01*
X028611Y018474D01*
X027851Y017834D02*
X026151Y019534D01*
X025151Y019534D01*
X024151Y020534D01*
X026901Y020034D02*
X028051Y020034D01*
X028611Y019474D01*
X030451Y020934D02*
X030751Y020634D01*
X030451Y020934D02*
X017051Y020934D01*
X016651Y020534D01*
X015651Y020534D02*
X017651Y018534D01*
X018151Y018534D01*
X017651Y018134D02*
X025251Y018134D01*
X025851Y017534D01*
X025901Y017534D01*
X026901Y017534D02*
X026951Y017534D01*
X027051Y017434D01*
X028551Y017434D01*
X028611Y017474D01*
X029151Y015934D02*
X023851Y015934D01*
X022851Y016934D01*
X016651Y016934D01*
X016651Y018534D01*
X016251Y019534D02*
X017651Y018134D01*
X015651Y018134D02*
X015451Y018134D01*
X014951Y018634D01*
X014951Y019334D01*
X012851Y019334D01*
X008451Y014934D01*
X005851Y014934D01*
X005770Y014881D01*
X008651Y015634D02*
X006351Y017934D01*
X005851Y017934D01*
X005770Y018031D01*
X005251Y017434D02*
X004401Y018284D01*
X005251Y017434D02*
X005251Y011734D01*
X005751Y011734D01*
X005770Y011732D01*
X005051Y011734D02*
X005051Y011034D01*
X015451Y011034D01*
X015651Y010834D01*
X017051Y010834D01*
X017451Y011234D01*
X017451Y012534D01*
X018151Y012534D01*
X017151Y012534D02*
X017151Y011234D01*
X015751Y011234D01*
X018151Y011534D02*
X023151Y011534D01*
X024151Y010534D01*
X025551Y009634D02*
X028451Y009634D01*
X028611Y009474D01*
X029251Y008934D02*
X026851Y008934D01*
X026151Y008234D01*
X027751Y008534D02*
X028551Y008534D01*
X028611Y008474D01*
X029251Y008934D02*
X030151Y008034D01*
X028611Y007474D02*
X028451Y007634D01*
X027751Y007634D01*
X028951Y010034D02*
X020651Y010034D01*
X018151Y009534D02*
X016351Y009534D01*
X016151Y009734D01*
X016151Y009784D01*
X017151Y012534D02*
X018151Y013534D01*
X016851Y013934D02*
X016651Y013734D01*
X016651Y013284D01*
X016651Y013734D02*
X015651Y014734D01*
X015651Y014784D01*
X016851Y013934D02*
X022151Y013934D01*
X023051Y013034D01*
X026151Y013034D01*
X026851Y013034D02*
X025951Y013934D01*
X024751Y013934D01*
X024151Y014534D01*
X023751Y015034D02*
X025901Y015034D01*
X025751Y014334D02*
X026751Y014334D01*
X028611Y012474D01*
X028251Y012034D02*
X030451Y012034D01*
X030951Y012534D01*
X031151Y012534D01*
X034651Y016034D01*
X035151Y015434D02*
X035151Y017034D01*
X024651Y017034D01*
X024151Y017534D01*
X022851Y015934D02*
X023751Y015034D01*
X024151Y015534D02*
X027351Y015534D01*
X027451Y015434D01*
X026901Y015034D02*
X028051Y015034D01*
X028611Y014474D01*
X028651Y014534D01*
X030651Y014534D01*
X031651Y015534D01*
X034251Y015134D02*
X034851Y015134D01*
X035151Y015434D01*
X034251Y015134D02*
X030951Y011834D01*
X029951Y011834D01*
X028651Y010534D01*
X028611Y010474D01*
X028951Y010034D02*
X029851Y010934D01*
X034351Y010934D01*
X028611Y011474D02*
X028551Y011534D01*
X025051Y011534D01*
X024451Y012134D01*
X023451Y012134D01*
X023051Y012034D02*
X023051Y013034D01*
X023051Y012034D02*
X023351Y011734D01*
X023951Y011734D01*
X024151Y011534D01*
X028151Y011934D02*
X028251Y012034D01*
X022851Y015934D02*
X015251Y015934D01*
X015251Y017934D01*
X014451Y018734D01*
X014432Y018818D01*
X015651Y018134D02*
X015651Y016534D01*
X016251Y019534D02*
X006551Y019534D01*
X005851Y018834D01*
X005770Y018818D01*
X002393Y014412D02*
X002451Y014334D01*
X005051Y011734D01*
X010151Y003634D02*
X013051Y003634D01*
X013551Y003134D01*
X013611Y003054D01*
X014451Y002134D02*
X013851Y001534D01*
X012151Y001534D01*
X011651Y002034D01*
X011611Y002054D01*
X011351Y001334D02*
X010651Y002034D01*
X010611Y002054D01*
X010551Y001134D02*
X009651Y002034D01*
X009611Y002054D01*
X009591Y003034D02*
X008651Y003034D01*
X009551Y003134D02*
X009611Y003054D01*
X009591Y003034D01*
X009611Y003054D02*
X009651Y003134D01*
X010151Y003634D01*
X014451Y002134D02*
X020751Y002134D01*
X020951Y002334D01*
X020751Y001134D02*
X010551Y001134D01*
X011351Y001334D02*
X014151Y001334D01*
X014551Y001734D01*
X018151Y001534D02*
X018551Y001934D01*
X024651Y001934D01*
X025051Y001534D01*
X027651Y001534D01*
X028551Y002434D01*
X028611Y002474D01*
X028851Y001934D02*
X028351Y001934D01*
X027751Y001334D01*
X024351Y001334D01*
X024151Y001534D01*
X025401Y002534D02*
X027651Y002534D01*
X028851Y001934D02*
X029551Y002634D01*
X030651Y002634D01*
X032051Y004034D01*
D28*
X032051Y004034D03*
X026251Y003934D03*
X024951Y005334D03*
X022951Y006434D03*
X024851Y008134D03*
X026151Y007334D03*
X027751Y007634D03*
X027751Y008534D03*
X025551Y009634D03*
X028151Y011934D03*
X026851Y013034D03*
X025751Y014334D03*
X027451Y015434D03*
X029151Y015934D03*
X027851Y017834D03*
X030751Y020634D03*
X023451Y012134D03*
X019451Y009934D03*
X015751Y011234D03*
X013351Y009834D03*
X013851Y008534D03*
X013651Y005134D03*
X017351Y003734D03*
X019151Y004534D03*
X020951Y002334D03*
X020751Y001134D03*
X014551Y001734D03*
X006251Y010634D03*
X008651Y015634D03*
X031551Y010534D03*
X031451Y009834D03*
X033551Y009834D03*
X035051Y009334D03*
X034351Y010934D03*
X033651Y007334D03*
D29*
X038151Y008034D03*
X038151Y013034D03*
M02*
