%
M48
M72
T01C0.0236
T02C0.0240
T03C0.0276
T04C0.0315
T05C0.0320
T06C0.0400
T07C0.0440
T08C0.0512
T09C0.0590
T10C0.1417
%
T01
X38151Y8034
X38151Y13034
T02
X34351Y10934
X33551Y9834
X35051Y9334
X31451Y9834
X31551Y10534
X28151Y11934
X26851Y13034
X25751Y14334
X27451Y15434
X29151Y15934
X27851Y17834
X30751Y20634
X23451Y12134
X19451Y9934
X15751Y11234
X13351Y9834
X13851Y8534
X13651Y5134
X17351Y3734
X19151Y4534
X22951Y6434
X24951Y5334
X26251Y3934
X20951Y2334
X20751Y1134
X14551Y1734
X26151Y7334
X24851Y8134
X25551Y9634
X27751Y8534
X27751Y7634
X33651Y7334
X32051Y4034
X8651Y15634
X6251Y10634
T03
X15651Y12034
X16651Y12034
X16651Y13284
X15651Y13284
X15651Y14784
X16651Y14784
X25901Y17534
X26901Y17534
X26901Y20034
X25901Y20034
X39151Y13534
X40151Y13534
X26651Y8034
X25651Y8034
X16651Y5784
X15651Y5784
X4401Y17284
X4401Y18284
X3901Y20334
X4901Y20334
T04
X5770Y18818
X5770Y18031
X5770Y17243
X5770Y16456
X5770Y15669
X5770Y14881
X5770Y14094
X5770Y13306
X5770Y12519
X5770Y11732
X14432Y11732
X14432Y12519
X14432Y13306
X14432Y14094
X14432Y14881
X14432Y15669
X14432Y16456
X14432Y17243
X14432Y18031
X14432Y18818
X28611Y18474
X28611Y17474
X28611Y16474
X28611Y15474
X28611Y14474
X28611Y13474
X28611Y12474
X28611Y11474
X28611Y10474
X28611Y9474
X28611Y8474
X28611Y7474
X28611Y6474
X28611Y5474
X28611Y4474
X28611Y3474
X28611Y2474
X28611Y1474
X28611Y19474
X28611Y20474
T05
X24151Y20534
X24151Y19534
X24151Y18534
X24151Y17534
X24151Y16534
X24151Y15534
X24151Y14534
X24151Y13534
X24151Y12534
X24151Y11534
X24151Y10534
X24151Y9534
X24151Y8534
X24151Y7534
X24151Y6534
X24151Y5534
X24151Y4534
X24151Y3534
X24151Y2534
X25401Y2534
X26151Y2034
X26151Y3034
X24151Y1534
X18151Y1534
X18151Y2534
X18151Y3534
X18151Y4534
X18151Y5534
X18151Y6534
X18151Y7534
X18151Y8534
X16151Y7784
X18151Y9534
X18151Y10534
X16151Y9784
X18151Y11534
X18151Y12534
X18151Y13534
X18151Y14534
X18151Y15534
X18151Y16534
X16651Y16534
X15651Y16534
X18151Y17534
X18151Y18534
X16651Y18534
X15651Y18534
X18151Y19534
X18151Y20534
X16651Y20534
X15651Y20534
X30951Y12534
X32351Y12534
X35811Y13534
X37111Y11994
X37111Y10994
X37111Y9994
X35811Y9534
X37111Y8994
X36651Y8034
X35151Y8034
X34151Y8034
X32651Y8034
X31401Y8034
X30151Y8034
X30151Y4034
X31401Y4034
X32651Y4034
X34151Y4034
X35151Y4034
X36651Y4034
X40111Y8994
X40111Y9994
X40111Y10994
X40111Y11994
X36651Y16034
X34651Y16034
T06
X9611Y2054
X10611Y2054
X11611Y2054
X12611Y2054
X13611Y2054
X13611Y3054
X12611Y3054
X11611Y3054
X10611Y3054
X9611Y3054
X11481Y6194
X12481Y6194
X13481Y6194
X13481Y7194
X12481Y7194
X11481Y7194
X1409Y8148
X1409Y9920
X1409Y12148
X1409Y13920
X25901Y15034
X26901Y15034
X30651Y15534
X31651Y15534
X32651Y15534
T07
X26151Y13034
X26151Y9034
X30233Y19841
X31233Y19841
X32233Y19841
T08
X2393Y14412
X2393Y11656
X2393Y10412
X2393Y7656
T09
X30901Y2034
X36901Y2034
T10
X39351Y5534
X39351Y16554
X1951Y16554
X1951Y5534
M30
