G75*
G70*
%OFA0B0*%
%FSLAX24Y24*%
%IPPOS*%
%LPD*%
%AMOC8*
5,1,8,0,0,1.08239X$1,22.5*
%
%ADD10R,0.3496X0.0024*%
%ADD11R,0.2882X0.0024*%
%ADD12R,0.0213X0.0024*%
%ADD13R,0.2835X0.0024*%
%ADD14R,0.0118X0.0024*%
%ADD15R,0.2764X0.0024*%
%ADD16R,0.0047X0.0024*%
%ADD17R,0.2717X0.0024*%
%ADD18R,0.2669X0.0024*%
%ADD19R,0.2622X0.0024*%
%ADD20R,0.2575X0.0024*%
%ADD21R,0.2528X0.0024*%
%ADD22R,0.2504X0.0024*%
%ADD23R,0.2480X0.0024*%
%ADD24R,0.0354X0.0024*%
%ADD25R,0.2457X0.0024*%
%ADD26R,0.0496X0.0024*%
%ADD27R,0.2433X0.0024*%
%ADD28R,0.0614X0.0024*%
%ADD29R,0.2409X0.0024*%
%ADD30R,0.0732X0.0024*%
%ADD31R,0.2362X0.0024*%
%ADD32R,0.0803X0.0024*%
%ADD33R,0.2339X0.0024*%
%ADD34R,0.0898X0.0024*%
%ADD35R,0.2315X0.0024*%
%ADD36R,0.0992X0.0024*%
%ADD37R,0.2268X0.0024*%
%ADD38R,0.1039X0.0024*%
%ADD39R,0.2197X0.0024*%
%ADD40R,0.1110X0.0024*%
%ADD41R,0.2150X0.0024*%
%ADD42R,0.0236X0.0024*%
%ADD43R,0.0709X0.0024*%
%ADD44R,0.2079X0.0024*%
%ADD45R,0.0165X0.0024*%
%ADD46R,0.2031X0.0024*%
%ADD47R,0.0142X0.0024*%
%ADD48R,0.0543X0.0024*%
%ADD49R,0.1961X0.0024*%
%ADD50R,0.0071X0.0024*%
%ADD51R,0.1913X0.0024*%
%ADD52R,0.0449X0.0024*%
%ADD53R,0.1843X0.0024*%
%ADD54R,0.0402X0.0024*%
%ADD55R,0.1795X0.0024*%
%ADD56R,0.1701X0.0024*%
%ADD57R,0.0331X0.0024*%
%ADD58R,0.1654X0.0024*%
%ADD59R,0.0283X0.0024*%
%ADD60R,0.1583X0.0024*%
%ADD61R,0.1535X0.0024*%
%ADD62R,0.0425X0.0024*%
%ADD63R,0.1465X0.0024*%
%ADD64R,0.0591X0.0024*%
%ADD65R,0.0024X0.0024*%
%ADD66R,0.1417X0.0024*%
%ADD67R,0.0685X0.0024*%
%ADD68R,0.1346X0.0024*%
%ADD69R,0.0780X0.0024*%
%ADD70R,0.0094X0.0024*%
%ADD71R,0.1299X0.0024*%
%ADD72R,0.0874X0.0024*%
%ADD73R,0.1228X0.0024*%
%ADD74R,0.0945X0.0024*%
%ADD75R,0.1181X0.0024*%
%ADD76R,0.1087X0.0024*%
%ADD77R,0.0189X0.0024*%
%ADD78R,0.0969X0.0024*%
%ADD79R,0.0638X0.0024*%
%ADD80R,0.0307X0.0024*%
%ADD81R,0.0567X0.0024*%
%ADD82R,0.0378X0.0024*%
%ADD83R,0.0472X0.0024*%
%ADD84R,0.0520X0.0024*%
%ADD85R,0.0661X0.0024*%
%ADD86R,0.0756X0.0024*%
%ADD87R,0.0850X0.0024*%
%ADD88R,0.1016X0.0024*%
%ADD89R,0.1063X0.0024*%
%ADD90R,0.0921X0.0024*%
%ADD91R,0.0260X0.0024*%
%ADD92R,0.1134X0.0024*%
%ADD93R,0.0827X0.0024*%
%ADD94R,0.1205X0.0024*%
%ADD95R,0.1252X0.0024*%
%ADD96R,0.1323X0.0024*%
%ADD97R,0.1394X0.0024*%
%ADD98R,0.1512X0.0024*%
%ADD99R,0.1724X0.0024*%
%ADD100R,0.1866X0.0024*%
%ADD101R,0.2055X0.0024*%
%ADD102R,0.2244X0.0024*%
%ADD103R,0.2787X0.0024*%
%ADD104R,0.2858X0.0024*%
%ADD105R,0.2906X0.0024*%
%ADD106R,0.2953X0.0024*%
%ADD107R,0.2976X0.0024*%
%ADD108R,0.3024X0.0024*%
%ADD109R,0.3071X0.0024*%
%ADD110R,0.3094X0.0024*%
%ADD111R,0.3142X0.0024*%
%ADD112R,0.3165X0.0024*%
%ADD113R,0.3213X0.0024*%
%ADD114R,0.3236X0.0024*%
%ADD115R,0.3283X0.0024*%
%ADD116R,0.3307X0.0024*%
%ADD117R,0.3354X0.0024*%
%ADD118R,0.3378X0.0024*%
%ADD119R,0.3425X0.0024*%
%ADD120R,0.3472X0.0024*%
%ADD121C,0.0040*%
%ADD122C,0.0600*%
%ADD123C,0.0520*%
%ADD124C,0.0660*%
%ADD125C,0.0650*%
%ADD126R,0.0650X0.0650*%
%ADD127C,0.0520*%
%ADD128OC8,0.0740*%
%ADD129OC8,0.0520*%
%ADD130C,0.0860*%
%ADD131C,0.0740*%
%ADD132R,0.0272X0.0390*%
%ADD133C,0.0660*%
%ADD134R,0.0390X0.0272*%
%ADD135OC8,0.0630*%
%ADD136C,0.0630*%
%ADD137R,0.0460X0.0630*%
%ADD138C,0.0700*%
%ADD139R,0.0515X0.0515*%
%ADD140C,0.0885*%
%ADD141C,0.0000*%
%ADD142R,0.0740X0.0740*%
%ADD143C,0.0100*%
%ADD144C,0.0400*%
%ADD145C,0.0396*%
D10*
X006069Y004550D03*
X006069Y004574D03*
X006069Y004597D03*
X006069Y004621D03*
X006069Y004644D03*
X006069Y004668D03*
X006069Y004692D03*
X006069Y004715D03*
X006069Y004739D03*
X006069Y004763D03*
X006069Y004786D03*
X006069Y004810D03*
X006069Y004833D03*
X006069Y004857D03*
X006069Y004881D03*
X006069Y004904D03*
X006069Y004928D03*
X006069Y004951D03*
X006069Y004975D03*
X006069Y004999D03*
X006069Y005022D03*
X006069Y005046D03*
X006069Y005070D03*
X006069Y005093D03*
X006069Y005117D03*
X006069Y005140D03*
X006069Y005164D03*
X006069Y005188D03*
X006069Y005211D03*
X006069Y007833D03*
X006069Y007857D03*
X006069Y007881D03*
X006069Y007904D03*
X006069Y007928D03*
X006069Y007951D03*
X006069Y007975D03*
X006069Y007999D03*
X006069Y008022D03*
X006069Y008046D03*
X006069Y008070D03*
X006069Y008093D03*
X006069Y008117D03*
X006069Y008140D03*
D11*
X005761Y005235D03*
D12*
X006813Y005873D03*
X007710Y005920D03*
X007710Y005235D03*
X005631Y006440D03*
X005135Y006676D03*
X004427Y006794D03*
X004427Y006062D03*
X007710Y006629D03*
X007710Y007361D03*
D13*
X005738Y007408D03*
X005738Y005259D03*
D14*
X005702Y006416D03*
X005254Y006841D03*
X007757Y006700D03*
X007757Y007432D03*
X007757Y005967D03*
X007757Y005259D03*
D15*
X005702Y005282D03*
X005702Y007361D03*
D16*
X005313Y006794D03*
X005714Y006581D03*
X005761Y006369D03*
X006163Y006156D03*
X007793Y006014D03*
X007793Y005282D03*
D17*
X005679Y005306D03*
X005679Y007337D03*
D18*
X005655Y005329D03*
D19*
X005631Y005353D03*
D20*
X005608Y005377D03*
D21*
X005584Y005400D03*
D22*
X005572Y005424D03*
D23*
X005561Y005448D03*
D24*
X007238Y005448D03*
X007639Y005802D03*
D25*
X005549Y005471D03*
D26*
X005561Y006227D03*
X005891Y006747D03*
X004569Y006889D03*
X007261Y005471D03*
X007569Y005731D03*
X007569Y006440D03*
X007569Y007172D03*
D27*
X005537Y005495D03*
D28*
X005572Y006203D03*
X005880Y006770D03*
X006612Y006534D03*
X007509Y005684D03*
X007250Y005495D03*
X004840Y006440D03*
X004651Y007054D03*
D29*
X005525Y005518D03*
D30*
X007238Y005518D03*
D31*
X005502Y005542D03*
D32*
X005572Y006156D03*
X005124Y006581D03*
X004722Y006983D03*
X005880Y006818D03*
X007226Y005542D03*
D33*
X005490Y005566D03*
X005844Y007314D03*
D34*
X005880Y006841D03*
X005572Y006133D03*
X007226Y005566D03*
D35*
X005478Y005589D03*
D36*
X007226Y005589D03*
D37*
X005478Y005613D03*
D38*
X005572Y006085D03*
X006777Y006038D03*
X007226Y005613D03*
D39*
X005490Y005637D03*
D40*
X005584Y006062D03*
X007238Y005637D03*
D41*
X005490Y005660D03*
X005868Y007266D03*
D42*
X005147Y006889D03*
X004439Y006818D03*
X004439Y006085D03*
X006305Y006298D03*
X006754Y005660D03*
X007698Y005873D03*
X007698Y005896D03*
X007698Y006605D03*
D43*
X007013Y006085D03*
X007462Y005660D03*
X005880Y006794D03*
X005572Y006180D03*
X004911Y006463D03*
X004675Y007030D03*
D44*
X005502Y005684D03*
D45*
X004403Y006038D03*
X004403Y006770D03*
X005206Y006865D03*
X006718Y005684D03*
X007734Y005944D03*
X007734Y006652D03*
D46*
X005502Y005707D03*
D47*
X004391Y006014D03*
X004391Y006747D03*
X006659Y005707D03*
X007746Y006676D03*
X007746Y007408D03*
D48*
X007545Y007148D03*
X007545Y006416D03*
X007545Y005707D03*
X004663Y006345D03*
X004592Y006298D03*
D49*
X005513Y005731D03*
X005891Y007219D03*
D50*
X005750Y006558D03*
X005726Y006392D03*
X006198Y006133D03*
X006600Y005731D03*
X007781Y006723D03*
X007781Y007455D03*
X005277Y006818D03*
X004356Y006700D03*
X004356Y005967D03*
D51*
X005513Y005755D03*
D52*
X004545Y006227D03*
X007592Y006487D03*
X007592Y007219D03*
X007592Y005755D03*
D53*
X005525Y005778D03*
D54*
X004521Y006203D03*
X007616Y006511D03*
X007616Y005778D03*
X007616Y007243D03*
D55*
X005903Y007172D03*
X005525Y005802D03*
D56*
X005525Y005826D03*
D57*
X004486Y006156D03*
X004651Y007101D03*
X007651Y007290D03*
X007651Y006558D03*
X007651Y005826D03*
D58*
X005525Y005849D03*
X005903Y007125D03*
D59*
X004462Y006109D03*
X007675Y005849D03*
X007675Y006581D03*
D60*
X005891Y007101D03*
X005537Y005873D03*
D61*
X005537Y005896D03*
D62*
X006305Y006322D03*
X006777Y005896D03*
D63*
X005549Y005920D03*
X005903Y007054D03*
D64*
X006671Y006558D03*
X006836Y006652D03*
X006907Y006700D03*
X006931Y006723D03*
X007285Y006959D03*
X007356Y007007D03*
X007427Y007054D03*
X007474Y007077D03*
X007521Y007101D03*
X007521Y006392D03*
X007498Y006369D03*
X007450Y006345D03*
X007427Y006322D03*
X007191Y006180D03*
X007120Y006133D03*
X006765Y005920D03*
X004781Y006416D03*
D65*
X004332Y006676D03*
X004332Y005944D03*
X007805Y006747D03*
X007805Y007479D03*
D66*
X005549Y005944D03*
D67*
X006553Y006511D03*
X006765Y005944D03*
X005112Y006605D03*
D68*
X005561Y005967D03*
D69*
X006765Y005967D03*
D70*
X006234Y006109D03*
X005785Y006534D03*
X004368Y006723D03*
X004368Y005991D03*
X007769Y005991D03*
D71*
X005561Y005991D03*
D72*
X005135Y006558D03*
X004757Y006936D03*
X006765Y005991D03*
D73*
X005572Y006014D03*
D74*
X006328Y006440D03*
X005880Y006865D03*
X006777Y006014D03*
D75*
X005572Y006038D03*
D76*
X006328Y006487D03*
X005880Y006912D03*
X006777Y006062D03*
D77*
X006305Y006085D03*
X005856Y006511D03*
X007722Y007385D03*
D78*
X005584Y006109D03*
D79*
X007072Y006109D03*
D80*
X005608Y006251D03*
X005537Y006463D03*
X004474Y006133D03*
X004474Y006841D03*
X007663Y007314D03*
D81*
X007533Y007125D03*
X007391Y007030D03*
X007320Y006983D03*
X007250Y006936D03*
X007226Y006912D03*
X007179Y006889D03*
X007155Y006865D03*
X007108Y006841D03*
X007084Y006818D03*
X007037Y006794D03*
X007013Y006770D03*
X006966Y006747D03*
X006872Y006676D03*
X006801Y006629D03*
X006754Y006605D03*
X006706Y006581D03*
X006328Y006345D03*
X007155Y006156D03*
X007226Y006203D03*
X007273Y006227D03*
X007320Y006251D03*
X007368Y006274D03*
X007391Y006298D03*
X005100Y006629D03*
X004746Y006392D03*
X004698Y006369D03*
X004628Y006322D03*
D82*
X004509Y006180D03*
X004509Y006865D03*
X007628Y006534D03*
X007628Y007266D03*
D83*
X007580Y007196D03*
X007580Y006463D03*
X005100Y006652D03*
X004651Y007077D03*
X004557Y006251D03*
D84*
X004580Y006274D03*
D85*
X006328Y006369D03*
D86*
X006328Y006392D03*
X004698Y007007D03*
D87*
X006328Y006416D03*
D88*
X006317Y006463D03*
X005868Y006889D03*
X005135Y006511D03*
D89*
X005135Y006487D03*
D90*
X005135Y006534D03*
X004781Y006912D03*
D91*
X005915Y006723D03*
X007687Y007337D03*
D92*
X005880Y006936D03*
D93*
X004734Y006959D03*
D94*
X005891Y006959D03*
D95*
X005891Y006983D03*
D96*
X005903Y007007D03*
D97*
X005891Y007030D03*
D98*
X005903Y007077D03*
D99*
X005891Y007148D03*
D100*
X005891Y007196D03*
D101*
X005868Y007243D03*
D102*
X005844Y007290D03*
D103*
X005714Y007385D03*
D104*
X005750Y007432D03*
D105*
X005773Y007455D03*
D106*
X005797Y007479D03*
D107*
X005809Y007503D03*
D108*
X005832Y007526D03*
D109*
X005856Y007550D03*
D110*
X005868Y007574D03*
D111*
X005891Y007597D03*
D112*
X005903Y007621D03*
D113*
X005927Y007644D03*
D114*
X005939Y007668D03*
D115*
X005962Y007692D03*
D116*
X005974Y007715D03*
D117*
X005998Y007739D03*
D118*
X006009Y007763D03*
D119*
X006033Y007786D03*
D120*
X006057Y007810D03*
D121*
X011988Y018151D02*
X012064Y018151D01*
X012141Y018227D01*
X012141Y018611D01*
X012141Y018304D02*
X011911Y018304D01*
X011834Y018381D01*
X011834Y018611D01*
X011681Y018611D02*
X011451Y018611D01*
X011374Y018534D01*
X011374Y018381D01*
X011451Y018304D01*
X011681Y018304D01*
X011681Y018765D01*
X011965Y019054D02*
X012272Y019361D01*
X012272Y019438D01*
X012195Y019515D01*
X012042Y019515D01*
X011965Y019438D01*
X011812Y019284D02*
X011505Y019284D01*
X011351Y019131D02*
X011275Y019054D01*
X011121Y019054D01*
X011045Y019131D01*
X011351Y019438D01*
X011351Y019131D01*
X011045Y019131D02*
X011045Y019438D01*
X011121Y019515D01*
X011275Y019515D01*
X011351Y019438D01*
X010891Y019438D02*
X010891Y019361D01*
X010814Y019284D01*
X010891Y019208D01*
X010891Y019131D01*
X010814Y019054D01*
X010661Y019054D01*
X010584Y019131D01*
X010431Y019284D02*
X010124Y019284D01*
X009970Y019054D02*
X009663Y019054D01*
X009510Y019054D02*
X009203Y019054D01*
X009357Y019054D02*
X009357Y019515D01*
X009203Y019361D01*
X009663Y019361D02*
X009817Y019515D01*
X009817Y019054D01*
X009379Y018765D02*
X009072Y018458D01*
X009149Y018534D02*
X009379Y018304D01*
X009532Y018381D02*
X009532Y018534D01*
X009609Y018611D01*
X009763Y018611D01*
X009839Y018534D01*
X009839Y018458D01*
X009532Y018458D01*
X009532Y018381D02*
X009609Y018304D01*
X009763Y018304D01*
X009993Y018304D02*
X009993Y018611D01*
X010223Y018611D01*
X010300Y018534D01*
X010300Y018304D01*
X010453Y018304D02*
X010453Y018611D01*
X010683Y018611D01*
X010760Y018534D01*
X010760Y018304D01*
X010913Y018381D02*
X010913Y018534D01*
X010990Y018611D01*
X011144Y018611D01*
X011220Y018534D01*
X011220Y018458D01*
X010913Y018458D01*
X010913Y018381D02*
X010990Y018304D01*
X011144Y018304D01*
X011965Y019054D02*
X012272Y019054D01*
X012426Y019131D02*
X012732Y019438D01*
X012732Y019131D01*
X012656Y019054D01*
X012502Y019054D01*
X012426Y019131D01*
X012426Y019438D01*
X012502Y019515D01*
X012656Y019515D01*
X012732Y019438D01*
X012886Y019438D02*
X012963Y019515D01*
X013116Y019515D01*
X013193Y019438D01*
X012886Y019131D01*
X012963Y019054D01*
X013116Y019054D01*
X013193Y019131D01*
X013193Y019438D01*
X013346Y019438D02*
X013346Y019361D01*
X013423Y019284D01*
X013653Y019284D01*
X013653Y019131D02*
X013576Y019054D01*
X013423Y019054D01*
X013346Y019131D01*
X013653Y019131D02*
X013653Y019438D01*
X013576Y019515D01*
X013423Y019515D01*
X013346Y019438D01*
X012886Y019438D02*
X012886Y019131D01*
X013307Y019901D02*
X013383Y019901D01*
X013460Y019977D01*
X013460Y020361D01*
X013230Y020361D01*
X013153Y020284D01*
X013153Y020131D01*
X013230Y020054D01*
X013460Y020054D01*
X013614Y020131D02*
X013614Y020284D01*
X013690Y020361D01*
X013844Y020361D01*
X013920Y020284D01*
X013920Y020208D01*
X013614Y020208D01*
X013614Y020131D02*
X013690Y020054D01*
X013844Y020054D01*
X013000Y020054D02*
X013000Y020515D01*
X013000Y020361D02*
X012770Y020361D01*
X012693Y020284D01*
X012693Y020131D01*
X012770Y020054D01*
X013000Y020054D01*
X012539Y020054D02*
X012386Y020054D01*
X012463Y020054D02*
X012463Y020361D01*
X012386Y020361D01*
X012232Y020361D02*
X012156Y020361D01*
X012002Y020208D01*
X012002Y020361D02*
X012002Y020054D01*
X011849Y020131D02*
X011772Y020054D01*
X011542Y020054D01*
X011542Y020515D01*
X011772Y020515D01*
X011849Y020438D01*
X011849Y020361D01*
X011772Y020284D01*
X011542Y020284D01*
X011772Y020284D02*
X011849Y020208D01*
X011849Y020131D01*
X012463Y020515D02*
X012463Y020591D01*
X010928Y020284D02*
X010928Y020208D01*
X010621Y020208D01*
X010621Y020284D02*
X010698Y020361D01*
X010851Y020361D01*
X010928Y020284D01*
X010851Y020054D02*
X010698Y020054D01*
X010621Y020131D01*
X010621Y020284D01*
X010468Y020284D02*
X010468Y020208D01*
X010161Y020208D01*
X010161Y020284D02*
X010238Y020361D01*
X010391Y020361D01*
X010468Y020284D01*
X010391Y020054D02*
X010238Y020054D01*
X010161Y020131D01*
X010161Y020284D01*
X010007Y020208D02*
X010007Y020131D01*
X009931Y020054D01*
X009701Y020054D01*
X009701Y020515D01*
X009931Y020515D01*
X010007Y020438D01*
X010007Y020361D01*
X009931Y020284D01*
X009701Y020284D01*
X009931Y020284D02*
X010007Y020208D01*
X009547Y020054D02*
X009240Y020515D01*
X009547Y020515D02*
X009240Y020054D01*
X008626Y020054D02*
X008319Y020054D01*
X008626Y020361D01*
X008626Y020438D01*
X008550Y020515D01*
X008396Y020515D01*
X008319Y020438D01*
X008013Y020515D02*
X008013Y020054D01*
X008166Y020054D02*
X007859Y020054D01*
X007706Y020284D02*
X007399Y020284D01*
X007245Y020054D02*
X007092Y020054D01*
X007169Y020054D02*
X007169Y020515D01*
X007245Y020515D02*
X007092Y020515D01*
X006938Y020438D02*
X006938Y020131D01*
X006862Y020054D01*
X006632Y020054D01*
X006632Y020515D01*
X006862Y020515D01*
X006938Y020438D01*
X006478Y020438D02*
X006401Y020515D01*
X006248Y020515D01*
X006171Y020438D01*
X006171Y020361D01*
X006248Y020284D01*
X006401Y020284D01*
X006478Y020208D01*
X006478Y020131D01*
X006401Y020054D01*
X006248Y020054D01*
X006171Y020131D01*
X006671Y019361D02*
X006825Y019054D01*
X006978Y019361D01*
X007592Y019361D02*
X007745Y019515D01*
X007745Y019054D01*
X007592Y019054D02*
X007899Y019054D01*
X008052Y019054D02*
X008129Y019054D01*
X008129Y019131D01*
X008052Y019131D01*
X008052Y019054D01*
X008282Y019131D02*
X008589Y019438D01*
X008589Y019131D01*
X008513Y019054D01*
X008359Y019054D01*
X008282Y019131D01*
X008282Y019438D01*
X008359Y019515D01*
X008513Y019515D01*
X008589Y019438D01*
X008228Y018765D02*
X008075Y018765D01*
X008151Y018765D02*
X008151Y018381D01*
X008075Y018304D01*
X007998Y018304D01*
X007921Y018381D01*
X008382Y018381D02*
X008458Y018381D01*
X008458Y018304D01*
X008382Y018304D01*
X008382Y018381D01*
X009072Y018304D02*
X009072Y018765D01*
X010584Y019438D02*
X010661Y019515D01*
X010814Y019515D01*
X010891Y019438D01*
X010814Y019284D02*
X010738Y019284D01*
X008013Y020515D02*
X007859Y020361D01*
D122*
X005770Y018818D03*
X005770Y018031D03*
X005770Y017243D03*
X005770Y016456D03*
X005770Y015669D03*
X005770Y014881D03*
X005770Y014094D03*
X005770Y013306D03*
X005770Y012519D03*
X005770Y011732D03*
X014432Y011732D03*
X014432Y012519D03*
X014432Y013306D03*
X014432Y014094D03*
X014432Y014881D03*
X014432Y015669D03*
X014432Y016456D03*
X014432Y017243D03*
X014432Y018031D03*
X014432Y018818D03*
D123*
X017891Y018534D02*
X018411Y018534D01*
X018411Y019534D02*
X017891Y019534D01*
X017891Y020534D02*
X018411Y020534D01*
X018411Y017534D02*
X017891Y017534D01*
X017891Y016534D02*
X018411Y016534D01*
X018411Y015534D02*
X017891Y015534D01*
X017891Y014534D02*
X018411Y014534D01*
X018411Y013534D02*
X017891Y013534D01*
X017891Y012534D02*
X018411Y012534D01*
X018411Y011534D02*
X017891Y011534D01*
X017891Y010534D02*
X018411Y010534D01*
X018411Y009534D02*
X017891Y009534D01*
X017891Y008534D02*
X018411Y008534D01*
X018411Y007534D02*
X017891Y007534D01*
X017891Y006534D02*
X018411Y006534D01*
X018411Y005534D02*
X017891Y005534D01*
X017891Y004534D02*
X018411Y004534D01*
X018411Y003534D02*
X017891Y003534D01*
X017891Y002534D02*
X018411Y002534D01*
X018411Y001534D02*
X017891Y001534D01*
X023891Y001534D02*
X024411Y001534D01*
X024411Y002534D02*
X023891Y002534D01*
X023891Y003534D02*
X024411Y003534D01*
X024411Y004534D02*
X023891Y004534D01*
X023891Y005534D02*
X024411Y005534D01*
X024411Y006534D02*
X023891Y006534D01*
X023891Y007534D02*
X024411Y007534D01*
X024411Y008534D02*
X023891Y008534D01*
X023891Y009534D02*
X024411Y009534D01*
X024411Y010534D02*
X023891Y010534D01*
X023891Y011534D02*
X024411Y011534D01*
X024411Y012534D02*
X023891Y012534D01*
X023891Y013534D02*
X024411Y013534D01*
X024411Y014534D02*
X023891Y014534D01*
X023891Y015534D02*
X024411Y015534D01*
X024411Y016534D02*
X023891Y016534D01*
X023891Y017534D02*
X024411Y017534D01*
X024411Y018534D02*
X023891Y018534D01*
X023891Y019534D02*
X024411Y019534D01*
X024411Y020534D02*
X023891Y020534D01*
X036851Y011994D02*
X037371Y011994D01*
X037371Y010994D02*
X036851Y010994D01*
X036851Y009994D02*
X037371Y009994D01*
X037371Y008994D02*
X036851Y008994D01*
X039851Y008994D02*
X040371Y008994D01*
X040371Y009994D02*
X039851Y009994D01*
X039851Y010994D02*
X040371Y010994D01*
X040371Y011994D02*
X039851Y011994D01*
D124*
X032233Y019511D02*
X032233Y020171D01*
X031233Y020171D02*
X031233Y019511D01*
X030233Y019511D02*
X030233Y020171D01*
D125*
X025901Y020034D03*
X025901Y017534D03*
X016651Y014784D03*
X015651Y014784D03*
X015651Y013284D03*
X016651Y013284D03*
X016651Y012034D03*
X015651Y012034D03*
X025651Y008034D03*
X026651Y008034D03*
X016651Y005784D03*
X015651Y005784D03*
X004401Y017284D03*
X004401Y018284D03*
X003901Y020334D03*
X039151Y013534D03*
D126*
X040151Y013534D03*
X026901Y017534D03*
X026901Y020034D03*
X004901Y020334D03*
D127*
X016151Y009784D03*
X016151Y007784D03*
D128*
X013481Y007194D03*
X012481Y007194D03*
X011481Y007194D03*
X011481Y006194D03*
X012481Y006194D03*
X013481Y006194D03*
X013611Y003054D03*
X012611Y003054D03*
X011611Y003054D03*
X010611Y003054D03*
X009611Y003054D03*
X009611Y002054D03*
X010611Y002054D03*
X011611Y002054D03*
X012611Y002054D03*
X013611Y002054D03*
D129*
X030151Y004034D03*
X031401Y004034D03*
X032651Y004034D03*
X034151Y004034D03*
X035151Y004034D03*
X036651Y004034D03*
X036651Y008034D03*
X035151Y008034D03*
X034151Y008034D03*
X032651Y008034D03*
X031401Y008034D03*
X030151Y008034D03*
X035811Y009534D03*
X035811Y013534D03*
X016651Y016534D03*
X015651Y016534D03*
X015651Y018534D03*
X016651Y018534D03*
X016651Y020534D03*
X015651Y020534D03*
D130*
X002393Y014412D03*
X002393Y011656D03*
X002393Y010412D03*
X002393Y007656D03*
D131*
X001409Y008148D03*
X001409Y009920D03*
X001409Y012148D03*
X001409Y013920D03*
X025401Y002534D03*
X026151Y002034D03*
X026151Y003034D03*
X025901Y015034D03*
X026901Y015034D03*
X030651Y015534D03*
X031651Y015534D03*
D132*
X033647Y010376D03*
X034021Y010376D03*
X034395Y010376D03*
X034395Y009356D03*
X034021Y009356D03*
X033647Y009356D03*
D133*
X026151Y009034D03*
X026151Y013034D03*
D134*
X030989Y010298D03*
X032009Y010298D03*
X032009Y009924D03*
X032009Y009550D03*
X030989Y009550D03*
D135*
X032351Y012534D03*
D136*
X030951Y012534D03*
D137*
X026451Y006284D03*
X025851Y006284D03*
X025851Y004534D03*
X026451Y004534D03*
X009701Y005534D03*
X009101Y005534D03*
X009101Y007034D03*
X009701Y007034D03*
D138*
X034651Y015684D02*
X034651Y016384D01*
X036651Y016384D02*
X036651Y015684D01*
D139*
X028611Y015474D03*
X028611Y014474D03*
X028611Y013474D03*
X028611Y012474D03*
X028611Y011474D03*
X028611Y010474D03*
X028611Y009474D03*
X028611Y008474D03*
X028611Y007474D03*
X028611Y006474D03*
X028611Y005474D03*
X028611Y004474D03*
X028611Y003474D03*
X028611Y002474D03*
X028611Y001474D03*
X028611Y016474D03*
X028611Y017474D03*
X028611Y018474D03*
X028611Y019474D03*
X028611Y020474D03*
D140*
X030459Y002034D02*
X031344Y002034D01*
X036459Y002034D02*
X037344Y002034D01*
D141*
X038642Y005534D02*
X038644Y005587D01*
X038650Y005640D01*
X038660Y005692D01*
X038673Y005743D01*
X038691Y005793D01*
X038712Y005842D01*
X038737Y005889D01*
X038765Y005933D01*
X038797Y005976D01*
X038831Y006016D01*
X038869Y006054D01*
X038909Y006088D01*
X038952Y006120D01*
X038997Y006148D01*
X039043Y006173D01*
X039092Y006194D01*
X039142Y006212D01*
X039193Y006225D01*
X039245Y006235D01*
X039298Y006241D01*
X039351Y006243D01*
X039404Y006241D01*
X039457Y006235D01*
X039509Y006225D01*
X039560Y006212D01*
X039610Y006194D01*
X039659Y006173D01*
X039706Y006148D01*
X039750Y006120D01*
X039793Y006088D01*
X039833Y006054D01*
X039871Y006016D01*
X039905Y005976D01*
X039937Y005933D01*
X039965Y005888D01*
X039990Y005842D01*
X040011Y005793D01*
X040029Y005743D01*
X040042Y005692D01*
X040052Y005640D01*
X040058Y005587D01*
X040060Y005534D01*
X040058Y005481D01*
X040052Y005428D01*
X040042Y005376D01*
X040029Y005325D01*
X040011Y005275D01*
X039990Y005226D01*
X039965Y005179D01*
X039937Y005135D01*
X039905Y005092D01*
X039871Y005052D01*
X039833Y005014D01*
X039793Y004980D01*
X039750Y004948D01*
X039705Y004920D01*
X039659Y004895D01*
X039610Y004874D01*
X039560Y004856D01*
X039509Y004843D01*
X039457Y004833D01*
X039404Y004827D01*
X039351Y004825D01*
X039298Y004827D01*
X039245Y004833D01*
X039193Y004843D01*
X039142Y004856D01*
X039092Y004874D01*
X039043Y004895D01*
X038996Y004920D01*
X038952Y004948D01*
X038909Y004980D01*
X038869Y005014D01*
X038831Y005052D01*
X038797Y005092D01*
X038765Y005135D01*
X038737Y005180D01*
X038712Y005226D01*
X038691Y005275D01*
X038673Y005325D01*
X038660Y005376D01*
X038650Y005428D01*
X038644Y005481D01*
X038642Y005534D01*
X038642Y016554D02*
X038644Y016607D01*
X038650Y016660D01*
X038660Y016712D01*
X038673Y016763D01*
X038691Y016813D01*
X038712Y016862D01*
X038737Y016909D01*
X038765Y016953D01*
X038797Y016996D01*
X038831Y017036D01*
X038869Y017074D01*
X038909Y017108D01*
X038952Y017140D01*
X038997Y017168D01*
X039043Y017193D01*
X039092Y017214D01*
X039142Y017232D01*
X039193Y017245D01*
X039245Y017255D01*
X039298Y017261D01*
X039351Y017263D01*
X039404Y017261D01*
X039457Y017255D01*
X039509Y017245D01*
X039560Y017232D01*
X039610Y017214D01*
X039659Y017193D01*
X039706Y017168D01*
X039750Y017140D01*
X039793Y017108D01*
X039833Y017074D01*
X039871Y017036D01*
X039905Y016996D01*
X039937Y016953D01*
X039965Y016908D01*
X039990Y016862D01*
X040011Y016813D01*
X040029Y016763D01*
X040042Y016712D01*
X040052Y016660D01*
X040058Y016607D01*
X040060Y016554D01*
X040058Y016501D01*
X040052Y016448D01*
X040042Y016396D01*
X040029Y016345D01*
X040011Y016295D01*
X039990Y016246D01*
X039965Y016199D01*
X039937Y016155D01*
X039905Y016112D01*
X039871Y016072D01*
X039833Y016034D01*
X039793Y016000D01*
X039750Y015968D01*
X039705Y015940D01*
X039659Y015915D01*
X039610Y015894D01*
X039560Y015876D01*
X039509Y015863D01*
X039457Y015853D01*
X039404Y015847D01*
X039351Y015845D01*
X039298Y015847D01*
X039245Y015853D01*
X039193Y015863D01*
X039142Y015876D01*
X039092Y015894D01*
X039043Y015915D01*
X038996Y015940D01*
X038952Y015968D01*
X038909Y016000D01*
X038869Y016034D01*
X038831Y016072D01*
X038797Y016112D01*
X038765Y016155D01*
X038737Y016200D01*
X038712Y016246D01*
X038691Y016295D01*
X038673Y016345D01*
X038660Y016396D01*
X038650Y016448D01*
X038644Y016501D01*
X038642Y016554D01*
X001242Y016554D02*
X001244Y016607D01*
X001250Y016660D01*
X001260Y016712D01*
X001273Y016763D01*
X001291Y016813D01*
X001312Y016862D01*
X001337Y016909D01*
X001365Y016953D01*
X001397Y016996D01*
X001431Y017036D01*
X001469Y017074D01*
X001509Y017108D01*
X001552Y017140D01*
X001597Y017168D01*
X001643Y017193D01*
X001692Y017214D01*
X001742Y017232D01*
X001793Y017245D01*
X001845Y017255D01*
X001898Y017261D01*
X001951Y017263D01*
X002004Y017261D01*
X002057Y017255D01*
X002109Y017245D01*
X002160Y017232D01*
X002210Y017214D01*
X002259Y017193D01*
X002306Y017168D01*
X002350Y017140D01*
X002393Y017108D01*
X002433Y017074D01*
X002471Y017036D01*
X002505Y016996D01*
X002537Y016953D01*
X002565Y016908D01*
X002590Y016862D01*
X002611Y016813D01*
X002629Y016763D01*
X002642Y016712D01*
X002652Y016660D01*
X002658Y016607D01*
X002660Y016554D01*
X002658Y016501D01*
X002652Y016448D01*
X002642Y016396D01*
X002629Y016345D01*
X002611Y016295D01*
X002590Y016246D01*
X002565Y016199D01*
X002537Y016155D01*
X002505Y016112D01*
X002471Y016072D01*
X002433Y016034D01*
X002393Y016000D01*
X002350Y015968D01*
X002305Y015940D01*
X002259Y015915D01*
X002210Y015894D01*
X002160Y015876D01*
X002109Y015863D01*
X002057Y015853D01*
X002004Y015847D01*
X001951Y015845D01*
X001898Y015847D01*
X001845Y015853D01*
X001793Y015863D01*
X001742Y015876D01*
X001692Y015894D01*
X001643Y015915D01*
X001596Y015940D01*
X001552Y015968D01*
X001509Y016000D01*
X001469Y016034D01*
X001431Y016072D01*
X001397Y016112D01*
X001365Y016155D01*
X001337Y016200D01*
X001312Y016246D01*
X001291Y016295D01*
X001273Y016345D01*
X001260Y016396D01*
X001250Y016448D01*
X001244Y016501D01*
X001242Y016554D01*
X001242Y005534D02*
X001244Y005587D01*
X001250Y005640D01*
X001260Y005692D01*
X001273Y005743D01*
X001291Y005793D01*
X001312Y005842D01*
X001337Y005889D01*
X001365Y005933D01*
X001397Y005976D01*
X001431Y006016D01*
X001469Y006054D01*
X001509Y006088D01*
X001552Y006120D01*
X001597Y006148D01*
X001643Y006173D01*
X001692Y006194D01*
X001742Y006212D01*
X001793Y006225D01*
X001845Y006235D01*
X001898Y006241D01*
X001951Y006243D01*
X002004Y006241D01*
X002057Y006235D01*
X002109Y006225D01*
X002160Y006212D01*
X002210Y006194D01*
X002259Y006173D01*
X002306Y006148D01*
X002350Y006120D01*
X002393Y006088D01*
X002433Y006054D01*
X002471Y006016D01*
X002505Y005976D01*
X002537Y005933D01*
X002565Y005888D01*
X002590Y005842D01*
X002611Y005793D01*
X002629Y005743D01*
X002642Y005692D01*
X002652Y005640D01*
X002658Y005587D01*
X002660Y005534D01*
X002658Y005481D01*
X002652Y005428D01*
X002642Y005376D01*
X002629Y005325D01*
X002611Y005275D01*
X002590Y005226D01*
X002565Y005179D01*
X002537Y005135D01*
X002505Y005092D01*
X002471Y005052D01*
X002433Y005014D01*
X002393Y004980D01*
X002350Y004948D01*
X002305Y004920D01*
X002259Y004895D01*
X002210Y004874D01*
X002160Y004856D01*
X002109Y004843D01*
X002057Y004833D01*
X002004Y004827D01*
X001951Y004825D01*
X001898Y004827D01*
X001845Y004833D01*
X001793Y004843D01*
X001742Y004856D01*
X001692Y004874D01*
X001643Y004895D01*
X001596Y004920D01*
X001552Y004948D01*
X001509Y004980D01*
X001469Y005014D01*
X001431Y005052D01*
X001397Y005092D01*
X001365Y005135D01*
X001337Y005180D01*
X001312Y005226D01*
X001291Y005275D01*
X001273Y005325D01*
X001260Y005376D01*
X001250Y005428D01*
X001244Y005481D01*
X001242Y005534D01*
D142*
X032651Y015534D03*
D143*
X033051Y015134D01*
X033051Y009834D01*
X033251Y009634D01*
X033251Y004934D01*
X034151Y004034D01*
X033051Y004434D02*
X033051Y009534D01*
X032851Y009734D01*
X032851Y014334D01*
X032151Y015034D01*
X032151Y017934D01*
X030751Y019334D01*
X030751Y020634D01*
X031233Y019841D02*
X031251Y019834D01*
X033951Y017134D01*
X033951Y010434D01*
X034021Y010376D01*
X034351Y010434D02*
X034395Y010376D01*
X034351Y010434D02*
X034351Y010934D01*
X033647Y010376D02*
X033551Y010334D01*
X033551Y009834D01*
X033647Y009356D02*
X033651Y009334D01*
X033651Y007334D01*
X034151Y008034D02*
X036251Y005934D01*
X036251Y013134D01*
X035851Y013534D01*
X035811Y013534D01*
X036151Y013834D02*
X036451Y013534D01*
X036451Y008834D01*
X037051Y008234D01*
X037051Y003834D01*
X036851Y003634D01*
X035151Y003634D01*
X035151Y004034D01*
X036651Y004034D02*
X036651Y005534D01*
X036251Y005934D01*
X033051Y004434D02*
X032651Y004034D01*
X032051Y004034D02*
X032051Y009534D01*
X032009Y009550D01*
X031951Y009834D02*
X031451Y009834D01*
X031051Y009534D02*
X030989Y009550D01*
X031051Y009534D02*
X031851Y008734D01*
X031851Y005134D01*
X030351Y003634D01*
X030351Y002834D01*
X029051Y001534D01*
X029051Y001134D01*
X029151Y001034D01*
X032151Y001034D01*
X034151Y003034D01*
X036651Y003034D01*
X037251Y003634D01*
X037251Y008834D01*
X037151Y008934D01*
X037111Y008994D01*
X035811Y009534D02*
X035751Y009534D01*
X034751Y008534D01*
X034751Y008434D01*
X034051Y009134D01*
X034051Y009334D01*
X034021Y009356D01*
X034395Y009356D02*
X034451Y009334D01*
X035051Y009334D01*
X034751Y008434D02*
X035151Y008034D01*
X032651Y008034D02*
X032351Y008334D01*
X032351Y010634D01*
X032351Y012534D01*
X031951Y012934D01*
X031951Y015234D01*
X031651Y015534D01*
X030551Y016634D01*
X030551Y019534D01*
X030251Y019834D01*
X030233Y019841D01*
X028611Y020474D02*
X028551Y020534D01*
X025951Y020534D01*
X025951Y020034D01*
X025901Y020034D01*
X025351Y019934D02*
X025351Y019034D01*
X025951Y018434D01*
X025951Y017534D01*
X025901Y017534D01*
X025951Y018434D02*
X028551Y018434D01*
X028611Y018474D01*
X029051Y018034D01*
X029051Y016934D01*
X028651Y016534D01*
X028611Y016474D01*
X028651Y016434D01*
X028651Y015534D01*
X028611Y015474D01*
X029051Y015034D01*
X029051Y005134D01*
X030151Y004034D01*
X030151Y003034D01*
X028651Y001534D01*
X028611Y001474D01*
X028951Y001034D02*
X029051Y001134D01*
X028951Y001034D02*
X026151Y001034D01*
X026151Y002034D01*
X026151Y003034D02*
X028151Y005034D01*
X028151Y011934D01*
X026851Y013034D02*
X026851Y008534D01*
X027751Y007634D01*
X026651Y008034D02*
X026151Y008534D01*
X026151Y009034D01*
X025651Y009234D02*
X026151Y009734D01*
X026151Y013034D01*
X026151Y014334D01*
X026851Y015034D01*
X026901Y015034D01*
X027451Y015434D02*
X027451Y008834D01*
X027751Y008534D01*
X026151Y007334D02*
X026151Y006934D01*
X021951Y006934D01*
X019051Y009834D01*
X019051Y011634D01*
X018151Y012534D01*
X017151Y012534D02*
X017151Y014234D01*
X016851Y014534D01*
X016651Y014784D01*
X016651Y014734D01*
X016851Y014534D01*
X015651Y013334D01*
X015651Y013284D01*
X014951Y013234D02*
X014951Y011434D01*
X013351Y009834D01*
X014251Y009734D02*
X014251Y006234D01*
X013651Y005634D01*
X012551Y005634D01*
X012551Y006134D01*
X012481Y006194D01*
X011451Y007034D02*
X009701Y007034D01*
X009251Y006934D02*
X009251Y006134D01*
X009651Y005734D01*
X009651Y005534D01*
X009701Y005534D01*
X009251Y005434D02*
X009251Y004434D01*
X009751Y003934D01*
X009051Y003234D01*
X009051Y001534D01*
X012051Y001534D01*
X012551Y002034D01*
X012611Y002054D01*
X013611Y002054D02*
X013651Y002134D01*
X018651Y002134D01*
X022951Y006434D01*
X024151Y006534D02*
X019551Y001934D01*
X014551Y001934D01*
X014551Y001734D01*
X013611Y003054D02*
X013651Y003134D01*
X013651Y003734D01*
X015651Y005734D01*
X015651Y005784D01*
X015651Y008034D01*
X018151Y010534D01*
X017151Y011534D01*
X017151Y012234D01*
X016651Y012734D01*
X016651Y013034D01*
X016651Y013284D01*
X016651Y013034D02*
X015651Y012034D01*
X016151Y011534D02*
X016151Y009784D01*
X015751Y011234D02*
X014251Y009734D01*
X013851Y008534D02*
X008651Y013734D01*
X008651Y015634D01*
X008251Y016334D02*
X005851Y018734D01*
X005770Y018818D01*
X005751Y018734D01*
X005751Y018634D01*
X004401Y017284D01*
X005770Y017243D02*
X005851Y017234D01*
X006251Y016834D01*
X006251Y010634D01*
X005770Y011732D02*
X005751Y011734D01*
X003051Y011734D01*
X003051Y008334D01*
X002451Y007734D01*
X002393Y007656D01*
X002393Y010412D02*
X002351Y010434D01*
X000851Y011934D01*
X000851Y012734D01*
X002851Y012734D01*
X005751Y015634D01*
X005770Y015669D01*
X008251Y016334D02*
X008251Y007834D01*
X009051Y007034D01*
X009101Y007034D01*
X009151Y007034D01*
X009251Y006934D01*
X011451Y007034D02*
X011451Y007134D01*
X011481Y007194D01*
X009251Y005434D02*
X009151Y005534D01*
X009101Y005534D01*
X009751Y003934D02*
X010551Y003134D01*
X010611Y003054D01*
X011611Y003054D02*
X011651Y003134D01*
X013651Y005134D01*
X016651Y005784D02*
X016651Y007034D01*
X018151Y008534D01*
X016651Y007234D02*
X016151Y007734D01*
X016151Y007784D01*
X016651Y007234D02*
X016651Y007034D01*
X018151Y004534D02*
X017351Y003734D01*
X018151Y003534D02*
X019151Y004534D01*
X020951Y002334D02*
X024151Y005534D01*
X024951Y005334D02*
X025851Y006234D01*
X026051Y005734D02*
X026451Y006134D01*
X026451Y006284D01*
X026451Y006934D01*
X026151Y006934D01*
X026051Y005734D02*
X026051Y004734D01*
X025851Y004534D01*
X026251Y004334D02*
X026251Y003934D01*
X026251Y004334D02*
X026451Y004534D01*
X024151Y004534D02*
X020751Y001134D01*
X030901Y002034D02*
X030951Y002034D01*
X030951Y003634D01*
X031351Y004034D01*
X031401Y004034D01*
X031351Y008034D02*
X031401Y008034D01*
X031351Y008034D02*
X030451Y008934D01*
X030451Y014634D01*
X029151Y015934D01*
X030651Y015534D02*
X030651Y012834D01*
X030951Y012534D01*
X028611Y013474D02*
X027851Y014234D01*
X027851Y017834D01*
X025051Y018634D02*
X024151Y019534D01*
X023651Y019934D02*
X025351Y019934D01*
X023651Y019934D02*
X023051Y019334D01*
X023051Y011634D01*
X024151Y010534D01*
X025051Y010134D02*
X025051Y014734D01*
X024851Y014934D01*
X024851Y015834D01*
X024151Y016534D01*
X023451Y017834D02*
X024151Y018534D01*
X025051Y018634D02*
X025051Y015034D01*
X025751Y014334D01*
X024851Y012834D02*
X024151Y013534D01*
X024851Y012834D02*
X024851Y008134D01*
X025651Y008034D02*
X025651Y009234D01*
X025551Y009634D02*
X025051Y010134D01*
X023451Y012134D02*
X023451Y017834D01*
X019451Y014234D02*
X018151Y015534D01*
X017151Y015534D02*
X016151Y015534D01*
X016151Y014434D01*
X014951Y013234D01*
X014451Y013334D02*
X014432Y013306D01*
X014451Y013334D02*
X015151Y014034D01*
X015151Y017434D01*
X016051Y018334D01*
X016051Y020134D01*
X015651Y020534D01*
X017451Y020734D02*
X017851Y021134D01*
X033051Y021134D01*
X033651Y020534D01*
X033651Y018034D01*
X033751Y018034D01*
X036151Y015634D01*
X036151Y013834D01*
X038151Y013034D02*
X038151Y008034D01*
X032351Y010634D02*
X032051Y010334D01*
X032009Y010298D01*
X031551Y010334D02*
X031551Y010534D01*
X031551Y010334D02*
X031051Y010334D01*
X030989Y010298D01*
X031951Y009834D02*
X032009Y009924D01*
X039151Y012934D02*
X039151Y013534D01*
X039151Y012934D02*
X040051Y012034D01*
X040111Y011994D01*
X019451Y009934D02*
X019451Y014234D01*
X018151Y014534D02*
X017151Y015534D01*
X016651Y016534D02*
X017451Y017334D01*
X017451Y020734D01*
X015651Y018534D02*
X014951Y017834D01*
X014951Y015434D01*
X014451Y014934D01*
X014432Y014881D01*
X017151Y012534D02*
X018151Y011534D01*
X016651Y012034D02*
X016151Y011534D01*
X004401Y018284D02*
X003951Y018734D01*
X003951Y020334D01*
X003901Y020334D01*
X004901Y020334D02*
X004951Y020334D01*
X004951Y019634D01*
X005751Y018834D01*
X005770Y018818D01*
X003051Y011734D02*
X002451Y011734D01*
X002393Y011656D01*
D144*
X006251Y010634D03*
X013351Y009834D03*
X013851Y008534D03*
X015751Y011234D03*
X019451Y009934D03*
X023451Y012134D03*
X026851Y013034D03*
X028151Y011934D03*
X031551Y010534D03*
X031451Y009834D03*
X033551Y009834D03*
X035051Y009334D03*
X034351Y010934D03*
X033651Y007334D03*
X027751Y007634D03*
X027751Y008534D03*
X026151Y007334D03*
X024851Y008134D03*
X025551Y009634D03*
X022951Y006434D03*
X024951Y005334D03*
X026251Y003934D03*
X020951Y002334D03*
X020751Y001134D03*
X017351Y003734D03*
X019151Y004534D03*
X014551Y001734D03*
X013651Y005134D03*
X025751Y014334D03*
X027451Y015434D03*
X029151Y015934D03*
X027851Y017834D03*
X030751Y020634D03*
X008651Y015634D03*
X032051Y004034D03*
D145*
X038151Y008034D03*
X038151Y013034D03*
M02*
