G75*
G70*
%OFA0B0*%
%FSLAX24Y24*%
%IPPOS*%
%LPD*%
%AMOC8*
5,1,8,0,0,1.08239X$1,22.5*
%
%ADD10C,0.0030*%
%ADD11C,0.0040*%
%ADD12C,0.0100*%
%ADD13C,0.0080*%
%ADD14C,0.0060*%
%ADD15C,0.0050*%
%ADD16C,0.0004*%
%ADD17R,0.0295X0.0295*%
%ADD18R,0.1000X0.0200*%
%ADD19R,0.0300X0.0750*%
%ADD20C,0.0030*%
%ADD21R,0.0300X0.2200*%
%ADD22R,0.0350X0.0500*%
%ADD23C,0.0010*%
D10*
X008666Y006111D02*
X008728Y006049D01*
X008790Y006049D01*
X008851Y006111D01*
X008851Y006419D01*
X008790Y006419D02*
X008913Y006419D01*
X009034Y006419D02*
X009281Y006419D01*
X009158Y006419D02*
X009158Y006049D01*
X009403Y006049D02*
X009403Y006296D01*
X009526Y006419D01*
X009650Y006296D01*
X009650Y006049D01*
X009771Y006111D02*
X009833Y006049D01*
X009956Y006049D01*
X010018Y006111D01*
X010018Y006234D01*
X009895Y006234D01*
X010018Y006358D02*
X009956Y006419D01*
X009833Y006419D01*
X009771Y006358D01*
X009771Y006111D01*
X009650Y006234D02*
X009403Y006234D01*
X010139Y005987D02*
X010386Y005987D01*
X010508Y006173D02*
X010631Y006049D01*
X010755Y006173D01*
X010755Y006419D01*
X010508Y006419D02*
X010508Y006173D01*
X010140Y007799D02*
X010263Y007923D01*
X010263Y008169D01*
X010017Y008169D02*
X010017Y007923D01*
X010140Y007799D01*
X009895Y007737D02*
X009648Y007737D01*
X009465Y007923D02*
X009280Y007923D01*
X009159Y007923D02*
X009159Y007861D01*
X009097Y007799D01*
X008973Y007799D01*
X008912Y007861D01*
X008790Y007799D02*
X008666Y007799D01*
X008728Y007799D02*
X008728Y008169D01*
X008666Y008169D02*
X008790Y008169D01*
X008912Y008108D02*
X008973Y008169D01*
X009097Y008169D01*
X009159Y008108D01*
X009280Y008169D02*
X009280Y007799D01*
X009159Y007923D02*
X009097Y007984D01*
X008973Y007984D01*
X008912Y008046D01*
X008912Y008108D01*
X009280Y008169D02*
X009465Y008169D01*
X009527Y008108D01*
X009527Y007984D01*
X009465Y007923D01*
X003636Y007917D02*
X003636Y008103D01*
X003574Y008164D01*
X003513Y008164D01*
X003451Y008103D01*
X003451Y007917D01*
X003636Y007917D02*
X003266Y007917D01*
X003266Y008103D01*
X003328Y008164D01*
X003389Y008164D01*
X003451Y008103D01*
X003451Y008286D02*
X003389Y008347D01*
X003389Y008471D01*
X003451Y008533D01*
X003513Y008533D01*
X003513Y008286D01*
X003574Y008286D02*
X003451Y008286D01*
X003574Y008286D02*
X003636Y008347D01*
X003636Y008471D01*
X003574Y008654D02*
X003451Y008654D01*
X003389Y008716D01*
X003389Y008839D01*
X003451Y008901D01*
X003513Y008901D01*
X003513Y008654D01*
X003574Y008654D02*
X003636Y008716D01*
X003636Y008839D01*
X003636Y009391D02*
X003266Y009391D01*
X003266Y009576D01*
X003328Y009638D01*
X003451Y009638D01*
X003513Y009576D01*
X003513Y009391D01*
X003513Y009514D02*
X003636Y009638D01*
X003574Y009759D02*
X003636Y009821D01*
X003636Y009944D01*
X003574Y010006D01*
X003513Y010006D01*
X003451Y009944D01*
X003451Y009821D01*
X003389Y009759D01*
X003328Y009759D01*
X003266Y009821D01*
X003266Y009944D01*
X003328Y010006D01*
X003266Y010127D02*
X003266Y010374D01*
X003266Y010251D02*
X003636Y010251D01*
X003636Y011549D02*
X003389Y011549D01*
X003266Y011673D01*
X003389Y011796D01*
X003636Y011796D01*
X003513Y011917D02*
X003636Y012041D01*
X003513Y012164D01*
X003266Y012164D01*
X003266Y012286D02*
X003266Y012471D01*
X003328Y012533D01*
X003451Y012533D01*
X003513Y012471D01*
X003513Y012286D01*
X003636Y012286D02*
X003266Y012286D01*
X003513Y012409D02*
X003636Y012533D01*
X003636Y013022D02*
X003266Y013022D01*
X003266Y013208D01*
X003328Y013269D01*
X003451Y013269D01*
X003513Y013208D01*
X003513Y013022D01*
X003513Y013146D02*
X003636Y013269D01*
X003574Y013391D02*
X003636Y013452D01*
X003636Y013576D01*
X003574Y013638D01*
X003513Y013638D01*
X003451Y013576D01*
X003451Y013452D01*
X003389Y013391D01*
X003328Y013391D01*
X003266Y013452D01*
X003266Y013576D01*
X003328Y013638D01*
X003266Y013759D02*
X003266Y014006D01*
X003266Y013882D02*
X003636Y013882D01*
X003513Y011917D02*
X003266Y011917D01*
X003451Y011796D02*
X003451Y011549D01*
X003266Y007796D02*
X003636Y007549D01*
X003636Y007796D02*
X003266Y007549D01*
X025166Y006861D02*
X025228Y006799D01*
X025290Y006799D01*
X025351Y006861D01*
X025351Y007169D01*
X025290Y007169D02*
X025413Y007169D01*
X025534Y007169D02*
X025781Y007169D01*
X025658Y007169D02*
X025658Y006799D01*
X025903Y006799D02*
X025903Y007046D01*
X026026Y007169D01*
X026150Y007046D01*
X026150Y006799D01*
X026271Y006861D02*
X026333Y006799D01*
X026456Y006799D01*
X026518Y006861D01*
X026518Y006984D01*
X026395Y006984D01*
X026518Y007108D02*
X026456Y007169D01*
X026333Y007169D01*
X026271Y007108D01*
X026271Y006861D01*
X026150Y006984D02*
X025903Y006984D01*
X027008Y006923D02*
X027193Y006923D01*
X027255Y006984D01*
X027255Y007108D01*
X027193Y007169D01*
X027008Y007169D01*
X027008Y006799D01*
X027131Y006923D02*
X027255Y006799D01*
X027376Y006861D02*
X027438Y006799D01*
X027561Y006799D01*
X027623Y006861D01*
X027623Y006923D01*
X027561Y006984D01*
X027438Y006984D01*
X027376Y007046D01*
X027376Y007108D01*
X027438Y007169D01*
X027561Y007169D01*
X027623Y007108D01*
X027744Y007169D02*
X027991Y007169D01*
X027868Y007169D02*
X027868Y006799D01*
X027750Y005669D02*
X027503Y005669D01*
X027627Y005669D02*
X027627Y005299D01*
X027382Y005361D02*
X027320Y005299D01*
X027197Y005299D01*
X027135Y005361D01*
X027013Y005299D02*
X026890Y005423D01*
X026952Y005423D02*
X026767Y005423D01*
X026767Y005299D02*
X026767Y005669D01*
X026952Y005669D01*
X027013Y005608D01*
X027013Y005484D01*
X026952Y005423D01*
X027135Y005546D02*
X027197Y005484D01*
X027320Y005484D01*
X027382Y005423D01*
X027382Y005361D01*
X027382Y005608D02*
X027320Y005669D01*
X027197Y005669D01*
X027135Y005608D01*
X027135Y005546D01*
X026645Y005237D02*
X026398Y005237D01*
X026215Y005423D02*
X026030Y005423D01*
X025909Y005423D02*
X025909Y005361D01*
X025847Y005299D01*
X025723Y005299D01*
X025662Y005361D01*
X025540Y005299D02*
X025416Y005299D01*
X025478Y005299D02*
X025478Y005669D01*
X025416Y005669D02*
X025540Y005669D01*
X025662Y005608D02*
X025662Y005546D01*
X025723Y005484D01*
X025847Y005484D01*
X025909Y005423D01*
X026030Y005299D02*
X026030Y005669D01*
X026215Y005669D01*
X026277Y005608D01*
X026277Y005484D01*
X026215Y005423D01*
X025909Y005608D02*
X025847Y005669D01*
X025723Y005669D01*
X025662Y005608D01*
X029666Y020549D02*
X029913Y020549D01*
X029790Y020549D02*
X029790Y020919D01*
X029666Y020796D01*
X032916Y020858D02*
X032978Y020919D01*
X033101Y020919D01*
X033163Y020858D01*
X033163Y020796D01*
X033101Y020734D01*
X033163Y020673D01*
X033163Y020611D01*
X033101Y020549D01*
X032978Y020549D01*
X032916Y020611D01*
X033040Y020734D02*
X033101Y020734D01*
D11*
X032881Y019151D02*
X032881Y018844D01*
X032574Y019151D01*
X032498Y019151D01*
X032421Y019074D01*
X032421Y018920D01*
X032498Y018844D01*
X032421Y018537D02*
X032881Y018537D01*
X032881Y018690D02*
X032881Y018383D01*
X032651Y018230D02*
X032651Y017923D01*
X032421Y017769D02*
X032421Y017616D01*
X032421Y017693D02*
X032881Y017693D01*
X032881Y017769D02*
X032881Y017616D01*
X032804Y017463D02*
X032498Y017463D01*
X032421Y017386D01*
X032421Y017156D01*
X032881Y017156D01*
X032881Y017386D01*
X032804Y017463D01*
X032804Y017002D02*
X032881Y016925D01*
X032881Y016772D01*
X032804Y016695D01*
X032651Y016772D02*
X032651Y016925D01*
X032728Y017002D01*
X032804Y017002D01*
X032651Y016772D02*
X032574Y016695D01*
X032498Y016695D01*
X032421Y016772D01*
X032421Y016925D01*
X032498Y017002D01*
X031881Y016903D02*
X031804Y016980D01*
X031651Y016980D01*
X031651Y016826D01*
X031498Y016673D02*
X031421Y016750D01*
X031421Y016903D01*
X031498Y016980D01*
X031421Y017133D02*
X031881Y017440D01*
X031421Y017440D01*
X031421Y017594D02*
X031421Y017824D01*
X031498Y017901D01*
X031804Y017901D01*
X031881Y017824D01*
X031881Y017594D01*
X031421Y017594D01*
X031421Y017133D02*
X031881Y017133D01*
X031881Y016903D02*
X031881Y016750D01*
X031804Y016673D01*
X031498Y016673D01*
X030804Y016866D02*
X030498Y016866D01*
X030651Y016713D02*
X030651Y017020D01*
X030574Y017173D02*
X030421Y017326D01*
X030881Y017326D01*
X030881Y017173D02*
X030881Y017480D01*
X030881Y017633D02*
X030574Y017940D01*
X030498Y017940D01*
X030421Y017864D01*
X030421Y017710D01*
X030498Y017633D01*
X030881Y017633D02*
X030881Y017940D01*
X030728Y018094D02*
X030421Y018094D01*
X030421Y018401D02*
X030728Y018401D01*
X030881Y018247D01*
X030728Y018094D01*
X032421Y018537D02*
X032574Y018383D01*
X028091Y020073D02*
X027784Y020380D01*
X027708Y020380D01*
X027631Y020304D01*
X027631Y020150D01*
X027708Y020073D01*
X028091Y020073D02*
X028091Y020380D01*
X028091Y020534D02*
X028091Y020841D01*
X028091Y020687D02*
X027631Y020687D01*
X027784Y020534D01*
X011995Y005188D02*
X011919Y005265D01*
X011688Y005265D01*
X011688Y004804D01*
X011688Y004958D02*
X011919Y004958D01*
X011995Y005034D01*
X011995Y005188D01*
X011535Y005188D02*
X011458Y005265D01*
X011305Y005265D01*
X011228Y005188D01*
X011228Y005111D01*
X011305Y005034D01*
X011458Y005034D01*
X011535Y004958D01*
X011535Y004881D01*
X011458Y004804D01*
X011305Y004804D01*
X011228Y004881D01*
X011075Y004804D02*
X010921Y004804D01*
X010998Y004804D02*
X010998Y005265D01*
X010921Y005265D02*
X011075Y005265D01*
X015921Y003165D02*
X015921Y003012D01*
X015998Y002935D01*
X016304Y002935D01*
X016381Y003012D01*
X016381Y003165D01*
X016304Y003242D01*
X016151Y003242D01*
X016151Y003089D01*
X015998Y003242D02*
X015921Y003165D01*
X016074Y002782D02*
X016381Y002782D01*
X016151Y002782D02*
X016151Y002475D01*
X016074Y002475D02*
X016381Y002475D01*
X016074Y002475D02*
X015921Y002628D01*
X016074Y002782D01*
X015921Y002321D02*
X015921Y002015D01*
X015921Y002168D02*
X016381Y002168D01*
X015921Y001861D02*
X015921Y001708D01*
X015921Y001784D02*
X016304Y001784D01*
X016381Y001708D01*
X016381Y001631D01*
X016304Y001554D01*
X027631Y001610D02*
X027631Y001764D01*
X027708Y001841D01*
X028014Y001534D01*
X028091Y001610D01*
X028091Y001764D01*
X028014Y001841D01*
X027708Y001841D01*
X027631Y001610D02*
X027708Y001534D01*
X028014Y001534D01*
X027861Y001380D02*
X027861Y001073D01*
X027631Y001304D01*
X028091Y001304D01*
D12*
X006751Y003734D02*
X000151Y003734D01*
X006751Y003734D02*
X006751Y000534D01*
X015456Y016137D02*
X015486Y016089D01*
X015519Y016044D01*
X015555Y016001D01*
X015593Y015960D01*
X015635Y015923D01*
X015679Y015888D01*
X015725Y015857D01*
X015774Y015828D01*
X015824Y015804D01*
X015876Y015783D01*
X015930Y015765D01*
X015984Y015752D01*
X016039Y015742D01*
X016095Y015736D01*
X016151Y015734D01*
X016204Y015736D01*
X016258Y015741D01*
X016310Y015750D01*
X016362Y015762D01*
X016413Y015778D01*
X016463Y015797D01*
X016512Y015820D01*
X016559Y015846D01*
X016604Y015874D01*
X016647Y015906D01*
X016687Y015940D01*
X016726Y015978D01*
X016762Y016017D01*
X016151Y017334D02*
X016097Y017332D01*
X016043Y017327D01*
X015990Y017318D01*
X015937Y017305D01*
X015886Y017289D01*
X015836Y017269D01*
X015787Y017246D01*
X015739Y017220D01*
X015694Y017191D01*
X015651Y017158D01*
X015610Y017123D01*
X015571Y017085D01*
X015535Y017045D01*
X015502Y017002D01*
X015472Y016957D01*
X015445Y016910D01*
X016151Y017334D02*
X016205Y017332D01*
X016258Y017327D01*
X016312Y017318D01*
X016364Y017305D01*
X016415Y017289D01*
X016466Y017269D01*
X016515Y017247D01*
X016562Y017221D01*
X016607Y017191D01*
X016650Y017159D01*
X016691Y017124D01*
X016730Y017086D01*
X016766Y017046D01*
X016151Y017734D02*
X016204Y017736D01*
X016258Y017741D01*
X016310Y017750D01*
X016362Y017762D01*
X016413Y017778D01*
X016463Y017797D01*
X016512Y017820D01*
X016559Y017846D01*
X016604Y017874D01*
X016647Y017906D01*
X016687Y017940D01*
X016726Y017978D01*
X016762Y018017D01*
X016151Y019334D02*
X016097Y019332D01*
X016043Y019327D01*
X015990Y019318D01*
X015937Y019305D01*
X015886Y019289D01*
X015836Y019269D01*
X015787Y019246D01*
X015739Y019220D01*
X015694Y019191D01*
X015651Y019158D01*
X015610Y019123D01*
X015571Y019085D01*
X015535Y019045D01*
X015502Y019002D01*
X015472Y018957D01*
X015445Y018910D01*
X015456Y018137D02*
X015486Y018089D01*
X015519Y018044D01*
X015555Y018001D01*
X015593Y017960D01*
X015635Y017923D01*
X015679Y017888D01*
X015725Y017857D01*
X015774Y017828D01*
X015824Y017804D01*
X015876Y017783D01*
X015930Y017765D01*
X015984Y017752D01*
X016039Y017742D01*
X016095Y017736D01*
X016151Y017734D01*
X016766Y019046D02*
X016730Y019086D01*
X016691Y019124D01*
X016650Y019159D01*
X016607Y019191D01*
X016562Y019221D01*
X016515Y019247D01*
X016466Y019269D01*
X016415Y019289D01*
X016364Y019305D01*
X016312Y019318D01*
X016258Y019327D01*
X016205Y019332D01*
X016151Y019334D01*
X016151Y019734D02*
X016095Y019736D01*
X016039Y019742D01*
X015984Y019752D01*
X015930Y019765D01*
X015876Y019783D01*
X015824Y019804D01*
X015774Y019828D01*
X015725Y019857D01*
X015679Y019888D01*
X015635Y019923D01*
X015593Y019960D01*
X015555Y020001D01*
X015519Y020044D01*
X015486Y020089D01*
X015456Y020137D01*
X016151Y019734D02*
X016204Y019736D01*
X016258Y019741D01*
X016310Y019750D01*
X016362Y019762D01*
X016413Y019778D01*
X016463Y019797D01*
X016512Y019820D01*
X016559Y019846D01*
X016604Y019874D01*
X016647Y019906D01*
X016687Y019940D01*
X016726Y019978D01*
X016762Y020017D01*
X016151Y021334D02*
X016097Y021332D01*
X016043Y021327D01*
X015990Y021318D01*
X015937Y021305D01*
X015886Y021289D01*
X015836Y021269D01*
X015787Y021246D01*
X015739Y021220D01*
X015694Y021191D01*
X015651Y021158D01*
X015610Y021123D01*
X015571Y021085D01*
X015535Y021045D01*
X015502Y021002D01*
X015472Y020957D01*
X015445Y020910D01*
X016151Y021334D02*
X016205Y021332D01*
X016258Y021327D01*
X016312Y021318D01*
X016364Y021305D01*
X016415Y021289D01*
X016466Y021269D01*
X016515Y021247D01*
X016562Y021221D01*
X016607Y021191D01*
X016650Y021159D01*
X016691Y021124D01*
X016730Y021086D01*
X016766Y021046D01*
X002951Y021534D02*
X002951Y018334D01*
X000151Y018334D01*
X034551Y018334D02*
X041151Y018334D01*
X034551Y018334D02*
X034551Y021534D01*
X038351Y003734D02*
X041151Y003734D01*
X038351Y003734D02*
X038351Y000534D01*
D13*
X038603Y005534D02*
X038605Y005589D01*
X038611Y005643D01*
X038621Y005697D01*
X038635Y005749D01*
X038652Y005801D01*
X038674Y005851D01*
X038699Y005900D01*
X038727Y005947D01*
X038759Y005991D01*
X038794Y006033D01*
X038832Y006072D01*
X038873Y006109D01*
X038916Y006142D01*
X038961Y006172D01*
X039009Y006199D01*
X039058Y006222D01*
X039109Y006242D01*
X039162Y006258D01*
X039215Y006270D01*
X039269Y006278D01*
X039324Y006282D01*
X039378Y006282D01*
X039433Y006278D01*
X039487Y006270D01*
X039540Y006258D01*
X039593Y006242D01*
X039644Y006222D01*
X039693Y006199D01*
X039741Y006172D01*
X039786Y006142D01*
X039829Y006109D01*
X039870Y006072D01*
X039908Y006033D01*
X039943Y005991D01*
X039975Y005947D01*
X040003Y005900D01*
X040028Y005851D01*
X040050Y005801D01*
X040067Y005749D01*
X040081Y005697D01*
X040091Y005643D01*
X040097Y005589D01*
X040099Y005534D01*
X040097Y005479D01*
X040091Y005425D01*
X040081Y005371D01*
X040067Y005319D01*
X040050Y005267D01*
X040028Y005217D01*
X040003Y005168D01*
X039975Y005121D01*
X039943Y005077D01*
X039908Y005035D01*
X039870Y004996D01*
X039829Y004959D01*
X039786Y004926D01*
X039741Y004896D01*
X039693Y004869D01*
X039644Y004846D01*
X039593Y004826D01*
X039540Y004810D01*
X039487Y004798D01*
X039433Y004790D01*
X039378Y004786D01*
X039324Y004786D01*
X039269Y004790D01*
X039215Y004798D01*
X039162Y004810D01*
X039109Y004826D01*
X039058Y004846D01*
X039009Y004869D01*
X038961Y004896D01*
X038916Y004926D01*
X038873Y004959D01*
X038832Y004996D01*
X038794Y005035D01*
X038759Y005077D01*
X038727Y005121D01*
X038699Y005168D01*
X038674Y005217D01*
X038652Y005267D01*
X038635Y005319D01*
X038621Y005371D01*
X038611Y005425D01*
X038605Y005479D01*
X038603Y005534D01*
X026801Y003359D02*
X026801Y001710D01*
X026251Y001647D02*
X026251Y001489D01*
X026251Y002421D02*
X026251Y002647D01*
X026251Y003421D02*
X026251Y003579D01*
X026151Y007784D02*
X026151Y008284D01*
X017051Y007434D02*
X017051Y010134D01*
X017049Y010193D01*
X017043Y010251D01*
X017034Y010310D01*
X017020Y010367D01*
X017003Y010423D01*
X016982Y010478D01*
X016958Y010532D01*
X016930Y010584D01*
X016899Y010634D01*
X016865Y010682D01*
X016828Y010727D01*
X016787Y010770D01*
X016744Y010811D01*
X016699Y010848D01*
X016651Y010882D01*
X016601Y010913D01*
X016549Y010941D01*
X016495Y010965D01*
X016440Y010986D01*
X016384Y011003D01*
X016327Y011017D01*
X016268Y011026D01*
X016210Y011032D01*
X016151Y011034D01*
X016092Y011032D01*
X016034Y011026D01*
X015975Y011017D01*
X015918Y011003D01*
X015862Y010986D01*
X015807Y010965D01*
X015753Y010941D01*
X015701Y010913D01*
X015651Y010882D01*
X015603Y010848D01*
X015558Y010811D01*
X015515Y010770D01*
X015474Y010727D01*
X015437Y010682D01*
X015403Y010634D01*
X015372Y010584D01*
X015344Y010532D01*
X015320Y010478D01*
X015299Y010423D01*
X015282Y010367D01*
X015268Y010310D01*
X015259Y010251D01*
X015253Y010193D01*
X015251Y010134D01*
X015251Y007434D01*
X015253Y007375D01*
X015259Y007317D01*
X015268Y007258D01*
X015282Y007201D01*
X015299Y007145D01*
X015320Y007090D01*
X015344Y007036D01*
X015372Y006984D01*
X015403Y006934D01*
X015437Y006886D01*
X015474Y006841D01*
X015515Y006798D01*
X015558Y006757D01*
X015603Y006720D01*
X015651Y006686D01*
X015701Y006655D01*
X015753Y006627D01*
X015807Y006603D01*
X015862Y006582D01*
X015918Y006565D01*
X015975Y006551D01*
X016034Y006542D01*
X016092Y006536D01*
X016151Y006534D01*
X016210Y006536D01*
X016268Y006542D01*
X016327Y006551D01*
X016384Y006565D01*
X016440Y006582D01*
X016495Y006603D01*
X016549Y006627D01*
X016601Y006655D01*
X016651Y006686D01*
X016699Y006720D01*
X016744Y006757D01*
X016787Y006798D01*
X016828Y006841D01*
X016865Y006886D01*
X016899Y006934D01*
X016930Y006984D01*
X016958Y007036D01*
X016982Y007090D01*
X017003Y007145D01*
X017020Y007201D01*
X017034Y007258D01*
X017043Y007317D01*
X017049Y007375D01*
X017051Y007434D01*
X016151Y006034D02*
X016151Y005534D01*
X015588Y004326D02*
X015588Y000783D01*
X012477Y000783D01*
X012477Y001373D01*
X010745Y001373D01*
X010745Y000783D01*
X007635Y000783D01*
X007635Y004286D01*
X007635Y004326D02*
X015588Y004326D01*
X013981Y005944D02*
X013731Y005694D01*
X013231Y005694D01*
X012981Y005944D01*
X012981Y007444D01*
X013231Y007694D01*
X013731Y007694D01*
X013981Y007444D01*
X013981Y005944D01*
X012981Y005944D02*
X012731Y005694D01*
X012231Y005694D01*
X011981Y005944D01*
X011981Y007444D01*
X012231Y007694D01*
X012731Y007694D01*
X012981Y007444D01*
X011981Y007444D02*
X011731Y007694D01*
X011231Y007694D01*
X010981Y007444D01*
X010981Y005944D01*
X011231Y005694D01*
X011731Y005694D01*
X011981Y005944D01*
X011731Y005562D02*
X011231Y005562D01*
X009861Y001462D02*
X009361Y001462D01*
X010745Y000783D02*
X012477Y000783D01*
X001203Y005534D02*
X001205Y005589D01*
X001211Y005643D01*
X001221Y005697D01*
X001235Y005749D01*
X001252Y005801D01*
X001274Y005851D01*
X001299Y005900D01*
X001327Y005947D01*
X001359Y005991D01*
X001394Y006033D01*
X001432Y006072D01*
X001473Y006109D01*
X001516Y006142D01*
X001561Y006172D01*
X001609Y006199D01*
X001658Y006222D01*
X001709Y006242D01*
X001762Y006258D01*
X001815Y006270D01*
X001869Y006278D01*
X001924Y006282D01*
X001978Y006282D01*
X002033Y006278D01*
X002087Y006270D01*
X002140Y006258D01*
X002193Y006242D01*
X002244Y006222D01*
X002293Y006199D01*
X002341Y006172D01*
X002386Y006142D01*
X002429Y006109D01*
X002470Y006072D01*
X002508Y006033D01*
X002543Y005991D01*
X002575Y005947D01*
X002603Y005900D01*
X002628Y005851D01*
X002650Y005801D01*
X002667Y005749D01*
X002681Y005697D01*
X002691Y005643D01*
X002697Y005589D01*
X002699Y005534D01*
X002697Y005479D01*
X002691Y005425D01*
X002681Y005371D01*
X002667Y005319D01*
X002650Y005267D01*
X002628Y005217D01*
X002603Y005168D01*
X002575Y005121D01*
X002543Y005077D01*
X002508Y005035D01*
X002470Y004996D01*
X002429Y004959D01*
X002386Y004926D01*
X002341Y004896D01*
X002293Y004869D01*
X002244Y004846D01*
X002193Y004826D01*
X002140Y004810D01*
X002087Y004798D01*
X002033Y004790D01*
X001978Y004786D01*
X001924Y004786D01*
X001869Y004790D01*
X001815Y004798D01*
X001762Y004810D01*
X001709Y004826D01*
X001658Y004846D01*
X001609Y004869D01*
X001561Y004896D01*
X001516Y004926D01*
X001473Y004959D01*
X001432Y004996D01*
X001394Y005035D01*
X001359Y005077D01*
X001327Y005121D01*
X001299Y005168D01*
X001274Y005217D01*
X001252Y005267D01*
X001235Y005319D01*
X001221Y005371D01*
X001211Y005425D01*
X001205Y005479D01*
X001203Y005534D01*
X001501Y007834D02*
X002294Y007834D01*
X003101Y008184D02*
X003101Y009884D01*
X002306Y010234D02*
X001501Y010234D01*
X000701Y009884D02*
X000701Y008184D01*
X005278Y010944D02*
X014924Y010944D01*
X014924Y011239D01*
X013940Y011239D01*
X013940Y019310D01*
X014924Y019310D01*
X014924Y011239D01*
X016151Y011784D02*
X016151Y012284D01*
X016151Y013034D02*
X016151Y013534D01*
X016151Y014534D02*
X016151Y015034D01*
X025401Y014784D02*
X025651Y014534D01*
X026151Y014534D01*
X026401Y014784D01*
X026651Y014534D01*
X027151Y014534D01*
X027401Y014784D01*
X027401Y015284D01*
X027151Y015534D01*
X026651Y015534D01*
X026401Y015284D01*
X026151Y015534D01*
X025651Y015534D01*
X025401Y015284D01*
X025401Y014784D01*
X025417Y017534D02*
X025419Y017596D01*
X025425Y017659D01*
X025435Y017720D01*
X025449Y017781D01*
X025466Y017841D01*
X025487Y017900D01*
X025513Y017957D01*
X025541Y018012D01*
X025573Y018066D01*
X025609Y018117D01*
X025647Y018167D01*
X025689Y018213D01*
X025733Y018257D01*
X025781Y018298D01*
X025830Y018336D01*
X025882Y018370D01*
X025936Y018401D01*
X025992Y018429D01*
X026050Y018453D01*
X026109Y018474D01*
X026169Y018490D01*
X026230Y018503D01*
X026292Y018512D01*
X026354Y018517D01*
X026417Y018518D01*
X026479Y018515D01*
X026541Y018508D01*
X026603Y018497D01*
X026663Y018482D01*
X026723Y018464D01*
X026781Y018442D01*
X026838Y018416D01*
X026893Y018386D01*
X026946Y018353D01*
X026997Y018317D01*
X027045Y018278D01*
X027091Y018235D01*
X027134Y018190D01*
X027174Y018142D01*
X027211Y018092D01*
X027245Y018039D01*
X027276Y017985D01*
X027302Y017929D01*
X027326Y017871D01*
X027345Y017811D01*
X027361Y017751D01*
X027373Y017689D01*
X027381Y017628D01*
X027385Y017565D01*
X027385Y017503D01*
X027381Y017440D01*
X027373Y017379D01*
X027361Y017317D01*
X027345Y017257D01*
X027326Y017197D01*
X027302Y017139D01*
X027276Y017083D01*
X027245Y017029D01*
X027211Y016976D01*
X027174Y016926D01*
X027134Y016878D01*
X027091Y016833D01*
X027045Y016790D01*
X026997Y016751D01*
X026946Y016715D01*
X026893Y016682D01*
X026838Y016652D01*
X026781Y016626D01*
X026723Y016604D01*
X026663Y016586D01*
X026603Y016571D01*
X026541Y016560D01*
X026479Y016553D01*
X026417Y016550D01*
X026354Y016551D01*
X026292Y016556D01*
X026230Y016565D01*
X026169Y016578D01*
X026109Y016594D01*
X026050Y016615D01*
X025992Y016639D01*
X025936Y016667D01*
X025882Y016698D01*
X025830Y016732D01*
X025781Y016770D01*
X025733Y016811D01*
X025689Y016855D01*
X025647Y016901D01*
X025609Y016951D01*
X025573Y017002D01*
X025541Y017056D01*
X025513Y017111D01*
X025487Y017168D01*
X025466Y017227D01*
X025449Y017287D01*
X025435Y017348D01*
X025425Y017409D01*
X025419Y017472D01*
X025417Y017534D01*
X025647Y017896D02*
X026147Y017896D01*
X025417Y020034D02*
X025419Y020096D01*
X025425Y020159D01*
X025435Y020220D01*
X025449Y020281D01*
X025466Y020341D01*
X025487Y020400D01*
X025513Y020457D01*
X025541Y020512D01*
X025573Y020566D01*
X025609Y020617D01*
X025647Y020667D01*
X025689Y020713D01*
X025733Y020757D01*
X025781Y020798D01*
X025830Y020836D01*
X025882Y020870D01*
X025936Y020901D01*
X025992Y020929D01*
X026050Y020953D01*
X026109Y020974D01*
X026169Y020990D01*
X026230Y021003D01*
X026292Y021012D01*
X026354Y021017D01*
X026417Y021018D01*
X026479Y021015D01*
X026541Y021008D01*
X026603Y020997D01*
X026663Y020982D01*
X026723Y020964D01*
X026781Y020942D01*
X026838Y020916D01*
X026893Y020886D01*
X026946Y020853D01*
X026997Y020817D01*
X027045Y020778D01*
X027091Y020735D01*
X027134Y020690D01*
X027174Y020642D01*
X027211Y020592D01*
X027245Y020539D01*
X027276Y020485D01*
X027302Y020429D01*
X027326Y020371D01*
X027345Y020311D01*
X027361Y020251D01*
X027373Y020189D01*
X027381Y020128D01*
X027385Y020065D01*
X027385Y020003D01*
X027381Y019940D01*
X027373Y019879D01*
X027361Y019817D01*
X027345Y019757D01*
X027326Y019697D01*
X027302Y019639D01*
X027276Y019583D01*
X027245Y019529D01*
X027211Y019476D01*
X027174Y019426D01*
X027134Y019378D01*
X027091Y019333D01*
X027045Y019290D01*
X026997Y019251D01*
X026946Y019215D01*
X026893Y019182D01*
X026838Y019152D01*
X026781Y019126D01*
X026723Y019104D01*
X026663Y019086D01*
X026603Y019071D01*
X026541Y019060D01*
X026479Y019053D01*
X026417Y019050D01*
X026354Y019051D01*
X026292Y019056D01*
X026230Y019065D01*
X026169Y019078D01*
X026109Y019094D01*
X026050Y019115D01*
X025992Y019139D01*
X025936Y019167D01*
X025882Y019198D01*
X025830Y019232D01*
X025781Y019270D01*
X025733Y019311D01*
X025689Y019355D01*
X025647Y019401D01*
X025609Y019451D01*
X025573Y019502D01*
X025541Y019556D01*
X025513Y019611D01*
X025487Y019668D01*
X025466Y019727D01*
X025449Y019787D01*
X025435Y019848D01*
X025425Y019909D01*
X025419Y019972D01*
X025417Y020034D01*
X025647Y020396D02*
X026147Y020396D01*
X038897Y013896D02*
X039397Y013896D01*
X038667Y013534D02*
X038669Y013596D01*
X038675Y013659D01*
X038685Y013720D01*
X038699Y013781D01*
X038716Y013841D01*
X038737Y013900D01*
X038763Y013957D01*
X038791Y014012D01*
X038823Y014066D01*
X038859Y014117D01*
X038897Y014167D01*
X038939Y014213D01*
X038983Y014257D01*
X039031Y014298D01*
X039080Y014336D01*
X039132Y014370D01*
X039186Y014401D01*
X039242Y014429D01*
X039300Y014453D01*
X039359Y014474D01*
X039419Y014490D01*
X039480Y014503D01*
X039542Y014512D01*
X039604Y014517D01*
X039667Y014518D01*
X039729Y014515D01*
X039791Y014508D01*
X039853Y014497D01*
X039913Y014482D01*
X039973Y014464D01*
X040031Y014442D01*
X040088Y014416D01*
X040143Y014386D01*
X040196Y014353D01*
X040247Y014317D01*
X040295Y014278D01*
X040341Y014235D01*
X040384Y014190D01*
X040424Y014142D01*
X040461Y014092D01*
X040495Y014039D01*
X040526Y013985D01*
X040552Y013929D01*
X040576Y013871D01*
X040595Y013811D01*
X040611Y013751D01*
X040623Y013689D01*
X040631Y013628D01*
X040635Y013565D01*
X040635Y013503D01*
X040631Y013440D01*
X040623Y013379D01*
X040611Y013317D01*
X040595Y013257D01*
X040576Y013197D01*
X040552Y013139D01*
X040526Y013083D01*
X040495Y013029D01*
X040461Y012976D01*
X040424Y012926D01*
X040384Y012878D01*
X040341Y012833D01*
X040295Y012790D01*
X040247Y012751D01*
X040196Y012715D01*
X040143Y012682D01*
X040088Y012652D01*
X040031Y012626D01*
X039973Y012604D01*
X039913Y012586D01*
X039853Y012571D01*
X039791Y012560D01*
X039729Y012553D01*
X039667Y012550D01*
X039604Y012551D01*
X039542Y012556D01*
X039480Y012565D01*
X039419Y012578D01*
X039359Y012594D01*
X039300Y012615D01*
X039242Y012639D01*
X039186Y012667D01*
X039132Y012698D01*
X039080Y012732D01*
X039031Y012770D01*
X038983Y012811D01*
X038939Y012855D01*
X038897Y012901D01*
X038859Y012951D01*
X038823Y013002D01*
X038791Y013056D01*
X038763Y013111D01*
X038737Y013168D01*
X038716Y013227D01*
X038699Y013287D01*
X038685Y013348D01*
X038675Y013409D01*
X038669Y013472D01*
X038667Y013534D01*
X038603Y016554D02*
X038605Y016609D01*
X038611Y016663D01*
X038621Y016717D01*
X038635Y016769D01*
X038652Y016821D01*
X038674Y016871D01*
X038699Y016920D01*
X038727Y016967D01*
X038759Y017011D01*
X038794Y017053D01*
X038832Y017092D01*
X038873Y017129D01*
X038916Y017162D01*
X038961Y017192D01*
X039009Y017219D01*
X039058Y017242D01*
X039109Y017262D01*
X039162Y017278D01*
X039215Y017290D01*
X039269Y017298D01*
X039324Y017302D01*
X039378Y017302D01*
X039433Y017298D01*
X039487Y017290D01*
X039540Y017278D01*
X039593Y017262D01*
X039644Y017242D01*
X039693Y017219D01*
X039741Y017192D01*
X039786Y017162D01*
X039829Y017129D01*
X039870Y017092D01*
X039908Y017053D01*
X039943Y017011D01*
X039975Y016967D01*
X040003Y016920D01*
X040028Y016871D01*
X040050Y016821D01*
X040067Y016769D01*
X040081Y016717D01*
X040091Y016663D01*
X040097Y016609D01*
X040099Y016554D01*
X040097Y016499D01*
X040091Y016445D01*
X040081Y016391D01*
X040067Y016339D01*
X040050Y016287D01*
X040028Y016237D01*
X040003Y016188D01*
X039975Y016141D01*
X039943Y016097D01*
X039908Y016055D01*
X039870Y016016D01*
X039829Y015979D01*
X039786Y015946D01*
X039741Y015916D01*
X039693Y015889D01*
X039644Y015866D01*
X039593Y015846D01*
X039540Y015830D01*
X039487Y015818D01*
X039433Y015810D01*
X039378Y015806D01*
X039324Y015806D01*
X039269Y015810D01*
X039215Y015818D01*
X039162Y015830D01*
X039109Y015846D01*
X039058Y015866D01*
X039009Y015889D01*
X038961Y015916D01*
X038916Y015946D01*
X038873Y015979D01*
X038832Y016016D01*
X038794Y016055D01*
X038759Y016097D01*
X038727Y016141D01*
X038699Y016188D01*
X038674Y016237D01*
X038652Y016287D01*
X038635Y016339D01*
X038621Y016391D01*
X038611Y016445D01*
X038605Y016499D01*
X038603Y016554D01*
X012345Y021074D02*
X012070Y021310D01*
X008133Y021310D01*
X007857Y021074D01*
X006263Y019310D02*
X005278Y019310D01*
X005278Y011239D01*
X005278Y010944D01*
X005278Y011239D02*
X006263Y011239D01*
X006263Y019310D01*
X003417Y020334D02*
X003419Y020396D01*
X003425Y020459D01*
X003435Y020520D01*
X003449Y020581D01*
X003466Y020641D01*
X003487Y020700D01*
X003513Y020757D01*
X003541Y020812D01*
X003573Y020866D01*
X003609Y020917D01*
X003647Y020967D01*
X003689Y021013D01*
X003733Y021057D01*
X003781Y021098D01*
X003830Y021136D01*
X003882Y021170D01*
X003936Y021201D01*
X003992Y021229D01*
X004050Y021253D01*
X004109Y021274D01*
X004169Y021290D01*
X004230Y021303D01*
X004292Y021312D01*
X004354Y021317D01*
X004417Y021318D01*
X004479Y021315D01*
X004541Y021308D01*
X004603Y021297D01*
X004663Y021282D01*
X004723Y021264D01*
X004781Y021242D01*
X004838Y021216D01*
X004893Y021186D01*
X004946Y021153D01*
X004997Y021117D01*
X005045Y021078D01*
X005091Y021035D01*
X005134Y020990D01*
X005174Y020942D01*
X005211Y020892D01*
X005245Y020839D01*
X005276Y020785D01*
X005302Y020729D01*
X005326Y020671D01*
X005345Y020611D01*
X005361Y020551D01*
X005373Y020489D01*
X005381Y020428D01*
X005385Y020365D01*
X005385Y020303D01*
X005381Y020240D01*
X005373Y020179D01*
X005361Y020117D01*
X005345Y020057D01*
X005326Y019997D01*
X005302Y019939D01*
X005276Y019883D01*
X005245Y019829D01*
X005211Y019776D01*
X005174Y019726D01*
X005134Y019678D01*
X005091Y019633D01*
X005045Y019590D01*
X004997Y019551D01*
X004946Y019515D01*
X004893Y019482D01*
X004838Y019452D01*
X004781Y019426D01*
X004723Y019404D01*
X004663Y019386D01*
X004603Y019371D01*
X004541Y019360D01*
X004479Y019353D01*
X004417Y019350D01*
X004354Y019351D01*
X004292Y019356D01*
X004230Y019365D01*
X004169Y019378D01*
X004109Y019394D01*
X004050Y019415D01*
X003992Y019439D01*
X003936Y019467D01*
X003882Y019498D01*
X003830Y019532D01*
X003781Y019570D01*
X003733Y019611D01*
X003689Y019655D01*
X003647Y019701D01*
X003609Y019751D01*
X003573Y019802D01*
X003541Y019856D01*
X003513Y019911D01*
X003487Y019968D01*
X003466Y020027D01*
X003449Y020087D01*
X003435Y020148D01*
X003425Y020209D01*
X003419Y020272D01*
X003417Y020334D01*
X003647Y020696D02*
X004147Y020696D01*
X004151Y017784D02*
X004651Y017784D01*
X001203Y016554D02*
X001205Y016609D01*
X001211Y016663D01*
X001221Y016717D01*
X001235Y016769D01*
X001252Y016821D01*
X001274Y016871D01*
X001299Y016920D01*
X001327Y016967D01*
X001359Y017011D01*
X001394Y017053D01*
X001432Y017092D01*
X001473Y017129D01*
X001516Y017162D01*
X001561Y017192D01*
X001609Y017219D01*
X001658Y017242D01*
X001709Y017262D01*
X001762Y017278D01*
X001815Y017290D01*
X001869Y017298D01*
X001924Y017302D01*
X001978Y017302D01*
X002033Y017298D01*
X002087Y017290D01*
X002140Y017278D01*
X002193Y017262D01*
X002244Y017242D01*
X002293Y017219D01*
X002341Y017192D01*
X002386Y017162D01*
X002429Y017129D01*
X002470Y017092D01*
X002508Y017053D01*
X002543Y017011D01*
X002575Y016967D01*
X002603Y016920D01*
X002628Y016871D01*
X002650Y016821D01*
X002667Y016769D01*
X002681Y016717D01*
X002691Y016663D01*
X002697Y016609D01*
X002699Y016554D01*
X002697Y016499D01*
X002691Y016445D01*
X002681Y016391D01*
X002667Y016339D01*
X002650Y016287D01*
X002628Y016237D01*
X002603Y016188D01*
X002575Y016141D01*
X002543Y016097D01*
X002508Y016055D01*
X002470Y016016D01*
X002429Y015979D01*
X002386Y015946D01*
X002341Y015916D01*
X002293Y015889D01*
X002244Y015866D01*
X002193Y015846D01*
X002140Y015830D01*
X002087Y015818D01*
X002033Y015810D01*
X001978Y015806D01*
X001924Y015806D01*
X001869Y015810D01*
X001815Y015818D01*
X001762Y015830D01*
X001709Y015846D01*
X001658Y015866D01*
X001609Y015889D01*
X001561Y015916D01*
X001516Y015946D01*
X001473Y015979D01*
X001432Y016016D01*
X001394Y016055D01*
X001359Y016097D01*
X001327Y016141D01*
X001299Y016188D01*
X001274Y016237D01*
X001252Y016287D01*
X001235Y016339D01*
X001221Y016391D01*
X001211Y016445D01*
X001205Y016499D01*
X001203Y016554D01*
X001501Y014234D02*
X002306Y014234D01*
X003101Y013884D02*
X003101Y012184D01*
X002294Y011834D02*
X001501Y011834D01*
X000701Y012184D02*
X000701Y013884D01*
D14*
X000601Y016554D02*
X000603Y016627D01*
X000609Y016700D01*
X000619Y016772D01*
X000633Y016844D01*
X000650Y016915D01*
X000672Y016985D01*
X000697Y017054D01*
X000726Y017121D01*
X000758Y017186D01*
X000794Y017250D01*
X000834Y017312D01*
X000876Y017371D01*
X000922Y017428D01*
X000971Y017482D01*
X001023Y017534D01*
X001077Y017583D01*
X001134Y017629D01*
X001193Y017671D01*
X001255Y017711D01*
X001319Y017747D01*
X001384Y017779D01*
X001451Y017808D01*
X001520Y017833D01*
X001590Y017855D01*
X001661Y017872D01*
X001733Y017886D01*
X001805Y017896D01*
X001878Y017902D01*
X001951Y017904D01*
X002024Y017902D01*
X002097Y017896D01*
X002169Y017886D01*
X002241Y017872D01*
X002312Y017855D01*
X002382Y017833D01*
X002451Y017808D01*
X002518Y017779D01*
X002583Y017747D01*
X002647Y017711D01*
X002709Y017671D01*
X002768Y017629D01*
X002825Y017583D01*
X002879Y017534D01*
X002931Y017482D01*
X002980Y017428D01*
X003026Y017371D01*
X003068Y017312D01*
X003108Y017250D01*
X003144Y017186D01*
X003176Y017121D01*
X003205Y017054D01*
X003230Y016985D01*
X003252Y016915D01*
X003269Y016844D01*
X003283Y016772D01*
X003293Y016700D01*
X003299Y016627D01*
X003301Y016554D01*
X003299Y016481D01*
X003293Y016408D01*
X003283Y016336D01*
X003269Y016264D01*
X003252Y016193D01*
X003230Y016123D01*
X003205Y016054D01*
X003176Y015987D01*
X003144Y015922D01*
X003108Y015858D01*
X003068Y015796D01*
X003026Y015737D01*
X002980Y015680D01*
X002931Y015626D01*
X002879Y015574D01*
X002825Y015525D01*
X002768Y015479D01*
X002709Y015437D01*
X002647Y015397D01*
X002583Y015361D01*
X002518Y015329D01*
X002451Y015300D01*
X002382Y015275D01*
X002312Y015253D01*
X002241Y015236D01*
X002169Y015222D01*
X002097Y015212D01*
X002024Y015206D01*
X001951Y015204D01*
X001878Y015206D01*
X001805Y015212D01*
X001733Y015222D01*
X001661Y015236D01*
X001590Y015253D01*
X001520Y015275D01*
X001451Y015300D01*
X001384Y015329D01*
X001319Y015361D01*
X001255Y015397D01*
X001193Y015437D01*
X001134Y015479D01*
X001077Y015525D01*
X001023Y015574D01*
X000971Y015626D01*
X000922Y015680D01*
X000876Y015737D01*
X000834Y015796D01*
X000794Y015858D01*
X000758Y015922D01*
X000726Y015987D01*
X000697Y016054D01*
X000672Y016123D01*
X000650Y016193D01*
X000633Y016264D01*
X000619Y016336D01*
X000609Y016408D01*
X000603Y016481D01*
X000601Y016554D01*
X015677Y016166D02*
X015707Y016131D01*
X015738Y016098D01*
X015773Y016068D01*
X015809Y016041D01*
X015847Y016017D01*
X015887Y015995D01*
X015929Y015977D01*
X015972Y015961D01*
X016016Y015949D01*
X016060Y015941D01*
X016106Y015936D01*
X016151Y015934D01*
X016196Y015936D01*
X016242Y015941D01*
X016286Y015949D01*
X016330Y015961D01*
X016373Y015977D01*
X016415Y015995D01*
X016455Y016017D01*
X016493Y016041D01*
X016529Y016068D01*
X016564Y016098D01*
X016595Y016131D01*
X016625Y016166D01*
X016151Y017134D02*
X016105Y017132D01*
X016059Y017127D01*
X016013Y017118D01*
X015968Y017106D01*
X015925Y017090D01*
X015883Y017071D01*
X015842Y017048D01*
X015803Y017023D01*
X015767Y016995D01*
X015732Y016964D01*
X015700Y016930D01*
X015671Y016894D01*
X016151Y017134D02*
X016198Y017132D01*
X016246Y017126D01*
X016292Y017117D01*
X016338Y017104D01*
X016382Y017088D01*
X016426Y017068D01*
X016467Y017044D01*
X016506Y017018D01*
X016543Y016988D01*
X016578Y016955D01*
X016610Y016920D01*
X016639Y016883D01*
X016151Y017934D02*
X016106Y017936D01*
X016060Y017941D01*
X016016Y017949D01*
X015972Y017961D01*
X015929Y017977D01*
X015887Y017995D01*
X015847Y018017D01*
X015809Y018041D01*
X015773Y018068D01*
X015738Y018098D01*
X015707Y018131D01*
X015677Y018166D01*
X016151Y017934D02*
X016196Y017936D01*
X016242Y017941D01*
X016286Y017949D01*
X016330Y017961D01*
X016373Y017977D01*
X016415Y017995D01*
X016455Y018017D01*
X016493Y018041D01*
X016529Y018068D01*
X016564Y018098D01*
X016595Y018131D01*
X016625Y018166D01*
X016151Y019134D02*
X016105Y019132D01*
X016059Y019127D01*
X016013Y019118D01*
X015968Y019106D01*
X015925Y019090D01*
X015883Y019071D01*
X015842Y019048D01*
X015803Y019023D01*
X015767Y018995D01*
X015732Y018964D01*
X015700Y018930D01*
X015671Y018894D01*
X016151Y019134D02*
X016198Y019132D01*
X016246Y019126D01*
X016292Y019117D01*
X016338Y019104D01*
X016382Y019088D01*
X016426Y019068D01*
X016467Y019044D01*
X016506Y019018D01*
X016543Y018988D01*
X016578Y018955D01*
X016610Y018920D01*
X016639Y018883D01*
X016151Y019934D02*
X016106Y019936D01*
X016060Y019941D01*
X016016Y019949D01*
X015972Y019961D01*
X015929Y019977D01*
X015887Y019995D01*
X015847Y020017D01*
X015809Y020041D01*
X015773Y020068D01*
X015738Y020098D01*
X015707Y020131D01*
X015677Y020166D01*
X016151Y019934D02*
X016196Y019936D01*
X016242Y019941D01*
X016286Y019949D01*
X016330Y019961D01*
X016373Y019977D01*
X016415Y019995D01*
X016455Y020017D01*
X016493Y020041D01*
X016529Y020068D01*
X016564Y020098D01*
X016595Y020131D01*
X016625Y020166D01*
X016151Y021134D02*
X016105Y021132D01*
X016059Y021127D01*
X016013Y021118D01*
X015968Y021106D01*
X015925Y021090D01*
X015883Y021071D01*
X015842Y021048D01*
X015803Y021023D01*
X015767Y020995D01*
X015732Y020964D01*
X015700Y020930D01*
X015671Y020894D01*
X016151Y021134D02*
X016198Y021132D01*
X016246Y021126D01*
X016292Y021117D01*
X016338Y021104D01*
X016382Y021088D01*
X016426Y021068D01*
X016467Y021044D01*
X016506Y021018D01*
X016543Y020988D01*
X016578Y020955D01*
X016610Y020920D01*
X016639Y020883D01*
X018551Y021434D02*
X018551Y000634D01*
X023751Y000634D01*
X023751Y021434D01*
X021651Y021434D01*
X021649Y021390D01*
X021643Y021347D01*
X021634Y021305D01*
X021621Y021263D01*
X021604Y021223D01*
X021584Y021184D01*
X021561Y021147D01*
X021534Y021113D01*
X021505Y021080D01*
X021472Y021051D01*
X021438Y021024D01*
X021401Y021001D01*
X021362Y020981D01*
X021322Y020964D01*
X021280Y020951D01*
X021238Y020942D01*
X021195Y020936D01*
X021151Y020934D01*
X021107Y020936D01*
X021064Y020942D01*
X021022Y020951D01*
X020980Y020964D01*
X020940Y020981D01*
X020901Y021001D01*
X020864Y021024D01*
X020830Y021051D01*
X020797Y021080D01*
X020768Y021113D01*
X020741Y021147D01*
X020718Y021184D01*
X020698Y021223D01*
X020681Y021263D01*
X020668Y021305D01*
X020659Y021347D01*
X020653Y021390D01*
X020651Y021434D01*
X018551Y021434D01*
X030451Y013134D02*
X030451Y012834D01*
X030301Y012984D02*
X030601Y012984D01*
X030051Y012534D02*
X030053Y012614D01*
X030059Y012693D01*
X030069Y012772D01*
X030083Y012851D01*
X030100Y012929D01*
X030122Y013006D01*
X030147Y013081D01*
X030177Y013155D01*
X030209Y013228D01*
X030246Y013299D01*
X030286Y013368D01*
X030329Y013435D01*
X030376Y013500D01*
X030425Y013562D01*
X030478Y013622D01*
X030534Y013679D01*
X030592Y013734D01*
X030653Y013785D01*
X030717Y013833D01*
X030783Y013878D01*
X030851Y013920D01*
X030921Y013958D01*
X030993Y013992D01*
X031066Y014023D01*
X031141Y014051D01*
X031218Y014074D01*
X031295Y014094D01*
X031373Y014110D01*
X031452Y014122D01*
X031531Y014130D01*
X031611Y014134D01*
X031691Y014134D01*
X031771Y014130D01*
X031850Y014122D01*
X031929Y014110D01*
X032007Y014094D01*
X032084Y014074D01*
X032161Y014051D01*
X032236Y014023D01*
X032309Y013992D01*
X032381Y013958D01*
X032451Y013920D01*
X032519Y013878D01*
X032585Y013833D01*
X032649Y013785D01*
X032710Y013734D01*
X032768Y013679D01*
X032824Y013622D01*
X032877Y013562D01*
X032926Y013500D01*
X032973Y013435D01*
X033016Y013368D01*
X033056Y013299D01*
X033093Y013228D01*
X033125Y013155D01*
X033155Y013081D01*
X033180Y013006D01*
X033202Y012929D01*
X033219Y012851D01*
X033233Y012772D01*
X033243Y012693D01*
X033249Y012614D01*
X033251Y012534D01*
X033249Y012454D01*
X033243Y012375D01*
X033233Y012296D01*
X033219Y012217D01*
X033202Y012139D01*
X033180Y012062D01*
X033155Y011987D01*
X033125Y011913D01*
X033093Y011840D01*
X033056Y011769D01*
X033016Y011700D01*
X032973Y011633D01*
X032926Y011568D01*
X032877Y011506D01*
X032824Y011446D01*
X032768Y011389D01*
X032710Y011334D01*
X032649Y011283D01*
X032585Y011235D01*
X032519Y011190D01*
X032451Y011148D01*
X032381Y011110D01*
X032309Y011076D01*
X032236Y011045D01*
X032161Y011017D01*
X032084Y010994D01*
X032007Y010974D01*
X031929Y010958D01*
X031850Y010946D01*
X031771Y010938D01*
X031691Y010934D01*
X031611Y010934D01*
X031531Y010938D01*
X031452Y010946D01*
X031373Y010958D01*
X031295Y010974D01*
X031218Y010994D01*
X031141Y011017D01*
X031066Y011045D01*
X030993Y011076D01*
X030921Y011110D01*
X030851Y011148D01*
X030783Y011190D01*
X030717Y011235D01*
X030653Y011283D01*
X030592Y011334D01*
X030534Y011389D01*
X030478Y011446D01*
X030425Y011506D01*
X030376Y011568D01*
X030329Y011633D01*
X030286Y011700D01*
X030246Y011769D01*
X030209Y011840D01*
X030177Y011913D01*
X030147Y011987D01*
X030122Y012062D01*
X030100Y012139D01*
X030083Y012217D01*
X030069Y012296D01*
X030059Y012375D01*
X030053Y012454D01*
X030051Y012534D01*
X026651Y011834D02*
X025651Y011834D01*
X025651Y010234D01*
X026651Y010234D01*
X026651Y011834D01*
X026151Y011634D02*
X026151Y011034D01*
X025901Y011034D01*
X025901Y011134D01*
X026151Y011034D02*
X025901Y011434D01*
X026401Y011434D01*
X026151Y011034D01*
X026401Y011034D01*
X026151Y011034D02*
X026151Y010784D01*
X029551Y007634D02*
X029551Y007384D01*
X029601Y007334D01*
X029601Y004734D01*
X029551Y004684D01*
X029551Y004434D01*
X029553Y004417D01*
X029557Y004400D01*
X029564Y004384D01*
X029574Y004370D01*
X029587Y004357D01*
X029601Y004347D01*
X029617Y004340D01*
X029634Y004336D01*
X029651Y004334D01*
X030651Y004334D02*
X030668Y004336D01*
X030685Y004340D01*
X030701Y004347D01*
X030715Y004357D01*
X030728Y004370D01*
X030738Y004384D01*
X030745Y004400D01*
X030749Y004417D01*
X030751Y004434D01*
X030751Y004684D01*
X030701Y004734D01*
X030701Y007334D01*
X030751Y007384D01*
X030751Y007634D01*
X030801Y007634D02*
X030801Y007384D01*
X030851Y007334D01*
X030851Y004734D01*
X030801Y004684D01*
X030801Y004434D01*
X030803Y004417D01*
X030807Y004400D01*
X030814Y004384D01*
X030824Y004370D01*
X030837Y004357D01*
X030851Y004347D01*
X030867Y004340D01*
X030884Y004336D01*
X030901Y004334D01*
X031901Y004334D02*
X031918Y004336D01*
X031935Y004340D01*
X031951Y004347D01*
X031965Y004357D01*
X031978Y004370D01*
X031988Y004384D01*
X031995Y004400D01*
X031999Y004417D01*
X032001Y004434D01*
X032001Y004684D01*
X031951Y004734D01*
X031951Y007334D01*
X032001Y007384D01*
X032001Y007634D01*
X032051Y007634D02*
X032051Y007384D01*
X032101Y007334D01*
X032101Y004734D01*
X032051Y004684D01*
X032051Y004434D01*
X032053Y004417D01*
X032057Y004400D01*
X032064Y004384D01*
X032074Y004370D01*
X032087Y004357D01*
X032101Y004347D01*
X032117Y004340D01*
X032134Y004336D01*
X032151Y004334D01*
X033151Y004334D02*
X033168Y004336D01*
X033185Y004340D01*
X033201Y004347D01*
X033215Y004357D01*
X033228Y004370D01*
X033238Y004384D01*
X033245Y004400D01*
X033249Y004417D01*
X033251Y004434D01*
X033251Y004684D01*
X033201Y004734D01*
X033201Y007334D01*
X033251Y007384D01*
X033251Y007634D01*
X033249Y007651D01*
X033245Y007668D01*
X033238Y007684D01*
X033228Y007698D01*
X033215Y007711D01*
X033201Y007721D01*
X033185Y007728D01*
X033168Y007732D01*
X033151Y007734D01*
X033551Y007634D02*
X033551Y007384D01*
X033601Y007334D01*
X033601Y004734D01*
X033551Y004684D01*
X033551Y004434D01*
X033553Y004417D01*
X033557Y004400D01*
X033564Y004384D01*
X033574Y004370D01*
X033587Y004357D01*
X033601Y004347D01*
X033617Y004340D01*
X033634Y004336D01*
X033651Y004334D01*
X034551Y004434D02*
X034551Y004684D01*
X034601Y004734D01*
X034601Y007334D01*
X034551Y007384D01*
X034551Y007634D01*
X034553Y007651D01*
X034557Y007668D01*
X034564Y007684D01*
X034574Y007698D01*
X034587Y007711D01*
X034601Y007721D01*
X034617Y007728D01*
X034634Y007732D01*
X034651Y007734D01*
X034668Y007732D01*
X034685Y007728D01*
X034701Y007721D01*
X034715Y007711D01*
X034728Y007698D01*
X034738Y007684D01*
X034745Y007668D01*
X034749Y007651D01*
X034751Y007634D01*
X034751Y007384D01*
X034701Y007334D01*
X034701Y004734D01*
X034751Y004684D01*
X034751Y004434D01*
X034651Y004334D02*
X034634Y004336D01*
X034617Y004340D01*
X034601Y004347D01*
X034587Y004357D01*
X034574Y004370D01*
X034564Y004384D01*
X034557Y004400D01*
X034553Y004417D01*
X034551Y004434D01*
X034651Y004334D02*
X034668Y004336D01*
X034685Y004340D01*
X034701Y004347D01*
X034715Y004357D01*
X034728Y004370D01*
X034738Y004384D01*
X034745Y004400D01*
X034749Y004417D01*
X034751Y004434D01*
X035651Y004334D02*
X035668Y004336D01*
X035685Y004340D01*
X035701Y004347D01*
X035715Y004357D01*
X035728Y004370D01*
X035738Y004384D01*
X035745Y004400D01*
X035749Y004417D01*
X035751Y004434D01*
X035751Y004684D01*
X035701Y004734D01*
X035701Y007334D01*
X035751Y007384D01*
X035751Y007634D01*
X035749Y007651D01*
X035745Y007668D01*
X035738Y007684D01*
X035728Y007698D01*
X035715Y007711D01*
X035701Y007721D01*
X035685Y007728D01*
X035668Y007732D01*
X035651Y007734D01*
X036051Y007634D02*
X036051Y007384D01*
X036101Y007334D01*
X036101Y004734D01*
X036051Y004684D01*
X036051Y004434D01*
X036053Y004417D01*
X036057Y004400D01*
X036064Y004384D01*
X036074Y004370D01*
X036087Y004357D01*
X036101Y004347D01*
X036117Y004340D01*
X036134Y004336D01*
X036151Y004334D01*
X037151Y004334D02*
X037168Y004336D01*
X037185Y004340D01*
X037201Y004347D01*
X037215Y004357D01*
X037228Y004370D01*
X037238Y004384D01*
X037245Y004400D01*
X037249Y004417D01*
X037251Y004434D01*
X037251Y004684D01*
X037201Y004734D01*
X037201Y007334D01*
X037251Y007384D01*
X037251Y007634D01*
X037249Y007651D01*
X037245Y007668D01*
X037238Y007684D01*
X037228Y007698D01*
X037215Y007711D01*
X037201Y007721D01*
X037185Y007728D01*
X037168Y007732D01*
X037151Y007734D01*
X036151Y007734D02*
X036134Y007732D01*
X036117Y007728D01*
X036101Y007721D01*
X036087Y007711D01*
X036074Y007698D01*
X036064Y007684D01*
X036057Y007668D01*
X036053Y007651D01*
X036051Y007634D01*
X037461Y008494D02*
X038211Y008494D01*
X038213Y008533D01*
X038219Y008572D01*
X038228Y008610D01*
X038241Y008647D01*
X038258Y008683D01*
X038278Y008716D01*
X038302Y008748D01*
X038328Y008777D01*
X038357Y008803D01*
X038389Y008827D01*
X038422Y008847D01*
X038458Y008864D01*
X038495Y008877D01*
X038533Y008886D01*
X038572Y008892D01*
X038611Y008894D01*
X038650Y008892D01*
X038689Y008886D01*
X038727Y008877D01*
X038764Y008864D01*
X038800Y008847D01*
X038833Y008827D01*
X038865Y008803D01*
X038894Y008777D01*
X038920Y008748D01*
X038944Y008716D01*
X038964Y008683D01*
X038981Y008647D01*
X038994Y008610D01*
X039003Y008572D01*
X039009Y008533D01*
X039011Y008494D01*
X039761Y008494D01*
X039761Y012494D01*
X037461Y012494D01*
X037461Y008494D01*
X036411Y009934D02*
X036411Y010184D01*
X036361Y010234D01*
X036361Y012834D01*
X036411Y012884D01*
X036411Y013134D01*
X036409Y013151D01*
X036405Y013168D01*
X036398Y013184D01*
X036388Y013198D01*
X036375Y013211D01*
X036361Y013221D01*
X036345Y013228D01*
X036328Y013232D01*
X036311Y013234D01*
X035311Y013234D02*
X035294Y013232D01*
X035277Y013228D01*
X035261Y013221D01*
X035247Y013211D01*
X035234Y013198D01*
X035224Y013184D01*
X035217Y013168D01*
X035213Y013151D01*
X035211Y013134D01*
X035211Y012884D01*
X035261Y012834D01*
X035261Y010234D01*
X035211Y010184D01*
X035211Y009934D01*
X035213Y009917D01*
X035217Y009900D01*
X035224Y009884D01*
X035234Y009870D01*
X035247Y009857D01*
X035261Y009847D01*
X035277Y009840D01*
X035294Y009836D01*
X035311Y009834D01*
X036311Y009834D02*
X036328Y009836D01*
X036345Y009840D01*
X036361Y009847D01*
X036375Y009857D01*
X036388Y009870D01*
X036398Y009884D01*
X036405Y009900D01*
X036409Y009917D01*
X036411Y009934D01*
X033651Y007734D02*
X033634Y007732D01*
X033617Y007728D01*
X033601Y007721D01*
X033587Y007711D01*
X033574Y007698D01*
X033564Y007684D01*
X033557Y007668D01*
X033553Y007651D01*
X033551Y007634D01*
X032151Y007734D02*
X032134Y007732D01*
X032117Y007728D01*
X032101Y007721D01*
X032087Y007711D01*
X032074Y007698D01*
X032064Y007684D01*
X032057Y007668D01*
X032053Y007651D01*
X032051Y007634D01*
X032001Y007634D02*
X031999Y007651D01*
X031995Y007668D01*
X031988Y007684D01*
X031978Y007698D01*
X031965Y007711D01*
X031951Y007721D01*
X031935Y007728D01*
X031918Y007732D01*
X031901Y007734D01*
X030901Y007734D02*
X030884Y007732D01*
X030867Y007728D01*
X030851Y007721D01*
X030837Y007711D01*
X030824Y007698D01*
X030814Y007684D01*
X030807Y007668D01*
X030803Y007651D01*
X030801Y007634D01*
X030751Y007634D02*
X030749Y007651D01*
X030745Y007668D01*
X030738Y007684D01*
X030728Y007698D01*
X030715Y007711D01*
X030701Y007721D01*
X030685Y007728D01*
X030668Y007732D01*
X030651Y007734D01*
X029651Y007734D02*
X029634Y007732D01*
X029617Y007728D01*
X029601Y007721D01*
X029587Y007711D01*
X029574Y007698D01*
X029564Y007684D01*
X029557Y007668D01*
X029553Y007651D01*
X029551Y007634D01*
X026801Y006584D02*
X026801Y005984D01*
X026799Y005967D01*
X026795Y005950D01*
X026788Y005934D01*
X026778Y005920D01*
X026765Y005907D01*
X026751Y005897D01*
X026735Y005890D01*
X026718Y005886D01*
X026701Y005884D01*
X025601Y005884D01*
X025584Y005886D01*
X025567Y005890D01*
X025551Y005897D01*
X025537Y005907D01*
X025524Y005920D01*
X025514Y005934D01*
X025507Y005950D01*
X025503Y005967D01*
X025501Y005984D01*
X025501Y006584D01*
X025503Y006601D01*
X025507Y006618D01*
X025514Y006634D01*
X025524Y006648D01*
X025537Y006661D01*
X025551Y006671D01*
X025567Y006678D01*
X025584Y006682D01*
X025601Y006684D01*
X026701Y006684D01*
X026718Y006682D01*
X026735Y006678D01*
X026751Y006671D01*
X026765Y006661D01*
X026778Y006648D01*
X026788Y006634D01*
X026795Y006618D01*
X026799Y006601D01*
X026801Y006584D01*
X026701Y004934D02*
X025601Y004934D01*
X025584Y004932D01*
X025567Y004928D01*
X025551Y004921D01*
X025537Y004911D01*
X025524Y004898D01*
X025514Y004884D01*
X025507Y004868D01*
X025503Y004851D01*
X025501Y004834D01*
X025501Y004234D01*
X025503Y004217D01*
X025507Y004200D01*
X025514Y004184D01*
X025524Y004170D01*
X025537Y004157D01*
X025551Y004147D01*
X025567Y004140D01*
X025584Y004136D01*
X025601Y004134D01*
X026701Y004134D01*
X026718Y004136D01*
X026735Y004140D01*
X026751Y004147D01*
X026765Y004157D01*
X026778Y004170D01*
X026788Y004184D01*
X026795Y004200D01*
X026799Y004217D01*
X026801Y004234D01*
X026801Y004834D01*
X026799Y004851D01*
X026795Y004868D01*
X026788Y004884D01*
X026778Y004898D01*
X026765Y004911D01*
X026751Y004921D01*
X026735Y004928D01*
X026718Y004932D01*
X026701Y004934D01*
X031901Y003134D02*
X035901Y003134D01*
X035901Y000934D01*
X031901Y000934D01*
X031901Y003134D01*
X033451Y002264D02*
X033901Y002034D01*
X033901Y002284D01*
X033751Y002284D01*
X033751Y002214D01*
X033901Y002034D02*
X033901Y001784D01*
X034051Y001784D01*
X034051Y001854D01*
X033901Y002034D02*
X033001Y002034D01*
X033451Y001804D02*
X033451Y002264D01*
X033451Y001804D02*
X033901Y002034D01*
X034401Y002034D01*
X038001Y005534D02*
X038003Y005607D01*
X038009Y005680D01*
X038019Y005752D01*
X038033Y005824D01*
X038050Y005895D01*
X038072Y005965D01*
X038097Y006034D01*
X038126Y006101D01*
X038158Y006166D01*
X038194Y006230D01*
X038234Y006292D01*
X038276Y006351D01*
X038322Y006408D01*
X038371Y006462D01*
X038423Y006514D01*
X038477Y006563D01*
X038534Y006609D01*
X038593Y006651D01*
X038655Y006691D01*
X038719Y006727D01*
X038784Y006759D01*
X038851Y006788D01*
X038920Y006813D01*
X038990Y006835D01*
X039061Y006852D01*
X039133Y006866D01*
X039205Y006876D01*
X039278Y006882D01*
X039351Y006884D01*
X039424Y006882D01*
X039497Y006876D01*
X039569Y006866D01*
X039641Y006852D01*
X039712Y006835D01*
X039782Y006813D01*
X039851Y006788D01*
X039918Y006759D01*
X039983Y006727D01*
X040047Y006691D01*
X040109Y006651D01*
X040168Y006609D01*
X040225Y006563D01*
X040279Y006514D01*
X040331Y006462D01*
X040380Y006408D01*
X040426Y006351D01*
X040468Y006292D01*
X040508Y006230D01*
X040544Y006166D01*
X040576Y006101D01*
X040605Y006034D01*
X040630Y005965D01*
X040652Y005895D01*
X040669Y005824D01*
X040683Y005752D01*
X040693Y005680D01*
X040699Y005607D01*
X040701Y005534D01*
X040699Y005461D01*
X040693Y005388D01*
X040683Y005316D01*
X040669Y005244D01*
X040652Y005173D01*
X040630Y005103D01*
X040605Y005034D01*
X040576Y004967D01*
X040544Y004902D01*
X040508Y004838D01*
X040468Y004776D01*
X040426Y004717D01*
X040380Y004660D01*
X040331Y004606D01*
X040279Y004554D01*
X040225Y004505D01*
X040168Y004459D01*
X040109Y004417D01*
X040047Y004377D01*
X039983Y004341D01*
X039918Y004309D01*
X039851Y004280D01*
X039782Y004255D01*
X039712Y004233D01*
X039641Y004216D01*
X039569Y004202D01*
X039497Y004192D01*
X039424Y004186D01*
X039351Y004184D01*
X039278Y004186D01*
X039205Y004192D01*
X039133Y004202D01*
X039061Y004216D01*
X038990Y004233D01*
X038920Y004255D01*
X038851Y004280D01*
X038784Y004309D01*
X038719Y004341D01*
X038655Y004377D01*
X038593Y004417D01*
X038534Y004459D01*
X038477Y004505D01*
X038423Y004554D01*
X038371Y004606D01*
X038322Y004660D01*
X038276Y004717D01*
X038234Y004776D01*
X038194Y004838D01*
X038158Y004902D01*
X038126Y004967D01*
X038097Y005034D01*
X038072Y005103D01*
X038050Y005173D01*
X038033Y005244D01*
X038019Y005316D01*
X038009Y005388D01*
X038003Y005461D01*
X038001Y005534D01*
X036651Y014484D02*
X036680Y014458D01*
X036712Y014436D01*
X036746Y014417D01*
X036782Y014401D01*
X036819Y014389D01*
X036857Y014380D01*
X036895Y014376D01*
X036934Y014375D01*
X036973Y014379D01*
X037011Y014386D01*
X037049Y014397D01*
X037085Y014411D01*
X037119Y014429D01*
X037152Y014451D01*
X037182Y014476D01*
X037209Y014503D01*
X037234Y014533D01*
X037256Y014566D01*
X037274Y014600D01*
X037288Y014636D01*
X037299Y014674D01*
X037306Y014712D01*
X037310Y014751D01*
X037309Y014790D01*
X037305Y014828D01*
X037296Y014866D01*
X037284Y014903D01*
X037268Y014939D01*
X037249Y014973D01*
X037227Y015005D01*
X037201Y015034D01*
X033801Y016034D02*
X033803Y016125D01*
X033810Y016215D01*
X033821Y016305D01*
X033837Y016395D01*
X033856Y016484D01*
X033881Y016571D01*
X033909Y016657D01*
X033942Y016742D01*
X033979Y016825D01*
X034019Y016906D01*
X034064Y016985D01*
X034113Y017062D01*
X034165Y017136D01*
X034221Y017208D01*
X034280Y017276D01*
X034343Y017342D01*
X034409Y017405D01*
X034477Y017464D01*
X034549Y017520D01*
X034623Y017572D01*
X034700Y017621D01*
X034779Y017666D01*
X034860Y017706D01*
X034943Y017743D01*
X035028Y017776D01*
X035114Y017804D01*
X035201Y017829D01*
X035290Y017848D01*
X035380Y017864D01*
X035470Y017875D01*
X035560Y017882D01*
X035651Y017884D01*
X035742Y017882D01*
X035832Y017875D01*
X035922Y017864D01*
X036012Y017848D01*
X036101Y017829D01*
X036188Y017804D01*
X036274Y017776D01*
X036359Y017743D01*
X036442Y017706D01*
X036523Y017666D01*
X036602Y017621D01*
X036679Y017572D01*
X036753Y017520D01*
X036825Y017464D01*
X036893Y017405D01*
X036959Y017342D01*
X037022Y017276D01*
X037081Y017208D01*
X037137Y017136D01*
X037189Y017062D01*
X037238Y016985D01*
X037283Y016906D01*
X037323Y016825D01*
X037360Y016742D01*
X037393Y016657D01*
X037421Y016571D01*
X037446Y016484D01*
X037465Y016395D01*
X037481Y016305D01*
X037492Y016215D01*
X037499Y016125D01*
X037501Y016034D01*
X037499Y015943D01*
X037492Y015853D01*
X037481Y015763D01*
X037465Y015673D01*
X037446Y015584D01*
X037421Y015497D01*
X037393Y015411D01*
X037360Y015326D01*
X037323Y015243D01*
X037283Y015162D01*
X037238Y015083D01*
X037189Y015006D01*
X037137Y014932D01*
X037081Y014860D01*
X037022Y014792D01*
X036959Y014726D01*
X036893Y014663D01*
X036825Y014604D01*
X036753Y014548D01*
X036679Y014496D01*
X036602Y014447D01*
X036523Y014402D01*
X036442Y014362D01*
X036359Y014325D01*
X036274Y014292D01*
X036188Y014264D01*
X036101Y014239D01*
X036012Y014220D01*
X035922Y014204D01*
X035832Y014193D01*
X035742Y014186D01*
X035651Y014184D01*
X035560Y014186D01*
X035470Y014193D01*
X035380Y014204D01*
X035290Y014220D01*
X035201Y014239D01*
X035114Y014264D01*
X035028Y014292D01*
X034943Y014325D01*
X034860Y014362D01*
X034779Y014402D01*
X034700Y014447D01*
X034623Y014496D01*
X034549Y014548D01*
X034477Y014604D01*
X034409Y014663D01*
X034343Y014726D01*
X034280Y014792D01*
X034221Y014860D01*
X034165Y014932D01*
X034113Y015006D01*
X034064Y015083D01*
X034019Y015162D01*
X033979Y015243D01*
X033942Y015326D01*
X033909Y015411D01*
X033881Y015497D01*
X033856Y015584D01*
X033837Y015673D01*
X033821Y015763D01*
X033810Y015853D01*
X033803Y015943D01*
X033801Y016034D01*
X038001Y016554D02*
X038003Y016627D01*
X038009Y016700D01*
X038019Y016772D01*
X038033Y016844D01*
X038050Y016915D01*
X038072Y016985D01*
X038097Y017054D01*
X038126Y017121D01*
X038158Y017186D01*
X038194Y017250D01*
X038234Y017312D01*
X038276Y017371D01*
X038322Y017428D01*
X038371Y017482D01*
X038423Y017534D01*
X038477Y017583D01*
X038534Y017629D01*
X038593Y017671D01*
X038655Y017711D01*
X038719Y017747D01*
X038784Y017779D01*
X038851Y017808D01*
X038920Y017833D01*
X038990Y017855D01*
X039061Y017872D01*
X039133Y017886D01*
X039205Y017896D01*
X039278Y017902D01*
X039351Y017904D01*
X039424Y017902D01*
X039497Y017896D01*
X039569Y017886D01*
X039641Y017872D01*
X039712Y017855D01*
X039782Y017833D01*
X039851Y017808D01*
X039918Y017779D01*
X039983Y017747D01*
X040047Y017711D01*
X040109Y017671D01*
X040168Y017629D01*
X040225Y017583D01*
X040279Y017534D01*
X040331Y017482D01*
X040380Y017428D01*
X040426Y017371D01*
X040468Y017312D01*
X040508Y017250D01*
X040544Y017186D01*
X040576Y017121D01*
X040605Y017054D01*
X040630Y016985D01*
X040652Y016915D01*
X040669Y016844D01*
X040683Y016772D01*
X040693Y016700D01*
X040699Y016627D01*
X040701Y016554D01*
X040699Y016481D01*
X040693Y016408D01*
X040683Y016336D01*
X040669Y016264D01*
X040652Y016193D01*
X040630Y016123D01*
X040605Y016054D01*
X040576Y015987D01*
X040544Y015922D01*
X040508Y015858D01*
X040468Y015796D01*
X040426Y015737D01*
X040380Y015680D01*
X040331Y015626D01*
X040279Y015574D01*
X040225Y015525D01*
X040168Y015479D01*
X040109Y015437D01*
X040047Y015397D01*
X039983Y015361D01*
X039918Y015329D01*
X039851Y015300D01*
X039782Y015275D01*
X039712Y015253D01*
X039641Y015236D01*
X039569Y015222D01*
X039497Y015212D01*
X039424Y015206D01*
X039351Y015204D01*
X039278Y015206D01*
X039205Y015212D01*
X039133Y015222D01*
X039061Y015236D01*
X038990Y015253D01*
X038920Y015275D01*
X038851Y015300D01*
X038784Y015329D01*
X038719Y015361D01*
X038655Y015397D01*
X038593Y015437D01*
X038534Y015479D01*
X038477Y015525D01*
X038423Y015574D01*
X038371Y015626D01*
X038322Y015680D01*
X038276Y015737D01*
X038234Y015796D01*
X038194Y015858D01*
X038158Y015922D01*
X038126Y015987D01*
X038097Y016054D01*
X038072Y016123D01*
X038050Y016193D01*
X038033Y016264D01*
X038019Y016336D01*
X038009Y016408D01*
X038003Y016481D01*
X038001Y016554D01*
X010051Y007334D02*
X010051Y006734D01*
X010049Y006717D01*
X010045Y006700D01*
X010038Y006684D01*
X010028Y006670D01*
X010015Y006657D01*
X010001Y006647D01*
X009985Y006640D01*
X009968Y006636D01*
X009951Y006634D01*
X008851Y006634D01*
X008834Y006636D01*
X008817Y006640D01*
X008801Y006647D01*
X008787Y006657D01*
X008774Y006670D01*
X008764Y006684D01*
X008757Y006700D01*
X008753Y006717D01*
X008751Y006734D01*
X008751Y007334D01*
X008753Y007351D01*
X008757Y007368D01*
X008764Y007384D01*
X008774Y007398D01*
X008787Y007411D01*
X008801Y007421D01*
X008817Y007428D01*
X008834Y007432D01*
X008851Y007434D01*
X009951Y007434D01*
X009968Y007432D01*
X009985Y007428D01*
X010001Y007421D01*
X010015Y007411D01*
X010028Y007398D01*
X010038Y007384D01*
X010045Y007368D01*
X010049Y007351D01*
X010051Y007334D01*
X009951Y005934D02*
X008851Y005934D01*
X008834Y005932D01*
X008817Y005928D01*
X008801Y005921D01*
X008787Y005911D01*
X008774Y005898D01*
X008764Y005884D01*
X008757Y005868D01*
X008753Y005851D01*
X008751Y005834D01*
X008751Y005234D01*
X008753Y005217D01*
X008757Y005200D01*
X008764Y005184D01*
X008774Y005170D01*
X008787Y005157D01*
X008801Y005147D01*
X008817Y005140D01*
X008834Y005136D01*
X008851Y005134D01*
X009951Y005134D01*
X009968Y005136D01*
X009985Y005140D01*
X010001Y005147D01*
X010015Y005157D01*
X010028Y005170D01*
X010038Y005184D01*
X010045Y005200D01*
X010049Y005217D01*
X010051Y005234D01*
X010051Y005834D01*
X010049Y005851D01*
X010045Y005868D01*
X010038Y005884D01*
X010028Y005898D01*
X010015Y005911D01*
X010001Y005921D01*
X009985Y005928D01*
X009968Y005932D01*
X009951Y005934D01*
X000601Y005534D02*
X000603Y005607D01*
X000609Y005680D01*
X000619Y005752D01*
X000633Y005824D01*
X000650Y005895D01*
X000672Y005965D01*
X000697Y006034D01*
X000726Y006101D01*
X000758Y006166D01*
X000794Y006230D01*
X000834Y006292D01*
X000876Y006351D01*
X000922Y006408D01*
X000971Y006462D01*
X001023Y006514D01*
X001077Y006563D01*
X001134Y006609D01*
X001193Y006651D01*
X001255Y006691D01*
X001319Y006727D01*
X001384Y006759D01*
X001451Y006788D01*
X001520Y006813D01*
X001590Y006835D01*
X001661Y006852D01*
X001733Y006866D01*
X001805Y006876D01*
X001878Y006882D01*
X001951Y006884D01*
X002024Y006882D01*
X002097Y006876D01*
X002169Y006866D01*
X002241Y006852D01*
X002312Y006835D01*
X002382Y006813D01*
X002451Y006788D01*
X002518Y006759D01*
X002583Y006727D01*
X002647Y006691D01*
X002709Y006651D01*
X002768Y006609D01*
X002825Y006563D01*
X002879Y006514D01*
X002931Y006462D01*
X002980Y006408D01*
X003026Y006351D01*
X003068Y006292D01*
X003108Y006230D01*
X003144Y006166D01*
X003176Y006101D01*
X003205Y006034D01*
X003230Y005965D01*
X003252Y005895D01*
X003269Y005824D01*
X003283Y005752D01*
X003293Y005680D01*
X003299Y005607D01*
X003301Y005534D01*
X003299Y005461D01*
X003293Y005388D01*
X003283Y005316D01*
X003269Y005244D01*
X003252Y005173D01*
X003230Y005103D01*
X003205Y005034D01*
X003176Y004967D01*
X003144Y004902D01*
X003108Y004838D01*
X003068Y004776D01*
X003026Y004717D01*
X002980Y004660D01*
X002931Y004606D01*
X002879Y004554D01*
X002825Y004505D01*
X002768Y004459D01*
X002709Y004417D01*
X002647Y004377D01*
X002583Y004341D01*
X002518Y004309D01*
X002451Y004280D01*
X002382Y004255D01*
X002312Y004233D01*
X002241Y004216D01*
X002169Y004202D01*
X002097Y004192D01*
X002024Y004186D01*
X001951Y004184D01*
X001878Y004186D01*
X001805Y004192D01*
X001733Y004202D01*
X001661Y004216D01*
X001590Y004233D01*
X001520Y004255D01*
X001451Y004280D01*
X001384Y004309D01*
X001319Y004341D01*
X001255Y004377D01*
X001193Y004417D01*
X001134Y004459D01*
X001077Y004505D01*
X001023Y004554D01*
X000971Y004606D01*
X000922Y004660D01*
X000876Y004717D01*
X000834Y004776D01*
X000794Y004838D01*
X000758Y004902D01*
X000726Y004967D01*
X000697Y005034D01*
X000672Y005103D01*
X000650Y005173D01*
X000633Y005244D01*
X000619Y005316D01*
X000609Y005388D01*
X000603Y005461D01*
X000601Y005534D01*
D15*
X000720Y008247D02*
X000326Y008247D01*
X000326Y009822D01*
X000720Y009822D01*
X000720Y012247D02*
X000326Y012247D01*
X000326Y013822D01*
X000720Y013822D01*
X030151Y014334D02*
X033151Y014334D01*
X033151Y016534D01*
X032651Y016534D01*
X032651Y016034D01*
X030651Y016034D01*
X030651Y016534D01*
X032651Y016534D01*
X030651Y016534D02*
X030151Y016534D01*
X030151Y014334D01*
X031186Y010483D02*
X031816Y010483D01*
X033462Y010179D02*
X033462Y009549D01*
X034580Y009549D02*
X034580Y010179D01*
X031816Y009365D02*
X031186Y009365D01*
D16*
X032009Y009924D02*
X032013Y009924D01*
X034021Y009356D02*
X034021Y009352D01*
D17*
X033627Y009717D03*
D18*
X026151Y010484D03*
D19*
X026151Y009859D03*
X026151Y012209D03*
D20*
X031245Y010428D02*
X031761Y010428D01*
X031761Y009424D01*
X031245Y009424D01*
X031245Y010428D01*
D21*
X035401Y002034D03*
D22*
X036076Y002034D03*
X031726Y002034D03*
D23*
X026818Y003389D02*
X026775Y003334D01*
X026726Y003370D01*
X026675Y003404D01*
X026621Y003433D01*
X026566Y003460D01*
X026510Y003484D01*
X026452Y003503D01*
X026393Y003520D01*
X026333Y003533D01*
X026273Y003542D01*
X026212Y003547D01*
X026150Y003549D01*
X026089Y003547D01*
X026028Y003542D01*
X025968Y003532D01*
X025908Y003519D01*
X025849Y003503D01*
X025791Y003483D01*
X025735Y003460D01*
X025680Y003433D01*
X025626Y003403D01*
X025575Y003370D01*
X025526Y003334D01*
X025479Y003294D01*
X025434Y003253D01*
X025392Y003208D01*
X025353Y003161D01*
X025317Y003112D01*
X025283Y003061D01*
X025253Y003007D01*
X025226Y002952D01*
X025203Y002896D01*
X025183Y002838D01*
X025116Y002858D01*
X025116Y002859D01*
X025137Y002920D01*
X025162Y002981D01*
X025191Y003040D01*
X025223Y003097D01*
X025259Y003151D01*
X025298Y003204D01*
X025340Y003254D01*
X025385Y003302D01*
X025432Y003347D01*
X025482Y003389D01*
X025535Y003427D01*
X025590Y003463D01*
X025647Y003495D01*
X025706Y003524D01*
X025766Y003549D01*
X025828Y003570D01*
X025891Y003587D01*
X025955Y003601D01*
X026020Y003611D01*
X026085Y003617D01*
X026151Y003619D01*
X026216Y003617D01*
X026281Y003611D01*
X026346Y003601D01*
X026410Y003588D01*
X026473Y003570D01*
X026535Y003549D01*
X026595Y003524D01*
X026654Y003495D01*
X026711Y003463D01*
X026766Y003428D01*
X026819Y003389D01*
X026813Y003382D01*
X026761Y003420D01*
X026706Y003456D01*
X026650Y003487D01*
X026591Y003516D01*
X026531Y003541D01*
X026470Y003562D01*
X026408Y003579D01*
X026344Y003593D01*
X026280Y003602D01*
X026215Y003608D01*
X026151Y003610D01*
X026086Y003608D01*
X026021Y003602D01*
X025957Y003592D01*
X025893Y003579D01*
X025831Y003561D01*
X025770Y003540D01*
X025710Y003515D01*
X025651Y003487D01*
X025595Y003455D01*
X025540Y003420D01*
X025488Y003382D01*
X025438Y003340D01*
X025391Y003296D01*
X025346Y003248D01*
X025305Y003199D01*
X025266Y003146D01*
X025231Y003092D01*
X025199Y003035D01*
X025171Y002977D01*
X025146Y002917D01*
X025124Y002856D01*
X025133Y002853D01*
X025154Y002914D01*
X025179Y002974D01*
X025207Y003031D01*
X025239Y003087D01*
X025274Y003141D01*
X025312Y003193D01*
X025353Y003242D01*
X025397Y003289D01*
X025444Y003333D01*
X025494Y003374D01*
X025545Y003413D01*
X025599Y003447D01*
X025656Y003479D01*
X025713Y003507D01*
X025773Y003532D01*
X025834Y003553D01*
X025896Y003570D01*
X025959Y003583D01*
X026022Y003593D01*
X026086Y003599D01*
X026150Y003601D01*
X026215Y003599D01*
X026279Y003593D01*
X026342Y003584D01*
X026405Y003570D01*
X026467Y003553D01*
X026528Y003532D01*
X026588Y003508D01*
X026646Y003479D01*
X026702Y003448D01*
X026756Y003413D01*
X026808Y003375D01*
X026802Y003368D01*
X026751Y003406D01*
X026697Y003440D01*
X026641Y003472D01*
X026584Y003499D01*
X026525Y003524D01*
X026465Y003544D01*
X026403Y003561D01*
X026341Y003575D01*
X026278Y003584D01*
X026214Y003590D01*
X026150Y003592D01*
X026087Y003590D01*
X026023Y003584D01*
X025960Y003575D01*
X025898Y003561D01*
X025836Y003544D01*
X025776Y003523D01*
X025717Y003499D01*
X025660Y003471D01*
X025604Y003440D01*
X025551Y003405D01*
X025499Y003367D01*
X025450Y003327D01*
X025404Y003283D01*
X025360Y003236D01*
X025319Y003188D01*
X025281Y003136D01*
X025246Y003083D01*
X025215Y003027D01*
X025187Y002970D01*
X025162Y002911D01*
X025142Y002851D01*
X025150Y002848D01*
X025171Y002908D01*
X025195Y002966D01*
X025223Y003023D01*
X025254Y003078D01*
X025289Y003131D01*
X025326Y003182D01*
X025367Y003231D01*
X025410Y003277D01*
X025456Y003320D01*
X025505Y003360D01*
X025556Y003398D01*
X025609Y003432D01*
X025664Y003463D01*
X025721Y003491D01*
X025779Y003515D01*
X025839Y003536D01*
X025900Y003553D01*
X025962Y003566D01*
X026024Y003575D01*
X026087Y003581D01*
X026150Y003583D01*
X026214Y003581D01*
X026277Y003575D01*
X026339Y003566D01*
X026401Y003553D01*
X026462Y003536D01*
X026522Y003515D01*
X026580Y003491D01*
X026637Y003464D01*
X026692Y003433D01*
X026745Y003398D01*
X026796Y003361D01*
X026791Y003354D01*
X026740Y003391D01*
X026688Y003425D01*
X026633Y003456D01*
X026577Y003483D01*
X026519Y003507D01*
X026459Y003527D01*
X026399Y003544D01*
X026338Y003557D01*
X026276Y003567D01*
X026213Y003572D01*
X026150Y003574D01*
X026088Y003572D01*
X026025Y003566D01*
X025963Y003557D01*
X025902Y003544D01*
X025842Y003527D01*
X025782Y003506D01*
X025724Y003483D01*
X025668Y003455D01*
X025613Y003424D01*
X025561Y003390D01*
X025510Y003353D01*
X025462Y003313D01*
X025416Y003270D01*
X025373Y003225D01*
X025333Y003176D01*
X025296Y003126D01*
X025262Y003073D01*
X025231Y003019D01*
X025203Y002963D01*
X025179Y002905D01*
X025159Y002845D01*
X025167Y002843D01*
X025188Y002901D01*
X025212Y002959D01*
X025239Y003015D01*
X025270Y003069D01*
X025303Y003121D01*
X025340Y003171D01*
X025380Y003219D01*
X025423Y003264D01*
X025468Y003306D01*
X025516Y003346D01*
X025566Y003383D01*
X025618Y003417D01*
X025672Y003447D01*
X025728Y003474D01*
X025786Y003498D01*
X025844Y003518D01*
X025904Y003535D01*
X025965Y003548D01*
X026026Y003557D01*
X026088Y003563D01*
X026150Y003565D01*
X026213Y003563D01*
X026274Y003558D01*
X026336Y003548D01*
X026397Y003535D01*
X026457Y003519D01*
X026515Y003498D01*
X026573Y003475D01*
X026629Y003448D01*
X026683Y003417D01*
X026735Y003384D01*
X026785Y003347D01*
X026780Y003340D01*
X026730Y003376D01*
X026678Y003409D01*
X026625Y003440D01*
X026569Y003467D01*
X026512Y003490D01*
X026454Y003510D01*
X026395Y003527D01*
X026334Y003539D01*
X026273Y003549D01*
X026212Y003554D01*
X026150Y003556D01*
X026089Y003554D01*
X026028Y003549D01*
X025967Y003539D01*
X025906Y003526D01*
X025847Y003510D01*
X025789Y003490D01*
X025732Y003466D01*
X025676Y003439D01*
X025623Y003409D01*
X025571Y003376D01*
X025521Y003339D01*
X025474Y003300D01*
X025429Y003257D01*
X025387Y003213D01*
X025347Y003165D01*
X025311Y003116D01*
X025277Y003064D01*
X025247Y003011D01*
X025220Y002955D01*
X025196Y002898D01*
X025176Y002840D01*
X025116Y002210D02*
X025183Y002230D01*
X025203Y002172D01*
X025226Y002116D01*
X025253Y002061D01*
X025283Y002008D01*
X025317Y001956D01*
X025353Y001907D01*
X025392Y001860D01*
X025434Y001816D01*
X025479Y001774D01*
X025526Y001734D01*
X025575Y001698D01*
X025626Y001665D01*
X025680Y001635D01*
X025735Y001608D01*
X025791Y001585D01*
X025849Y001565D01*
X025908Y001549D01*
X025968Y001536D01*
X026028Y001526D01*
X026089Y001521D01*
X026150Y001519D01*
X026212Y001521D01*
X026273Y001526D01*
X026333Y001535D01*
X026393Y001548D01*
X026452Y001565D01*
X026510Y001584D01*
X026566Y001608D01*
X026621Y001635D01*
X026675Y001664D01*
X026726Y001698D01*
X026775Y001734D01*
X026818Y001679D01*
X026819Y001679D01*
X026766Y001640D01*
X026711Y001605D01*
X026654Y001573D01*
X026595Y001544D01*
X026535Y001519D01*
X026473Y001498D01*
X026410Y001480D01*
X026346Y001467D01*
X026281Y001457D01*
X026216Y001451D01*
X026150Y001449D01*
X026085Y001451D01*
X026020Y001457D01*
X025955Y001467D01*
X025891Y001481D01*
X025828Y001498D01*
X025766Y001519D01*
X025706Y001544D01*
X025647Y001573D01*
X025590Y001605D01*
X025535Y001641D01*
X025482Y001679D01*
X025432Y001721D01*
X025385Y001766D01*
X025340Y001814D01*
X025298Y001864D01*
X025259Y001917D01*
X025223Y001971D01*
X025191Y002028D01*
X025162Y002087D01*
X025137Y002148D01*
X025116Y002209D01*
X025124Y002212D01*
X025146Y002151D01*
X025171Y002091D01*
X025199Y002033D01*
X025231Y001976D01*
X025266Y001922D01*
X025305Y001869D01*
X025346Y001820D01*
X025391Y001772D01*
X025438Y001728D01*
X025488Y001687D01*
X025540Y001648D01*
X025595Y001613D01*
X025651Y001581D01*
X025710Y001553D01*
X025770Y001528D01*
X025831Y001507D01*
X025893Y001489D01*
X025957Y001476D01*
X026021Y001466D01*
X026086Y001460D01*
X026150Y001458D01*
X026215Y001460D01*
X026280Y001466D01*
X026344Y001475D01*
X026408Y001489D01*
X026470Y001506D01*
X026531Y001527D01*
X026591Y001552D01*
X026650Y001581D01*
X026706Y001612D01*
X026761Y001647D01*
X026813Y001686D01*
X026808Y001693D01*
X026756Y001655D01*
X026702Y001620D01*
X026646Y001589D01*
X026588Y001560D01*
X026528Y001536D01*
X026467Y001515D01*
X026405Y001498D01*
X026342Y001484D01*
X026279Y001475D01*
X026215Y001469D01*
X026150Y001467D01*
X026086Y001469D01*
X026022Y001475D01*
X025959Y001485D01*
X025896Y001498D01*
X025834Y001515D01*
X025773Y001536D01*
X025713Y001561D01*
X025656Y001589D01*
X025599Y001621D01*
X025545Y001655D01*
X025494Y001694D01*
X025444Y001735D01*
X025397Y001779D01*
X025353Y001826D01*
X025312Y001875D01*
X025274Y001927D01*
X025239Y001981D01*
X025207Y002037D01*
X025179Y002094D01*
X025154Y002154D01*
X025133Y002215D01*
X025142Y002217D01*
X025162Y002157D01*
X025187Y002098D01*
X025215Y002041D01*
X025246Y001985D01*
X025281Y001932D01*
X025319Y001880D01*
X025360Y001832D01*
X025404Y001785D01*
X025450Y001741D01*
X025499Y001701D01*
X025551Y001663D01*
X025604Y001628D01*
X025660Y001597D01*
X025717Y001569D01*
X025776Y001545D01*
X025836Y001524D01*
X025898Y001507D01*
X025960Y001493D01*
X026023Y001484D01*
X026087Y001478D01*
X026150Y001476D01*
X026214Y001478D01*
X026278Y001484D01*
X026341Y001493D01*
X026403Y001506D01*
X026465Y001524D01*
X026525Y001544D01*
X026584Y001569D01*
X026641Y001596D01*
X026697Y001628D01*
X026751Y001662D01*
X026802Y001700D01*
X026796Y001707D01*
X026745Y001670D01*
X026692Y001635D01*
X026637Y001604D01*
X026580Y001577D01*
X026522Y001553D01*
X026462Y001532D01*
X026401Y001515D01*
X026339Y001502D01*
X026277Y001493D01*
X026214Y001487D01*
X026150Y001485D01*
X026087Y001487D01*
X026024Y001493D01*
X025962Y001502D01*
X025900Y001515D01*
X025839Y001532D01*
X025779Y001553D01*
X025721Y001577D01*
X025664Y001605D01*
X025609Y001636D01*
X025556Y001670D01*
X025505Y001708D01*
X025456Y001748D01*
X025410Y001791D01*
X025367Y001837D01*
X025326Y001886D01*
X025289Y001937D01*
X025254Y001990D01*
X025223Y002045D01*
X025195Y002102D01*
X025171Y002160D01*
X025150Y002220D01*
X025159Y002223D01*
X025179Y002163D01*
X025203Y002106D01*
X025231Y002049D01*
X025262Y001995D01*
X025296Y001942D01*
X025333Y001892D01*
X025373Y001843D01*
X025416Y001798D01*
X025462Y001755D01*
X025510Y001715D01*
X025561Y001678D01*
X025613Y001644D01*
X025668Y001613D01*
X025724Y001585D01*
X025782Y001562D01*
X025842Y001541D01*
X025902Y001524D01*
X025963Y001511D01*
X026025Y001502D01*
X026088Y001496D01*
X026150Y001494D01*
X026213Y001496D01*
X026276Y001501D01*
X026338Y001511D01*
X026399Y001524D01*
X026459Y001541D01*
X026519Y001561D01*
X026577Y001585D01*
X026633Y001612D01*
X026688Y001643D01*
X026740Y001677D01*
X026791Y001714D01*
X026785Y001721D01*
X026735Y001684D01*
X026683Y001651D01*
X026629Y001620D01*
X026573Y001593D01*
X026515Y001570D01*
X026457Y001549D01*
X026397Y001533D01*
X026336Y001520D01*
X026274Y001510D01*
X026213Y001505D01*
X026150Y001503D01*
X026088Y001505D01*
X026026Y001511D01*
X025965Y001520D01*
X025904Y001533D01*
X025844Y001550D01*
X025786Y001570D01*
X025728Y001594D01*
X025672Y001621D01*
X025618Y001651D01*
X025566Y001685D01*
X025516Y001722D01*
X025468Y001762D01*
X025423Y001804D01*
X025380Y001849D01*
X025340Y001897D01*
X025303Y001947D01*
X025270Y001999D01*
X025239Y002053D01*
X025212Y002109D01*
X025188Y002167D01*
X025167Y002225D01*
X025176Y002228D01*
X025196Y002170D01*
X025220Y002113D01*
X025247Y002058D01*
X025277Y002004D01*
X025311Y001952D01*
X025347Y001903D01*
X025387Y001855D01*
X025429Y001811D01*
X025474Y001768D01*
X025521Y001729D01*
X025571Y001693D01*
X025623Y001659D01*
X025676Y001629D01*
X025732Y001602D01*
X025789Y001578D01*
X025847Y001558D01*
X025906Y001542D01*
X025967Y001529D01*
X026027Y001519D01*
X026089Y001514D01*
X026150Y001512D01*
X026212Y001514D01*
X026273Y001519D01*
X026334Y001529D01*
X026395Y001541D01*
X026454Y001558D01*
X026512Y001578D01*
X026569Y001601D01*
X026625Y001628D01*
X026678Y001658D01*
X026730Y001692D01*
X026780Y001728D01*
M02*
