G75*
G70*
%OFA0B0*%
%FSLAX24Y24*%
%IPPOS*%
%LPD*%
%AMOC8*
5,1,8,0,0,1.08239X$1,22.5*
%
%ADD10C,0.0680*%
%ADD11C,0.0600*%
%ADD12C,0.0740*%
%ADD13C,0.0730*%
%ADD14R,0.0730X0.0730*%
%ADD15C,0.0600*%
%ADD16OC8,0.0820*%
%ADD17OC8,0.0600*%
%ADD18C,0.0940*%
%ADD19C,0.0820*%
%ADD20R,0.0315X0.0433*%
%ADD21C,0.0740*%
%ADD22R,0.0470X0.0352*%
%ADD23OC8,0.0710*%
%ADD24C,0.0710*%
%ADD25R,0.0540X0.0710*%
%ADD26R,0.0060X0.0720*%
%ADD27C,0.0780*%
%ADD28R,0.0595X0.0595*%
%ADD29C,0.0965*%
%ADD30C,0.1497*%
%ADD31R,0.0820X0.0820*%
%ADD32C,0.0480*%
%ADD33C,0.0476*%
D10*
X005770Y011732D03*
X005770Y012519D03*
X005770Y013306D03*
X005770Y014094D03*
X005770Y014881D03*
X005770Y015669D03*
X005770Y016456D03*
X005770Y017243D03*
X005770Y018031D03*
X005770Y018818D03*
X014432Y018818D03*
X014432Y018031D03*
X014432Y017243D03*
X014432Y016456D03*
X014432Y015669D03*
X014432Y014881D03*
X014432Y014094D03*
X014432Y013306D03*
X014432Y012519D03*
X014432Y011732D03*
D11*
X017891Y011534D02*
X018411Y011534D01*
X018411Y012534D02*
X017891Y012534D01*
X017891Y013534D02*
X018411Y013534D01*
X018411Y014534D02*
X017891Y014534D01*
X017891Y015534D02*
X018411Y015534D01*
X018411Y016534D02*
X017891Y016534D01*
X017891Y017534D02*
X018411Y017534D01*
X018411Y018534D02*
X017891Y018534D01*
X017891Y019534D02*
X018411Y019534D01*
X018411Y020534D02*
X017891Y020534D01*
X023891Y020534D02*
X024411Y020534D01*
X024411Y019534D02*
X023891Y019534D01*
X023891Y018534D02*
X024411Y018534D01*
X024411Y017534D02*
X023891Y017534D01*
X023891Y016534D02*
X024411Y016534D01*
X024411Y015534D02*
X023891Y015534D01*
X023891Y014534D02*
X024411Y014534D01*
X024411Y013534D02*
X023891Y013534D01*
X023891Y012534D02*
X024411Y012534D01*
X024411Y011534D02*
X023891Y011534D01*
X023891Y010534D02*
X024411Y010534D01*
X024411Y009534D02*
X023891Y009534D01*
X023891Y008534D02*
X024411Y008534D01*
X024411Y007534D02*
X023891Y007534D01*
X023891Y006534D02*
X024411Y006534D01*
X024411Y005534D02*
X023891Y005534D01*
X023891Y004534D02*
X024411Y004534D01*
X024411Y003534D02*
X023891Y003534D01*
X023891Y002534D02*
X024411Y002534D01*
X024411Y001534D02*
X023891Y001534D01*
X018411Y001534D02*
X017891Y001534D01*
X017891Y002534D02*
X018411Y002534D01*
X018411Y003534D02*
X017891Y003534D01*
X017891Y004534D02*
X018411Y004534D01*
X018411Y005534D02*
X017891Y005534D01*
X017891Y006534D02*
X018411Y006534D01*
X018411Y007534D02*
X017891Y007534D01*
X017891Y008534D02*
X018411Y008534D01*
X018411Y009534D02*
X017891Y009534D01*
X017891Y010534D02*
X018411Y010534D01*
X036851Y010994D02*
X037371Y010994D01*
X037371Y009994D02*
X036851Y009994D01*
X036851Y008994D02*
X037371Y008994D01*
X039851Y008994D02*
X040371Y008994D01*
X040371Y009994D02*
X039851Y009994D01*
X039851Y010994D02*
X040371Y010994D01*
X040371Y011994D02*
X039851Y011994D01*
X037371Y011994D02*
X036851Y011994D01*
D12*
X032233Y019511D02*
X032233Y020171D01*
X031233Y020171D02*
X031233Y019511D01*
X030233Y019511D02*
X030233Y020171D01*
D13*
X025901Y020034D03*
X025901Y017534D03*
X016651Y014784D03*
X015651Y014784D03*
X015651Y013284D03*
X016651Y013284D03*
X016651Y012034D03*
X015651Y012034D03*
X025651Y008034D03*
X026651Y008034D03*
X016651Y005784D03*
X015651Y005784D03*
X004401Y017284D03*
X004401Y018284D03*
X003901Y020334D03*
X039151Y013534D03*
D14*
X040151Y013534D03*
X026901Y017534D03*
X026901Y020034D03*
X004901Y020334D03*
D15*
X016151Y009784D03*
X016151Y007784D03*
D16*
X009611Y002054D03*
X010611Y002054D03*
X011611Y002054D03*
X012611Y002054D03*
X013611Y002054D03*
X013611Y003054D03*
X012611Y003054D03*
X011611Y003054D03*
X010611Y003054D03*
X009611Y003054D03*
X011481Y006194D03*
X012481Y006194D03*
X013481Y006194D03*
X013481Y007194D03*
X012481Y007194D03*
X011481Y007194D03*
D17*
X015651Y016534D03*
X016651Y016534D03*
X016651Y018534D03*
X015651Y018534D03*
X015651Y020534D03*
X016651Y020534D03*
X035811Y013534D03*
X035811Y009534D03*
X035151Y008034D03*
X034151Y008034D03*
X032651Y008034D03*
X031401Y008034D03*
X030151Y008034D03*
X036651Y008034D03*
X036651Y004034D03*
X035151Y004034D03*
X034151Y004034D03*
X032651Y004034D03*
X031401Y004034D03*
X030151Y004034D03*
D18*
X002393Y007656D03*
X002393Y010412D03*
X002393Y011656D03*
X002393Y014412D03*
D19*
X001409Y013920D03*
X001409Y012148D03*
X001409Y009920D03*
X001409Y008148D03*
X025401Y002534D03*
X026151Y002034D03*
X026151Y003034D03*
X025901Y015034D03*
X026901Y015034D03*
X030651Y015534D03*
X031651Y015534D03*
D20*
X033647Y010376D03*
X034021Y010376D03*
X034395Y010376D03*
X034395Y009352D03*
X034021Y009352D03*
X033647Y009352D03*
D21*
X026151Y009034D03*
X026151Y013034D03*
D22*
X030989Y010298D03*
X032009Y010298D03*
X032009Y009924D03*
X032009Y009550D03*
X030989Y009550D03*
D23*
X032351Y012534D03*
D24*
X030951Y012534D03*
D25*
X026451Y006284D03*
X025851Y006284D03*
X025851Y004534D03*
X026451Y004534D03*
X009701Y005534D03*
X009101Y005534D03*
X009101Y007034D03*
X009701Y007034D03*
D26*
X009401Y007034D03*
X009401Y005534D03*
X026151Y006284D03*
X026151Y004534D03*
D27*
X034651Y015684D02*
X034651Y016384D01*
X036651Y016384D02*
X036651Y015684D01*
D28*
X028611Y015474D03*
X028611Y014474D03*
X028611Y013474D03*
X028611Y012474D03*
X028611Y011474D03*
X028611Y010474D03*
X028611Y009474D03*
X028611Y008474D03*
X028611Y007474D03*
X028611Y006474D03*
X028611Y005474D03*
X028611Y004474D03*
X028611Y003474D03*
X028611Y002474D03*
X028611Y001474D03*
X028611Y016474D03*
X028611Y017474D03*
X028611Y018474D03*
X028611Y019474D03*
X028611Y020474D03*
D29*
X030459Y002034D02*
X031344Y002034D01*
X036459Y002034D02*
X037344Y002034D01*
D30*
X039351Y005534D03*
X039351Y016554D03*
X001951Y016554D03*
X001951Y005534D03*
D31*
X032651Y015534D03*
D32*
X029151Y015934D03*
X027451Y015434D03*
X025751Y014334D03*
X026851Y013034D03*
X028151Y011934D03*
X031551Y010534D03*
X031451Y009834D03*
X033551Y009834D03*
X035051Y009334D03*
X034351Y010934D03*
X033651Y007334D03*
X027751Y007634D03*
X027751Y008534D03*
X026151Y007334D03*
X024851Y008134D03*
X025551Y009634D03*
X023451Y012134D03*
X019451Y009934D03*
X015751Y011234D03*
X013351Y009834D03*
X013851Y008534D03*
X013651Y005134D03*
X017351Y003734D03*
X019151Y004534D03*
X022951Y006434D03*
X024951Y005334D03*
X026251Y003934D03*
X020951Y002334D03*
X020751Y001134D03*
X014551Y001734D03*
X006251Y010634D03*
X008651Y015634D03*
X027851Y017834D03*
X030751Y020634D03*
X032051Y004034D03*
D33*
X038151Y008034D03*
X038151Y013034D03*
M02*
